<svg xmlns="http://www.w3.org/2000/svg" width="1163" height="500.176" viewBox="0 0 1163 500.176">
  <g id="Grupo_57420" data-name="Grupo 57420" transform="translate(-210 -1633)">
    <path id="Trazado_102827" data-name="Trazado 102827" d="M0,0H143V50H0Z" transform="translate(210 1633)" fill="#039be5"/>
    <path id="Trazado_102829" data-name="Trazado 102829" d="M-27.738-9.51l.079,1.1a3.32,3.32,0,0,1,2.733-1.274,2.759,2.759,0,0,1,2.25.888,4.142,4.142,0,0,1,.756,2.654V0h-2.54V-6.1a1.654,1.654,0,0,0-.352-1.176,1.572,1.572,0,0,0-1.169-.366,1.747,1.747,0,0,0-1.608.916V0h-2.54V-9.51Zm7.348,4.667a5.64,5.64,0,0,1,.545-2.522,3.989,3.989,0,0,1,1.569-1.714A4.577,4.577,0,0,1-15.9-9.686a4.33,4.33,0,0,1,3.142,1.178,4.727,4.727,0,0,1,1.358,3.2l.018.65A4.97,4.97,0,0,1-12.6-1.147,4.247,4.247,0,0,1-15.882.176a4.268,4.268,0,0,1-3.283-1.318,5.058,5.058,0,0,1-1.226-3.586Zm2.54.18a3.555,3.555,0,0,0,.51,2.073,1.682,1.682,0,0,0,1.459.717,1.686,1.686,0,0,0,1.441-.709,3.89,3.89,0,0,0,.519-2.267,3.519,3.519,0,0,0-.519-2.06A1.686,1.686,0,0,0-15.9-7.638a1.658,1.658,0,0,0-1.441.726A3.955,3.955,0,0,0-17.851-4.662ZM-7.436-9.51l.079,1.063A3.342,3.342,0,0,1-4.623-9.686,2.536,2.536,0,0,1-2.1-8.235,3.265,3.265,0,0,1,.756-9.686a2.836,2.836,0,0,1,2.3.9,4.141,4.141,0,0,1,.756,2.711V0H1.266V-6.078A1.818,1.818,0,0,0,.949-7.263,1.4,1.4,0,0,0-.167-7.638,1.585,1.585,0,0,0-1.749-6.545L-1.74,0H-4.28V-6.07a1.8,1.8,0,0,0-.325-1.2,1.414,1.414,0,0,0-1.107-.37,1.645,1.645,0,0,0-1.564.9V0h-2.54V-9.51ZM14.335-4.667A5.758,5.758,0,0,1,13.359-1.1,3.231,3.231,0,0,1,10.635.176a2.969,2.969,0,0,1-2.47-1.187L8.051,0H5.766V-13.5h2.54v4.843a2.893,2.893,0,0,1,2.312-1.028,3.258,3.258,0,0,1,2.729,1.279,5.767,5.767,0,0,1,.989,3.6Zm-2.54-.194a3.8,3.8,0,0,0-.457-2.111,1.544,1.544,0,0,0-1.362-.666,1.675,1.675,0,0,0-1.67,1v3.764a1.7,1.7,0,0,0,1.688,1A1.569,1.569,0,0,0,11.61-3.089,6.294,6.294,0,0,0,11.795-4.861Zm9.448-2.267a6.9,6.9,0,0,0-.914-.07,1.86,1.86,0,0,0-1.89.976V0H15.9V-9.51h2.4l.07,1.134a2.354,2.354,0,0,1,2.118-1.31,2.662,2.662,0,0,1,.791.114Zm5.432,7.3a4.668,4.668,0,0,1-3.406-1.283,4.561,4.561,0,0,1-1.314-3.419v-.246a5.745,5.745,0,0,1,.554-2.562,4.064,4.064,0,0,1,1.569-1.74,4.4,4.4,0,0,1,2.316-.611,3.947,3.947,0,0,1,3.072,1.23,5,5,0,0,1,1.121,3.489v1.037H24.53a2.36,2.36,0,0,0,.743,1.494,2.245,2.245,0,0,0,1.569.563,2.742,2.742,0,0,0,2.294-1.063l1.248,1.4A3.813,3.813,0,0,1,28.837-.277,5.075,5.075,0,0,1,26.675.176Zm-.29-7.813a1.587,1.587,0,0,0-1.226.512,2.651,2.651,0,0,0-.6,1.466H28.09v-.2a1.891,1.891,0,0,0-.457-1.311A1.638,1.638,0,0,0,26.385-7.638Z" transform="translate(282 1664)" fill="#fff"/>
    <g id="Trazado_102828" data-name="Trazado 102828" transform="translate(210 1689)" fill="none">
      <path d="M0,0H143V50H0Z" stroke="none"/>
      <path d="M 1 1 L 1 49 L 142 49 L 142 1 L 1 1 M 0 0 L 143 0 L 143 50 L 0 50 L 0 0 Z" stroke="none" fill="#039be5"/>
    </g>
    <path id="Trazado_102830" data-name="Trazado 102830" d="M-20.641-5.458a7.436,7.436,0,0,1-.976,4.245A3.47,3.47,0,0,1-24.667.176,3.5,3.5,0,0,1-27.7-1.182a7.058,7.058,0,0,1-1.02-4.056V-7.409a7.271,7.271,0,0,1,.976-4.192,3.5,3.5,0,0,1,3.059-1.371,3.528,3.528,0,0,1,3.041,1.323,7.017,7.017,0,0,1,1,4.083Zm-1.626-2.224a5.958,5.958,0,0,0-.58-3.01,2,2,0,0,0-1.837-.945,1.97,1.97,0,0,0-1.819.94A5.817,5.817,0,0,0-27.092-7.8v2.6a6.053,6.053,0,0,0,.6,3.063,1.993,1.993,0,0,0,1.824.989,1.966,1.966,0,0,0,1.789-.932,5.834,5.834,0,0,0,.611-2.936ZM-15.2-6.038l2.109-3.472h1.9l-3.111,4.7L-11.1,0h-1.881l-2.2-3.56L-17.372,0h-1.89l3.208-4.808-3.111-4.7h1.881Zm7.928-1.151h1.222A2.685,2.685,0,0,0-4.241-7.8a2.026,2.026,0,0,0,.659-1.591,1.985,1.985,0,0,0-2.241-2.25,2.331,2.331,0,0,0-1.683.6,2.107,2.107,0,0,0-.628,1.6H-9.76a3.264,3.264,0,0,1,1.112-2.527,4.05,4.05,0,0,1,2.826-1.006,4,4,0,0,1,2.839.958A3.461,3.461,0,0,1-1.956-9.352,2.809,2.809,0,0,1-2.5-7.734,3.264,3.264,0,0,1-3.968-6.565a3.145,3.145,0,0,1,1.63,1.107,3.076,3.076,0,0,1,.576,1.89A3.491,3.491,0,0,1-2.887-.835,4.213,4.213,0,0,1-5.814.176,4.324,4.324,0,0,1-8.745-.8,3.236,3.236,0,0,1-9.875-3.375H-8.24a2.092,2.092,0,0,0,.659,1.617,2.507,2.507,0,0,0,1.767.606,2.46,2.46,0,0,0,1.8-.615,2.371,2.371,0,0,0,.624-1.767,2.151,2.151,0,0,0-.686-1.714,2.987,2.987,0,0,0-1.978-.615H-7.273ZM7.334-4.3H9.11v1.327H7.334V0H5.7V-2.971H-.127v-.958L5.6-12.8H7.334Zm-5.616,0H5.7v-6.275l-.193.352Zm9.606-2.118.65-6.381h6.557v1.5H13.355L12.968-7.8A4.13,4.13,0,0,1,15.1-8.358,3.531,3.531,0,0,1,17.881-7.2,4.53,4.53,0,0,1,18.91-4.078,4.372,4.372,0,0,1,17.842-.962,3.892,3.892,0,0,1,14.858.176a4.045,4.045,0,0,1-2.769-.94,3.754,3.754,0,0,1-1.222-2.6h1.538a2.582,2.582,0,0,0,.782,1.657,2.432,2.432,0,0,0,1.67.558,2.194,2.194,0,0,0,1.78-.773,3.233,3.233,0,0,0,.646-2.136,2.968,2.968,0,0,0-.7-2.061A2.377,2.377,0,0,0,14.726-6.9a2.681,2.681,0,0,0-1.67.466l-.431.352Zm15.741-6.39v1.38h-.3A4.281,4.281,0,0,0,23.744-10.3a4.681,4.681,0,0,0-1.3,3.067,3.471,3.471,0,0,1,2.76-1.16A3.319,3.319,0,0,1,27.87-7.216a4.543,4.543,0,0,1,1,3.041,4.528,4.528,0,0,1-1.077,3.164A3.707,3.707,0,0,1,24.9.176a3.653,3.653,0,0,1-2.979-1.411,5.591,5.591,0,0,1-1.143-3.634v-.624a8.424,8.424,0,0,1,1.507-5.4,5.536,5.536,0,0,1,4.487-1.912ZM24.93-7.04a2.594,2.594,0,0,0-1.538.5,2.61,2.61,0,0,0-.976,1.257v.6a4.2,4.2,0,0,0,.712,2.549,2.133,2.133,0,0,0,1.775.967,2.067,2.067,0,0,0,1.727-.809A3.355,3.355,0,0,0,27.259-4.1a3.356,3.356,0,0,0-.637-2.131A2.042,2.042,0,0,0,24.93-7.04Z" transform="translate(282 1767)" fill="#21214b"/>
    <g id="Trazado_102834" data-name="Trazado 102834" transform="translate(367 1633)" fill="none">
      <path d="M0,0H143V50H0Z" stroke="none"/>
      <path d="M 1 1 L 1 49 L 142 49 L 142 1 L 1 1 M 0 0 L 143 0 L 143 50 L 0 50 L 0 0 Z" stroke="none" fill="#ffa726"/>
    </g>
    <g id="Trazado_102835" data-name="Trazado 102835" transform="translate(367 1689)" fill="none">
      <path d="M0,0H143V50H0Z" stroke="none"/>
      <path d="M 1 1 L 1 49 L 142 49 L 142 1 L 1 1 M 0 0 L 143 0 L 143 50 L 0 50 L 0 0 Z" stroke="none" fill="#ffa726"/>
    </g>
    <path id="Trazado_102838" data-name="Trazado 102838" d="M-23-5.458a7.436,7.436,0,0,1-.976,4.245A3.47,3.47,0,0,1-27.022.176a3.5,3.5,0,0,1-3.032-1.358,7.058,7.058,0,0,1-1.02-4.056V-7.409A7.271,7.271,0,0,1-30.1-11.6a3.5,3.5,0,0,1,3.059-1.371A3.528,3.528,0,0,1-24-11.65a7.017,7.017,0,0,1,1,4.083Zm-1.626-2.224a5.958,5.958,0,0,0-.58-3.01,2,2,0,0,0-1.837-.945,1.97,1.97,0,0,0-1.819.94A5.817,5.817,0,0,0-29.448-7.8v2.6a6.053,6.053,0,0,0,.6,3.063,1.993,1.993,0,0,0,1.824.989,1.966,1.966,0,0,0,1.789-.932,5.834,5.834,0,0,0,.611-2.936Zm7.066,1.644,2.109-3.472h1.9l-3.111,4.7L-13.452,0h-1.881l-2.2-3.56L-19.727,0h-1.89l3.208-4.808-3.111-4.7h1.881ZM-7.4-7.893l3.067-4.9h1.986L-6.385-6.451-2.246,0h-2L-7.4-4.992-10.56,0h-2l4.148-6.451L-12.458-12.8h1.978Zm11.285,0,3.067-4.9H8.943L4.9-6.451,9.04,0h-2L3.889-4.992.725,0h-2L2.878-6.451-1.173-12.8H.8Zm11.285,0,3.067-4.9h1.986L16.185-6.451,20.325,0h-2L15.174-4.992,12.01,0h-2l4.148-6.451L10.112-12.8h1.978Zm11.285,0,3.067-4.9h1.986L27.47-6.451,31.61,0h-2L26.459-4.992,23.3,0h-2l4.148-6.451L21.4-12.8h1.978Z" transform="translate(439 1767)" fill="#21214b"/>
    <path id="Trazado_102842" data-name="Trazado 102842" d="M0,0H213V50H0Z" transform="translate(526 1633)" fill="#039be5"/>
    <path id="Trazado_102847" data-name="Trazado 102847" d="M-85.838-9.51l.079,1.1a3.32,3.32,0,0,1,2.733-1.274,2.759,2.759,0,0,1,2.25.888,4.142,4.142,0,0,1,.756,2.654V0h-2.54V-6.1a1.654,1.654,0,0,0-.352-1.176,1.572,1.572,0,0,0-1.169-.366,1.747,1.747,0,0,0-1.608.916V0h-2.54V-9.51ZM-72.4-.967A3.185,3.185,0,0,1-75,.176,3,3,0,0,1-77.335-.7a3.752,3.752,0,0,1-.822-2.575V-9.51h2.54v6.151q0,1.487,1.354,1.487a1.834,1.834,0,0,0,1.775-.9V-9.51h2.549V0H-72.33Zm6.759-8.543.079,1.063a3.342,3.342,0,0,1,2.733-1.239,2.536,2.536,0,0,1,2.522,1.45,3.265,3.265,0,0,1,2.856-1.45,2.836,2.836,0,0,1,2.3.9,4.141,4.141,0,0,1,.756,2.711V0H-56.94V-6.078a1.818,1.818,0,0,0-.316-1.185,1.4,1.4,0,0,0-1.116-.374,1.585,1.585,0,0,0-1.582,1.092L-59.946,0h-2.54V-6.07a1.8,1.8,0,0,0-.325-1.2,1.414,1.414,0,0,0-1.107-.37,1.645,1.645,0,0,0-1.564.9V0h-2.54V-9.51ZM-48.063.176a4.668,4.668,0,0,1-3.406-1.283,4.561,4.561,0,0,1-1.314-3.419v-.246a5.745,5.745,0,0,1,.554-2.562,4.064,4.064,0,0,1,1.569-1.74,4.4,4.4,0,0,1,2.316-.611,3.947,3.947,0,0,1,3.072,1.23,5,5,0,0,1,1.121,3.489v1.037h-6.056a2.36,2.36,0,0,0,.743,1.494,2.245,2.245,0,0,0,1.569.563A2.742,2.742,0,0,0-45.6-2.936l1.248,1.4A3.813,3.813,0,0,1-45.9-.277,5.075,5.075,0,0,1-48.063.176Zm-.29-7.813a1.587,1.587,0,0,0-1.226.512,2.651,2.651,0,0,0-.6,1.466h3.533v-.2A1.891,1.891,0,0,0-47.1-7.174,1.638,1.638,0,0,0-48.353-7.638Zm10.986.51a6.9,6.9,0,0,0-.914-.07,1.86,1.86,0,0,0-1.89.976V0h-2.54V-9.51h2.4l.07,1.134a2.354,2.354,0,0,1,2.118-1.31,2.662,2.662,0,0,1,.791.114Zm.51,2.285a5.64,5.64,0,0,1,.545-2.522,3.989,3.989,0,0,1,1.569-1.714,4.577,4.577,0,0,1,2.377-.606,4.33,4.33,0,0,1,3.142,1.178,4.727,4.727,0,0,1,1.358,3.2l.018.65A4.97,4.97,0,0,1-29.07-1.147,4.247,4.247,0,0,1-32.348.176a4.268,4.268,0,0,1-3.283-1.318,5.058,5.058,0,0,1-1.226-3.586Zm2.54.18a3.555,3.555,0,0,0,.51,2.073,1.682,1.682,0,0,0,1.459.717,1.686,1.686,0,0,0,1.441-.709,3.89,3.89,0,0,0,.519-2.267,3.519,3.519,0,0,0-.519-2.06,1.686,1.686,0,0,0-1.459-.731,1.658,1.658,0,0,0-1.441.726A3.955,3.955,0,0,0-34.317-4.662Zm15.425,2.026h-4.623L-24.394,0h-2.8l4.764-12.8h2.443L-15.2,0H-18ZM-22.8-4.772h3.2l-1.608-4.79Zm12.586,2.9a1.666,1.666,0,0,0,1.143-.387,1.355,1.355,0,0,0,.457-1.028h2.382a3.258,3.258,0,0,1-.527,1.771A3.48,3.48,0,0,1-8.183-.268a4.442,4.442,0,0,1-1.991.444,4.129,4.129,0,0,1-3.217-1.3A5.13,5.13,0,0,1-14.568-4.7v-.167A5.071,5.071,0,0,1-13.4-8.376a4.08,4.08,0,0,1,3.208-1.31A4,4,0,0,1-7.33-8.67a3.594,3.594,0,0,1,1.094,2.7H-8.618a1.745,1.745,0,0,0-.457-1.206,1.524,1.524,0,0,0-1.16-.464,1.53,1.53,0,0,0-1.34.647,3.749,3.749,0,0,0-.453,2.1v.264a3.8,3.8,0,0,0,.448,2.113A1.549,1.549,0,0,0-10.217-1.872Zm9.387,0A1.666,1.666,0,0,0,.312-2.259,1.355,1.355,0,0,0,.769-3.287H3.151a3.258,3.258,0,0,1-.527,1.771A3.48,3.48,0,0,1,1.2-.268,4.442,4.442,0,0,1-.787.176,4.129,4.129,0,0,1-4-1.121,5.13,5.13,0,0,1-5.181-4.7v-.167A5.071,5.071,0,0,1-4.012-8.376,4.08,4.08,0,0,1-.8-9.686,4,4,0,0,1,2.057-8.67a3.594,3.594,0,0,1,1.094,2.7H.769A1.745,1.745,0,0,0,.312-7.174a1.524,1.524,0,0,0-1.16-.464,1.53,1.53,0,0,0-1.34.647,3.749,3.749,0,0,0-.453,2.1v.264a3.8,3.8,0,0,0,.448,2.113A1.549,1.549,0,0,0-.831-1.872ZM8.978.176A4.668,4.668,0,0,1,5.572-1.107,4.561,4.561,0,0,1,4.258-4.526v-.246a5.745,5.745,0,0,1,.554-2.562,4.064,4.064,0,0,1,1.569-1.74A4.4,4.4,0,0,1,8.7-9.686a3.947,3.947,0,0,1,3.072,1.23,5,5,0,0,1,1.121,3.489v1.037H6.833a2.36,2.36,0,0,0,.743,1.494,2.245,2.245,0,0,0,1.569.563,2.742,2.742,0,0,0,2.294-1.063l1.248,1.4A3.813,3.813,0,0,1,11.14-.277,5.075,5.075,0,0,1,8.978.176Zm-.29-7.813a1.587,1.587,0,0,0-1.226.512,2.651,2.651,0,0,0-.6,1.466h3.533v-.2a1.891,1.891,0,0,0-.457-1.311A1.638,1.638,0,0,0,8.688-7.638Zm10.793,5.01a.818.818,0,0,0-.461-.734,5.241,5.241,0,0,0-1.481-.479q-3.393-.712-3.393-2.883A2.613,2.613,0,0,1,15.2-8.837a4.237,4.237,0,0,1,2.747-.848,4.56,4.56,0,0,1,2.9.853,2.687,2.687,0,0,1,1.085,2.215h-2.54a1.229,1.229,0,0,0-.352-.9,1.488,1.488,0,0,0-1.1-.356,1.52,1.52,0,0,0-.993.29.916.916,0,0,0-.352.738.783.783,0,0,0,.4.681,4.114,4.114,0,0,0,1.349.448,11.019,11.019,0,0,1,1.6.426,2.628,2.628,0,0,1,2.013,2.558,2.481,2.481,0,0,1-1.116,2.1,4.815,4.815,0,0,1-2.883.8A5.029,5.029,0,0,1,15.829-.25a3.561,3.561,0,0,1-1.455-1.169,2.716,2.716,0,0,1-.527-1.6h2.408a1.326,1.326,0,0,0,.5,1.037A1.987,1.987,0,0,0,18-1.626a1.839,1.839,0,0,0,1.1-.277A.861.861,0,0,0,19.481-2.628ZM23.19-4.843a5.64,5.64,0,0,1,.545-2.522A3.989,3.989,0,0,1,25.3-9.079a4.577,4.577,0,0,1,2.377-.606,4.33,4.33,0,0,1,3.142,1.178,4.727,4.727,0,0,1,1.358,3.2l.018.65a4.97,4.97,0,0,1-1.222,3.511A4.247,4.247,0,0,1,27.7.176a4.268,4.268,0,0,1-3.283-1.318A5.058,5.058,0,0,1,23.19-4.729Zm2.54.18a3.555,3.555,0,0,0,.51,2.073,1.682,1.682,0,0,0,1.459.717,1.686,1.686,0,0,0,1.441-.709,3.89,3.89,0,0,0,.519-2.267,3.519,3.519,0,0,0-.519-2.06,1.686,1.686,0,0,0-1.459-.731,1.658,1.658,0,0,0-1.441.726A3.955,3.955,0,0,0,25.73-4.662Zm12.938-.022h-2.1V0H33.93V-12.8h4.755a5.375,5.375,0,0,1,3.5,1.011,3.488,3.488,0,0,1,1.23,2.856,3.937,3.937,0,0,1-.567,2.184,3.866,3.866,0,0,1-1.718,1.393L43.9-.123V0h-2.83Zm-2.1-2.136h2.127a2.178,2.178,0,0,0,1.538-.505,1.806,1.806,0,0,0,.545-1.393,1.933,1.933,0,0,0-.514-1.424,2.137,2.137,0,0,0-1.578-.519H36.567ZM50.761,0a2.821,2.821,0,0,1-.255-.853,3.073,3.073,0,0,1-2.4,1.028,3.376,3.376,0,0,1-2.316-.809,2.6,2.6,0,0,1-.918-2.039,2.687,2.687,0,0,1,1.121-2.32,5.529,5.529,0,0,1,3.239-.817H50.4v-.545a1.567,1.567,0,0,0-.338-1.055,1.331,1.331,0,0,0-1.068-.4,1.513,1.513,0,0,0-1.006.308,1.045,1.045,0,0,0-.365.844h-2.54a2.551,2.551,0,0,1,.51-1.529,3.37,3.37,0,0,1,1.441-1.1,5.253,5.253,0,0,1,2.092-.4,4.15,4.15,0,0,1,2.791.883A3.09,3.09,0,0,1,52.95-6.319V-2.2a4.546,4.546,0,0,0,.378,2.048V0Zm-2.1-1.767a2.188,2.188,0,0,0,1.037-.25,1.645,1.645,0,0,0,.7-.672V-4.324h-.949q-1.907,0-2.03,1.318l-.009.149a1.017,1.017,0,0,0,.334.782A1.3,1.3,0,0,0,48.661-1.767Zm14.8-2.9a5.7,5.7,0,0,1-1,3.52A3.2,3.2,0,0,1,59.77.176a2.963,2.963,0,0,1-2.329-1V3.656H54.9V-9.51h2.355l.088.932a2.985,2.985,0,0,1,2.408-1.107,3.22,3.22,0,0,1,2.733,1.3A5.858,5.858,0,0,1,63.461-4.8Zm-2.54-.194a3.763,3.763,0,0,0-.47-2.054,1.53,1.53,0,0,0-1.367-.723,1.662,1.662,0,0,0-1.644.917v3.906a1.691,1.691,0,0,0,1.661.943Q60.921-1.872,60.921-4.861ZM67.715,0H65.167V-9.51h2.549Zm-2.7-11.971a1.251,1.251,0,0,1,.382-.94,1.436,1.436,0,0,1,1.042-.369,1.44,1.44,0,0,1,1.037.369,1.244,1.244,0,0,1,.387.94,1.247,1.247,0,0,1-.391.949,1.443,1.443,0,0,1-1.033.369,1.443,1.443,0,0,1-1.033-.369A1.247,1.247,0,0,1,65.017-11.971Zm4.395,7.146a5.731,5.731,0,0,1,1-3.542,3.237,3.237,0,0,1,2.729-1.318,2.913,2.913,0,0,1,2.294,1.037V-13.5h2.549V0H75.687l-.123-1.011A2.989,2.989,0,0,1,73.121.176a3.228,3.228,0,0,1-2.694-1.323A5.916,5.916,0,0,1,69.412-4.825Zm2.54.181a3.775,3.775,0,0,0,.466,2.057,1.516,1.516,0,0,0,1.354.715,1.7,1.7,0,0,0,1.661-1V-6.64a1.675,1.675,0,0,0-1.644-1Q71.952-7.638,71.952-4.644Zm7.6-.2A5.64,5.64,0,0,1,80.1-7.365a3.989,3.989,0,0,1,1.569-1.714,4.577,4.577,0,0,1,2.377-.606,4.33,4.33,0,0,1,3.142,1.178,4.727,4.727,0,0,1,1.358,3.2l.018.65a4.97,4.97,0,0,1-1.222,3.511A4.247,4.247,0,0,1,84.063.176,4.268,4.268,0,0,1,80.78-1.143a5.058,5.058,0,0,1-1.226-3.586Zm2.54.18a3.555,3.555,0,0,0,.51,2.073,1.682,1.682,0,0,0,1.459.717A1.686,1.686,0,0,0,85.5-2.581a3.89,3.89,0,0,0,.519-2.267,3.519,3.519,0,0,0-.519-2.06,1.686,1.686,0,0,0-1.459-.731,1.658,1.658,0,0,0-1.441.726A3.955,3.955,0,0,0,82.094-4.662Z" transform="translate(633 1664)" fill="#fff"/>
    <g id="Trazado_102843" data-name="Trazado 102843" transform="translate(526 1689)" fill="none">
      <path d="M0,0H213V50H0Z" stroke="none"/>
      <path d="M 1 1 L 1 49 L 212 49 L 212 1 L 1 1 M 0 0 L 213 0 L 213 50 L 0 50 L 0 0 Z" stroke="none" fill="#039be5"/>
    </g>
    <path id="Trazado_102850" data-name="Trazado 102850" d="M-20.641-5.458a7.436,7.436,0,0,1-.976,4.245A3.47,3.47,0,0,1-24.667.176,3.5,3.5,0,0,1-27.7-1.182a7.058,7.058,0,0,1-1.02-4.056V-7.409a7.271,7.271,0,0,1,.976-4.192,3.5,3.5,0,0,1,3.059-1.371,3.528,3.528,0,0,1,3.041,1.323,7.017,7.017,0,0,1,1,4.083Zm-1.626-2.224a5.958,5.958,0,0,0-.58-3.01,2,2,0,0,0-1.837-.945,1.97,1.97,0,0,0-1.819.94A5.817,5.817,0,0,0-27.092-7.8v2.6a6.053,6.053,0,0,0,.6,3.063,1.993,1.993,0,0,0,1.824.989,1.966,1.966,0,0,0,1.789-.932,5.834,5.834,0,0,0,.611-2.936ZM-15.2-6.038l2.109-3.472h1.9l-3.111,4.7L-11.1,0h-1.881l-2.2-3.56L-17.372,0h-1.89l3.208-4.808-3.111-4.7h1.881Zm11.795.413a3.978,3.978,0,0,1-1.217.976,3.3,3.3,0,0,1-1.551.369A3.41,3.41,0,0,1-8.1-4.825a3.543,3.543,0,0,1-1.27-1.534,5.229,5.229,0,0,1-.448-2.184,5.327,5.327,0,0,1,.488-2.312A3.583,3.583,0,0,1-7.95-12.428a3.947,3.947,0,0,1,2.092-.545,3.574,3.574,0,0,1,2.993,1.419A6.191,6.191,0,0,1-1.771-7.682v.475q0,3.735-1.477,5.454A5.673,5.673,0,0,1-7.7.009H-8.02v-1.38h.343A4.476,4.476,0,0,0-4.583-2.419,4.5,4.5,0,0,0-3.406-5.625Zm-2.5,0a2.511,2.511,0,0,0,1.507-.5A2.953,2.953,0,0,0-3.4-7.365v-.65a4.474,4.474,0,0,0-.694-2.6,2.072,2.072,0,0,0-1.758-1,2.088,2.088,0,0,0-1.723.822,3.39,3.39,0,0,0-.65,2.167,3.528,3.528,0,0,0,.628,2.158A1.99,1.99,0,0,0-5.911-5.625ZM7.334-4.3H9.11v1.327H7.334V0H5.7V-2.971H-.127v-.958L5.6-12.8H7.334Zm-5.616,0H5.7v-6.275l-.193.352Zm9.606-2.118.65-6.381h6.557v1.5H13.355L12.968-7.8A4.13,4.13,0,0,1,15.1-8.358,3.531,3.531,0,0,1,17.881-7.2,4.53,4.53,0,0,1,18.91-4.078,4.372,4.372,0,0,1,17.842-.962,3.892,3.892,0,0,1,14.858.176a4.045,4.045,0,0,1-2.769-.94,3.754,3.754,0,0,1-1.222-2.6h1.538a2.582,2.582,0,0,0,.782,1.657,2.432,2.432,0,0,0,1.67.558,2.194,2.194,0,0,0,1.78-.773,3.233,3.233,0,0,0,.646-2.136,2.968,2.968,0,0,0-.7-2.061A2.377,2.377,0,0,0,14.726-6.9a2.681,2.681,0,0,0-1.67.466l-.431.352ZM29.07,0H20.685V-1.169l4.43-4.922a10.524,10.524,0,0,0,1.358-1.815,3.029,3.029,0,0,0,.374-1.446A2.3,2.3,0,0,0,26.24-11a2.12,2.12,0,0,0-1.617-.642,2.511,2.511,0,0,0-1.885.69,2.635,2.635,0,0,0-.672,1.92H20.439a3.774,3.774,0,0,1,1.138-2.856,4.219,4.219,0,0,1,3.045-1.09,4.054,4.054,0,0,1,2.821.936,3.193,3.193,0,0,1,1.037,2.492q0,1.89-2.408,4.5L22.645-1.327H29.07Z" transform="translate(635 1767)" fill="#21214b"/>
    <g id="Trazado_102860" data-name="Trazado 102860" transform="translate(753 1633)" fill="none">
      <path d="M0,0H143V50H0Z" stroke="none"/>
      <path d="M 1 1 L 1 49 L 142 49 L 142 1 L 1 1 M 0 0 L 143 0 L 143 50 L 0 50 L 0 0 Z" stroke="none" fill="#ffa726"/>
    </g>
    <g id="Trazado_102861" data-name="Trazado 102861" transform="translate(753 1689)" fill="none">
      <path d="M0,0H143V50H0Z" stroke="none"/>
      <path d="M 1 1 L 1 49 L 142 49 L 142 1 L 1 1 M 0 0 L 143 0 L 143 50 L 0 50 L 0 0 Z" stroke="none" fill="#ffa726"/>
    </g>
    <path id="Trazado_102862" data-name="Trazado 102862" d="M-23-5.458a7.436,7.436,0,0,1-.976,4.245A3.47,3.47,0,0,1-27.022.176a3.5,3.5,0,0,1-3.032-1.358,7.058,7.058,0,0,1-1.02-4.056V-7.409A7.271,7.271,0,0,1-30.1-11.6a3.5,3.5,0,0,1,3.059-1.371A3.528,3.528,0,0,1-24-11.65a7.017,7.017,0,0,1,1,4.083Zm-1.626-2.224a5.958,5.958,0,0,0-.58-3.01,2,2,0,0,0-1.837-.945,1.97,1.97,0,0,0-1.819.94A5.817,5.817,0,0,0-29.448-7.8v2.6a6.053,6.053,0,0,0,.6,3.063,1.993,1.993,0,0,0,1.824.989,1.966,1.966,0,0,0,1.789-.932,5.834,5.834,0,0,0,.611-2.936Zm7.066,1.644,2.109-3.472h1.9l-3.111,4.7L-13.452,0h-1.881l-2.2-3.56L-19.727,0h-1.89l3.208-4.808-3.111-4.7h1.881ZM-7.4-7.893l3.067-4.9h1.986L-6.385-6.451-2.246,0h-2L-7.4-4.992-10.56,0h-2l4.148-6.451L-12.458-12.8h1.978Zm11.285,0,3.067-4.9H8.943L4.9-6.451,9.04,0h-2L3.889-4.992.725,0h-2L2.878-6.451-1.173-12.8H.8Zm11.285,0,3.067-4.9h1.986L16.185-6.451,20.325,0h-2L15.174-4.992,12.01,0h-2l4.148-6.451L10.112-12.8h1.978Zm11.285,0,3.067-4.9h1.986L27.47-6.451,31.61,0h-2L26.459-4.992,23.3,0h-2l4.148-6.451L21.4-12.8h1.978Z" transform="translate(825 1767)" fill="#21214b"/>
    <g id="Trazado_102870" data-name="Trazado 102870" transform="translate(912 1633)" fill="none">
      <path d="M0,0H143V50H0Z" stroke="none"/>
      <path d="M 1 1 L 1 49 L 142 49 L 142 1 L 1 1 M 0 0 L 143 0 L 143 50 L 0 50 L 0 0 Z" stroke="none" fill="#ffa726"/>
    </g>
    <g id="Trazado_102871" data-name="Trazado 102871" transform="translate(912 1689)" fill="none">
      <path d="M0,0H143V50H0Z" stroke="none"/>
      <path d="M 1 1 L 1 49 L 142 49 L 142 1 L 1 1 M 0 0 L 143 0 L 143 50 L 0 50 L 0 0 Z" stroke="none" fill="#ffa726"/>
    </g>
    <path id="Trazado_102872" data-name="Trazado 102872" d="M-21.458-5.458a7.436,7.436,0,0,1-.976,4.245A3.47,3.47,0,0,1-25.484.176a3.5,3.5,0,0,1-3.032-1.358,7.058,7.058,0,0,1-1.02-4.056V-7.409A7.271,7.271,0,0,1-28.56-11.6,3.5,3.5,0,0,1-25.5-12.973,3.528,3.528,0,0,1-22.46-11.65a7.017,7.017,0,0,1,1,4.083Zm-1.626-2.224a5.958,5.958,0,0,0-.58-3.01,2,2,0,0,0-1.837-.945,1.97,1.97,0,0,0-1.819.94A5.817,5.817,0,0,0-27.91-7.8v2.6a6.053,6.053,0,0,0,.6,3.063,1.993,1.993,0,0,0,1.824.989A1.966,1.966,0,0,0-23.7-2.083a5.834,5.834,0,0,0,.611-2.936Zm7.066,1.644,2.109-3.472h1.9l-3.111,4.7L-11.914,0h-1.881l-2.2-3.56L-18.189,0h-1.89l3.208-4.808-3.111-4.7H-18.1ZM-2.966-3.349H-8.328L-9.532,0h-1.74l4.887-12.8h1.477L-.013,0H-1.745Zm-4.852-1.38h4.351l-2.18-5.985ZM8.152-4.3H9.927v1.327H8.152V0H6.517V-2.971H.69v-.958L6.42-12.8H8.152Zm-5.616,0H6.517v-6.275l-.193.352ZM19.78,0H11.4V-1.169l4.43-4.922a10.524,10.524,0,0,0,1.358-1.815,3.029,3.029,0,0,0,.374-1.446A2.3,2.3,0,0,0,16.95-11a2.12,2.12,0,0,0-1.617-.642,2.511,2.511,0,0,0-1.885.69,2.635,2.635,0,0,0-.672,1.92H11.149a3.774,3.774,0,0,1,1.138-2.856,4.219,4.219,0,0,1,3.045-1.09,4.054,4.054,0,0,1,2.821.936,3.193,3.193,0,0,1,1.037,2.492q0,1.89-2.408,4.5L13.355-1.327H19.78Zm7.066,0H25.211V-10.837l-3.278,1.2v-1.477l4.658-1.749h.255Z" transform="translate(985 1767)" fill="#21214b"/>
    <g id="Trazado_102884" data-name="Trazado 102884" transform="translate(1071 1633)" fill="none">
      <path d="M0,0H143V50H0Z" stroke="none"/>
      <path d="M 1 1 L 1 49 L 142 49 L 142 1 L 1 1 M 0 0 L 143 0 L 143 50 L 0 50 L 0 0 Z" stroke="none" fill="#ffa726"/>
    </g>
    <g id="Trazado_102885" data-name="Trazado 102885" transform="translate(1071 1689)" fill="none">
      <path d="M0,0H143V50H0Z" stroke="none"/>
      <path d="M 1 1 L 1 49 L 142 49 L 142 1 L 1 1 M 0 0 L 143 0 L 143 50 L 0 50 L 0 0 Z" stroke="none" fill="#ffa726"/>
    </g>
    <path id="Trazado_102886" data-name="Trazado 102886" d="M-23-5.458a7.436,7.436,0,0,1-.976,4.245A3.47,3.47,0,0,1-27.022.176a3.5,3.5,0,0,1-3.032-1.358,7.058,7.058,0,0,1-1.02-4.056V-7.409A7.271,7.271,0,0,1-30.1-11.6a3.5,3.5,0,0,1,3.059-1.371A3.528,3.528,0,0,1-24-11.65a7.017,7.017,0,0,1,1,4.083Zm-1.626-2.224a5.958,5.958,0,0,0-.58-3.01,2,2,0,0,0-1.837-.945,1.97,1.97,0,0,0-1.819.94A5.817,5.817,0,0,0-29.448-7.8v2.6a6.053,6.053,0,0,0,.6,3.063,1.993,1.993,0,0,0,1.824.989,1.966,1.966,0,0,0,1.789-.932,5.834,5.834,0,0,0,.611-2.936Zm7.066,1.644,2.109-3.472h1.9l-3.111,4.7L-13.452,0h-1.881l-2.2-3.56L-19.727,0h-1.89l3.208-4.808-3.111-4.7h1.881ZM-7.4-7.893l3.067-4.9h1.986L-6.385-6.451-2.246,0h-2L-7.4-4.992-10.56,0h-2l4.148-6.451L-12.458-12.8h1.978Zm11.285,0,3.067-4.9H8.943L4.9-6.451,9.04,0h-2L3.889-4.992.725,0h-2L2.878-6.451-1.173-12.8H.8Zm11.285,0,3.067-4.9h1.986L16.185-6.451,20.325,0h-2L15.174-4.992,12.01,0h-2l4.148-6.451L10.112-12.8h1.978Zm11.285,0,3.067-4.9h1.986L27.47-6.451,31.61,0h-2L26.459-4.992,23.3,0h-2l4.148-6.451L21.4-12.8h1.978Z" transform="translate(1143 1767)" fill="#21214b"/>
    <path id="Trazado_102894" data-name="Trazado 102894" d="M0,0H143V50H0Z" transform="translate(1230 1633)" fill="#039be5"/>
    <path id="Trazado_102896" data-name="Trazado 102896" d="M-25.589,0a2.821,2.821,0,0,1-.255-.853,3.073,3.073,0,0,1-2.4,1.028A3.376,3.376,0,0,1-30.56-.633a2.6,2.6,0,0,1-.918-2.039,2.687,2.687,0,0,1,1.121-2.32,5.529,5.529,0,0,1,3.239-.817h1.169v-.545a1.567,1.567,0,0,0-.338-1.055,1.331,1.331,0,0,0-1.068-.4,1.513,1.513,0,0,0-1.006.308,1.045,1.045,0,0,0-.365.844h-2.54a2.551,2.551,0,0,1,.51-1.529,3.37,3.37,0,0,1,1.441-1.1,5.253,5.253,0,0,1,2.092-.4,4.15,4.15,0,0,1,2.791.883A3.09,3.09,0,0,1-23.4-6.319V-2.2a4.546,4.546,0,0,0,.378,2.048V0Zm-2.1-1.767a2.188,2.188,0,0,0,1.037-.25,1.645,1.645,0,0,0,.7-.672V-4.324H-26.9q-1.907,0-2.03,1.318l-.009.149a1.017,1.017,0,0,0,.334.782A1.3,1.3,0,0,0-27.69-1.767Zm14.8-2.9a5.7,5.7,0,0,1-1,3.52A3.2,3.2,0,0,1-16.581.176a2.963,2.963,0,0,1-2.329-1V3.656h-2.54V-9.51h2.355l.088.932A2.985,2.985,0,0,1-16.6-9.686a3.22,3.22,0,0,1,2.733,1.3A5.858,5.858,0,0,1-12.889-4.8Zm-2.54-.194a3.763,3.763,0,0,0-.47-2.054,1.53,1.53,0,0,0-1.367-.723,1.662,1.662,0,0,0-1.644.917v3.906a1.691,1.691,0,0,0,1.661.943Q-15.429-1.872-15.429-4.861ZM-6.939.176a4.668,4.668,0,0,1-3.406-1.283,4.561,4.561,0,0,1-1.314-3.419v-.246A5.745,5.745,0,0,1-11.1-7.334a4.064,4.064,0,0,1,1.569-1.74A4.4,4.4,0,0,1-7.22-9.686a3.947,3.947,0,0,1,3.072,1.23A5,5,0,0,1-3.028-4.966v1.037H-9.083a2.36,2.36,0,0,0,.743,1.494,2.245,2.245,0,0,0,1.569.563A2.742,2.742,0,0,0-4.478-2.936l1.248,1.4A3.813,3.813,0,0,1-4.777-.277,5.075,5.075,0,0,1-6.939.176Zm-.29-7.813a1.587,1.587,0,0,0-1.226.512,2.651,2.651,0,0,0-.6,1.466h3.533v-.2a1.891,1.891,0,0,0-.457-1.311A1.638,1.638,0,0,0-7.229-7.638ZM1.094,0H-1.455V-13.5H1.094ZM5.867,0H3.318V-13.5H5.867Zm4.772,0H8.09V-9.51h2.549Zm-2.7-11.971a1.251,1.251,0,0,1,.382-.94,1.436,1.436,0,0,1,1.042-.369,1.44,1.44,0,0,1,1.037.369,1.244,1.244,0,0,1,.387.94,1.247,1.247,0,0,1-.391.949,1.443,1.443,0,0,1-1.033.369,1.443,1.443,0,0,1-1.033-.369A1.247,1.247,0,0,1,7.941-11.971Zm4.395,7.146a5.731,5.731,0,0,1,1-3.542,3.237,3.237,0,0,1,2.729-1.318,2.913,2.913,0,0,1,2.294,1.037V-13.5H20.9V0H18.611l-.123-1.011A2.989,2.989,0,0,1,16.044.176a3.228,3.228,0,0,1-2.694-1.323A5.916,5.916,0,0,1,12.335-4.825Zm2.54.181a3.775,3.775,0,0,0,.466,2.057,1.516,1.516,0,0,0,1.354.715,1.7,1.7,0,0,0,1.661-1V-6.64a1.675,1.675,0,0,0-1.644-1Q14.875-7.638,14.875-4.644Zm7.6-.2a5.64,5.64,0,0,1,.545-2.522,3.989,3.989,0,0,1,1.569-1.714,4.577,4.577,0,0,1,2.377-.606,4.33,4.33,0,0,1,3.142,1.178,4.727,4.727,0,0,1,1.358,3.2l.018.65a4.97,4.97,0,0,1-1.222,3.511A4.247,4.247,0,0,1,26.987.176,4.268,4.268,0,0,1,23.7-1.143a5.058,5.058,0,0,1-1.226-3.586Zm2.54.18a3.555,3.555,0,0,0,.51,2.073,1.682,1.682,0,0,0,1.459.717,1.686,1.686,0,0,0,1.441-.709,3.89,3.89,0,0,0,.519-2.267,3.519,3.519,0,0,0-.519-2.06,1.686,1.686,0,0,0-1.459-.731,1.658,1.658,0,0,0-1.441.726A3.955,3.955,0,0,0,25.018-4.662Z" transform="translate(1302 1664)" fill="#fff"/>
    <g id="Trazado_102895" data-name="Trazado 102895" transform="translate(1230 1689)" fill="none">
      <path d="M0,0H143V50H0Z" stroke="none"/>
      <path d="M 1 1 L 1 49 L 142 49 L 142 1 L 1 1 M 0 0 L 143 0 L 143 50 L 0 50 L 0 0 Z" stroke="none" fill="#039be5"/>
    </g>
    <path id="Trazado_102897" data-name="Trazado 102897" d="M-21.116-5.458a7.436,7.436,0,0,1-.976,4.245A3.47,3.47,0,0,1-25.141.176a3.5,3.5,0,0,1-3.032-1.358,7.058,7.058,0,0,1-1.02-4.056V-7.409a7.271,7.271,0,0,1,.976-4.192,3.5,3.5,0,0,1,3.059-1.371,3.528,3.528,0,0,1,3.041,1.323,7.017,7.017,0,0,1,1,4.083Zm-1.626-2.224a5.958,5.958,0,0,0-.58-3.01,2,2,0,0,0-1.837-.945,1.97,1.97,0,0,0-1.819.94A5.817,5.817,0,0,0-27.567-7.8v2.6a6.053,6.053,0,0,0,.6,3.063,1.993,1.993,0,0,0,1.824.989,1.966,1.966,0,0,0,1.789-.932,5.834,5.834,0,0,0,.611-2.936Zm7.066,1.644,2.109-3.472h1.9l-3.111,4.7L-11.571,0h-1.881l-2.2-3.56L-17.846,0h-1.89l3.208-4.808-3.111-4.7h1.881ZM-2.624-3.349H-7.985L-9.189,0h-1.74l4.887-12.8h1.477L.33,0H-1.4Zm-4.852-1.38h4.351L-5.3-10.714ZM5.612-1.151a2.342,2.342,0,0,0,1.521-.527A1.855,1.855,0,0,0,7.853-3H9.391a2.949,2.949,0,0,1-.562,1.556A3.7,3.7,0,0,1,7.444-.264,3.994,3.994,0,0,1,5.612.176a3.918,3.918,0,0,1-3.089-1.3A5.163,5.163,0,0,1,1.375-4.667v-.272a5.725,5.725,0,0,1,.51-2.47A3.883,3.883,0,0,1,3.349-9.088a4.157,4.157,0,0,1,2.254-.6,3.814,3.814,0,0,1,2.659.958A3.424,3.424,0,0,1,9.391-6.24H7.853a2.241,2.241,0,0,0-.7-1.516A2.174,2.174,0,0,0,5.6-8.35a2.276,2.276,0,0,0-1.92.892A4.19,4.19,0,0,0,3-4.878v.308a4.106,4.106,0,0,0,.677,2.531A2.287,2.287,0,0,0,5.612-1.151ZM19.077-5.458A7.436,7.436,0,0,1,18.1-1.213,3.47,3.47,0,0,1,15.051.176a3.5,3.5,0,0,1-3.032-1.358A7.058,7.058,0,0,1,11-5.238V-7.409a7.271,7.271,0,0,1,.976-4.192,3.5,3.5,0,0,1,3.059-1.371,3.528,3.528,0,0,1,3.041,1.323,7.017,7.017,0,0,1,1,4.083ZM17.451-7.682a5.958,5.958,0,0,0-.58-3.01,2,2,0,0,0-1.837-.945,1.97,1.97,0,0,0-1.819.94A5.817,5.817,0,0,0,12.625-7.8v2.6a6.053,6.053,0,0,0,.6,3.063,1.993,1.993,0,0,0,1.824.989,1.966,1.966,0,0,0,1.789-.932,5.834,5.834,0,0,0,.611-2.936ZM26.5,0H24.869V-10.837l-3.278,1.2v-1.477l4.658-1.749H26.5Z" transform="translate(1302 1767)" fill="#21214b"/>
    <g id="Trazado_102836" data-name="Trazado 102836" transform="translate(367 1816)" fill="none">
      <path d="M0,0H143V50H0Z" stroke="none"/>
      <path d="M 1 1 L 1 49 L 142 49 L 142 1 L 1 1 M 0 0 L 143 0 L 143 50 L 0 50 L 0 0 Z" stroke="none" fill="#ffa726"/>
    </g>
    <g id="Trazado_102837" data-name="Trazado 102837" transform="translate(367 1872)" fill="none">
      <path d="M0,0H143V50H0Z" stroke="none"/>
      <path d="M 1 1 L 1 49 L 142 49 L 142 1 L 1 1 M 0 0 L 143 0 L 143 50 L 0 50 L 0 0 Z" stroke="none" fill="#ffa726"/>
    </g>
    <path id="Trazado_102839" data-name="Trazado 102839" d="M-23-5.458a7.436,7.436,0,0,1-.976,4.245A3.47,3.47,0,0,1-27.022.176a3.5,3.5,0,0,1-3.032-1.358,7.058,7.058,0,0,1-1.02-4.056V-7.409A7.271,7.271,0,0,1-30.1-11.6a3.5,3.5,0,0,1,3.059-1.371A3.528,3.528,0,0,1-24-11.65a7.017,7.017,0,0,1,1,4.083Zm-1.626-2.224a5.958,5.958,0,0,0-.58-3.01,2,2,0,0,0-1.837-.945,1.97,1.97,0,0,0-1.819.94A5.817,5.817,0,0,0-29.448-7.8v2.6a6.053,6.053,0,0,0,.6,3.063,1.993,1.993,0,0,0,1.824.989,1.966,1.966,0,0,0,1.789-.932,5.834,5.834,0,0,0,.611-2.936Zm7.066,1.644,2.109-3.472h1.9l-3.111,4.7L-13.452,0h-1.881l-2.2-3.56L-19.727,0h-1.89l3.208-4.808-3.111-4.7h1.881ZM-7.4-7.893l3.067-4.9h1.986L-6.385-6.451-2.246,0h-2L-7.4-4.992-10.56,0h-2l4.148-6.451L-12.458-12.8h1.978Zm11.285,0,3.067-4.9H8.943L4.9-6.451,9.04,0h-2L3.889-4.992.725,0h-2L2.878-6.451-1.173-12.8H.8Zm11.285,0,3.067-4.9h1.986L16.185-6.451,20.325,0h-2L15.174-4.992,12.01,0h-2l4.148-6.451L10.112-12.8h1.978Zm11.285,0,3.067-4.9h1.986L27.47-6.451,31.61,0h-2L26.459-4.992,23.3,0h-2l4.148-6.451L21.4-12.8h1.978Z" transform="translate(439 1950)" fill="#21214b"/>
    <g id="Trazado_102831" data-name="Trazado 102831" transform="translate(210 1816)" fill="none">
      <path d="M0,0H143V50H0Z" stroke="none"/>
      <path d="M 1 1 L 1 49 L 142 49 L 142 1 L 1 1 M 0 0 L 143 0 L 143 50 L 0 50 L 0 0 Z" stroke="none" fill="#ffa726"/>
    </g>
    <g id="Trazado_102832" data-name="Trazado 102832" transform="translate(210 1872)" fill="none">
      <path d="M0,0H143V50H0Z" stroke="none"/>
      <path d="M 1 1 L 1 49 L 142 49 L 142 1 L 1 1 M 0 0 L 143 0 L 143 50 L 0 50 L 0 0 Z" stroke="none" fill="#ffa726"/>
    </g>
    <path id="Trazado_102833" data-name="Trazado 102833" d="M-23-5.458a7.436,7.436,0,0,1-.976,4.245A3.47,3.47,0,0,1-27.022.176a3.5,3.5,0,0,1-3.032-1.358,7.058,7.058,0,0,1-1.02-4.056V-7.409A7.271,7.271,0,0,1-30.1-11.6a3.5,3.5,0,0,1,3.059-1.371A3.528,3.528,0,0,1-24-11.65a7.017,7.017,0,0,1,1,4.083Zm-1.626-2.224a5.958,5.958,0,0,0-.58-3.01,2,2,0,0,0-1.837-.945,1.97,1.97,0,0,0-1.819.94A5.817,5.817,0,0,0-29.448-7.8v2.6a6.053,6.053,0,0,0,.6,3.063,1.993,1.993,0,0,0,1.824.989,1.966,1.966,0,0,0,1.789-.932,5.834,5.834,0,0,0,.611-2.936Zm7.066,1.644,2.109-3.472h1.9l-3.111,4.7L-13.452,0h-1.881l-2.2-3.56L-19.727,0h-1.89l3.208-4.808-3.111-4.7h1.881ZM-7.4-7.893l3.067-4.9h1.986L-6.385-6.451-2.246,0h-2L-7.4-4.992-10.56,0h-2l4.148-6.451L-12.458-12.8h1.978Zm11.285,0,3.067-4.9H8.943L4.9-6.451,9.04,0h-2L3.889-4.992.725,0h-2L2.878-6.451-1.173-12.8H.8Zm11.285,0,3.067-4.9h1.986L16.185-6.451,20.325,0h-2L15.174-4.992,12.01,0h-2l4.148-6.451L10.112-12.8h1.978Zm11.285,0,3.067-4.9h1.986L27.47-6.451,31.61,0h-2L26.459-4.992,23.3,0h-2l4.148-6.451L21.4-12.8h1.978Z" transform="translate(282 1950)" fill="#21214b"/>
    <path id="Trazado_102854" data-name="Trazado 102854" d="M0,0H143V50H0Z" transform="translate(683 1816)" fill="#039be5"/>
    <g id="Trazado_102855" data-name="Trazado 102855" transform="translate(683 1872)" fill="none">
      <path d="M0,0H143V50H0Z" stroke="none"/>
      <path d="M 1 1 L 1 49 L 142 49 L 142 1 L 1 1 M 0 0 L 143 0 L 143 50 L 0 50 L 0 0 Z" stroke="none" fill="#039be5"/>
    </g>
    <path id="Trazado_102859" data-name="Trazado 102859" d="M-21.067-5.458a7.436,7.436,0,0,1-.976,4.245A3.47,3.47,0,0,1-25.093.176a3.5,3.5,0,0,1-3.032-1.358,7.058,7.058,0,0,1-1.02-4.056V-7.409a7.271,7.271,0,0,1,.976-4.192,3.5,3.5,0,0,1,3.059-1.371,3.528,3.528,0,0,1,3.041,1.323,7.017,7.017,0,0,1,1,4.083Zm-1.626-2.224a5.958,5.958,0,0,0-.58-3.01,2,2,0,0,0-1.837-.945,1.97,1.97,0,0,0-1.819.94A5.817,5.817,0,0,0-27.519-7.8v2.6a6.053,6.053,0,0,0,.6,3.063,1.993,1.993,0,0,0,1.824.989A1.966,1.966,0,0,0-23.3-2.083a5.834,5.834,0,0,0,.611-2.936Zm7.066,1.644,2.109-3.472h1.9l-3.111,4.7L-11.522,0H-13.4l-2.2-3.56L-17.8,0h-1.89l3.208-4.808-3.111-4.7h1.881ZM-9.642,0V-12.8h3.612a5.815,5.815,0,0,1,2.953.738,4.993,4.993,0,0,1,1.982,2.1A6.837,6.837,0,0,1-.387-6.829v.817a6.861,6.861,0,0,1-.7,3.173,4.915,4.915,0,0,1-2,2.092A6.185,6.185,0,0,1-6.1,0Zm1.688-11.417V-1.38h1.775A3.863,3.863,0,0,0-3.142-2.594,5.016,5.016,0,0,0-2.057-6.051V-6.8A5.1,5.1,0,0,0-3.081-10.19a3.644,3.644,0,0,0-2.9-1.227ZM5.722-1.151a2.342,2.342,0,0,0,1.521-.527A1.855,1.855,0,0,0,7.963-3H9.5a2.949,2.949,0,0,1-.562,1.556A3.7,3.7,0,0,1,7.554-.264,3.994,3.994,0,0,1,5.722.176a3.918,3.918,0,0,1-3.089-1.3A5.163,5.163,0,0,1,1.485-4.667v-.272A5.725,5.725,0,0,1,2-7.409,3.883,3.883,0,0,1,3.458-9.088a4.157,4.157,0,0,1,2.254-.6,3.814,3.814,0,0,1,2.659.958A3.424,3.424,0,0,1,9.5-6.24H7.963a2.241,2.241,0,0,0-.7-1.516A2.174,2.174,0,0,0,5.713-8.35a2.276,2.276,0,0,0-1.92.892,4.19,4.19,0,0,0-.681,2.58v.308a4.106,4.106,0,0,0,.677,2.531A2.287,2.287,0,0,0,5.722-1.151ZM19.187-5.458a7.436,7.436,0,0,1-.976,4.245A3.47,3.47,0,0,1,15.161.176a3.5,3.5,0,0,1-3.032-1.358,7.058,7.058,0,0,1-1.02-4.056V-7.409a7.271,7.271,0,0,1,.976-4.192,3.5,3.5,0,0,1,3.059-1.371,3.528,3.528,0,0,1,3.041,1.323,7.017,7.017,0,0,1,1,4.083ZM17.561-7.682a5.958,5.958,0,0,0-.58-3.01,2,2,0,0,0-1.837-.945,1.97,1.97,0,0,0-1.819.94A5.817,5.817,0,0,0,12.735-7.8v2.6a6.053,6.053,0,0,0,.6,3.063,1.993,1.993,0,0,0,1.824.989,1.966,1.966,0,0,0,1.789-.932,5.834,5.834,0,0,0,.611-2.936Zm11.188,2.03h-5.37V0H21.691V-12.8h7.928v1.38h-6.24v4.386h5.37Z" transform="translate(755 1950)" fill="#21214b"/>
    <g id="Trazado_102844" data-name="Trazado 102844" transform="translate(526 1816)" fill="none">
      <path d="M0,0H143V50H0Z" stroke="none"/>
      <path d="M 1 1 L 1 49 L 142 49 L 142 1 L 1 1 M 0 0 L 143 0 L 143 50 L 0 50 L 0 0 Z" stroke="none" fill="#ffa726"/>
    </g>
    <g id="Trazado_102845" data-name="Trazado 102845" transform="translate(526 1872)" fill="none">
      <path d="M0,0H143V50H0Z" stroke="none"/>
      <path d="M 1 1 L 1 49 L 142 49 L 142 1 L 1 1 M 0 0 L 143 0 L 143 50 L 0 50 L 0 0 Z" stroke="none" fill="#ffa726"/>
    </g>
    <path id="Trazado_102848" data-name="Trazado 102848" d="M-23-5.458a7.436,7.436,0,0,1-.976,4.245A3.47,3.47,0,0,1-27.022.176a3.5,3.5,0,0,1-3.032-1.358,7.058,7.058,0,0,1-1.02-4.056V-7.409A7.271,7.271,0,0,1-30.1-11.6a3.5,3.5,0,0,1,3.059-1.371A3.528,3.528,0,0,1-24-11.65a7.017,7.017,0,0,1,1,4.083Zm-1.626-2.224a5.958,5.958,0,0,0-.58-3.01,2,2,0,0,0-1.837-.945,1.97,1.97,0,0,0-1.819.94A5.817,5.817,0,0,0-29.448-7.8v2.6a6.053,6.053,0,0,0,.6,3.063,1.993,1.993,0,0,0,1.824.989,1.966,1.966,0,0,0,1.789-.932,5.834,5.834,0,0,0,.611-2.936Zm7.066,1.644,2.109-3.472h1.9l-3.111,4.7L-13.452,0h-1.881l-2.2-3.56L-19.727,0h-1.89l3.208-4.808-3.111-4.7h1.881ZM-7.4-7.893l3.067-4.9h1.986L-6.385-6.451-2.246,0h-2L-7.4-4.992-10.56,0h-2l4.148-6.451L-12.458-12.8h1.978Zm11.285,0,3.067-4.9H8.943L4.9-6.451,9.04,0h-2L3.889-4.992.725,0h-2L2.878-6.451-1.173-12.8H.8Zm11.285,0,3.067-4.9h1.986L16.185-6.451,20.325,0h-2L15.174-4.992,12.01,0h-2l4.148-6.451L10.112-12.8h1.978Zm11.285,0,3.067-4.9h1.986L27.47-6.451,31.61,0h-2L26.459-4.992,23.3,0h-2l4.148-6.451L21.4-12.8h1.978Z" transform="translate(598 1950)" fill="#21214b"/>
    <path id="Trazado_102858" data-name="Trazado 102858" d="M-36.844-4.825a5.731,5.731,0,0,1,1-3.542,3.237,3.237,0,0,1,2.729-1.318,2.913,2.913,0,0,1,2.294,1.037V-13.5h2.549V0h-2.294l-.123-1.011A2.989,2.989,0,0,1-33.135.176a3.228,3.228,0,0,1-2.694-1.323A5.916,5.916,0,0,1-36.844-4.825Zm2.54.181a3.775,3.775,0,0,0,.466,2.057,1.516,1.516,0,0,0,1.354.715,1.7,1.7,0,0,0,1.661-1V-6.64a1.675,1.675,0,0,0-1.644-1Q-34.3-7.638-34.3-4.644ZM-23.625,0h-2.549V-9.51h2.549Zm-2.7-11.971a1.251,1.251,0,0,1,.382-.94A1.436,1.436,0,0,1-24.9-13.28a1.44,1.44,0,0,1,1.037.369,1.244,1.244,0,0,1,.387.94,1.247,1.247,0,0,1-.391.949,1.443,1.443,0,0,1-1.033.369,1.443,1.443,0,0,1-1.033-.369A1.247,1.247,0,0,1-26.323-11.971Zm10.134,4.843A6.9,6.9,0,0,0-17.1-7.2a1.86,1.86,0,0,0-1.89.976V0h-2.54V-9.51h2.4l.07,1.134a2.354,2.354,0,0,1,2.118-1.31,2.662,2.662,0,0,1,.791.114Zm5.432,7.3a4.668,4.668,0,0,1-3.406-1.283,4.561,4.561,0,0,1-1.314-3.419v-.246a5.745,5.745,0,0,1,.554-2.562,4.064,4.064,0,0,1,1.569-1.74,4.4,4.4,0,0,1,2.316-.611,3.947,3.947,0,0,1,3.072,1.23A5,5,0,0,1-6.847-4.966v1.037H-12.9a2.36,2.36,0,0,0,.743,1.494,2.245,2.245,0,0,0,1.569.563A2.742,2.742,0,0,0-8.3-2.936l1.248,1.4A3.813,3.813,0,0,1-8.6-.277,5.075,5.075,0,0,1-10.758.176Zm-.29-7.813a1.587,1.587,0,0,0-1.226.512,2.651,2.651,0,0,0-.6,1.466h3.533v-.2A1.891,1.891,0,0,0-9.8-7.174,1.638,1.638,0,0,0-11.048-7.638Zm9.6,5.766A1.666,1.666,0,0,0-.308-2.259,1.355,1.355,0,0,0,.149-3.287H2.531A3.258,3.258,0,0,1,2-1.516,3.48,3.48,0,0,1,.584-.268,4.442,4.442,0,0,1-1.406.176a4.129,4.129,0,0,1-3.217-1.3A5.13,5.13,0,0,1-5.8-4.7v-.167A5.071,5.071,0,0,1-4.632-8.376a4.08,4.08,0,0,1,3.208-1.31A4,4,0,0,1,1.437-8.67a3.594,3.594,0,0,1,1.094,2.7H.149A1.745,1.745,0,0,0-.308-7.174a1.524,1.524,0,0,0-1.16-.464,1.53,1.53,0,0,0-1.34.647,3.749,3.749,0,0,0-.453,2.1v.264a3.8,3.8,0,0,0,.448,2.113A1.549,1.549,0,0,0-1.45-1.872Zm9.387,0a1.666,1.666,0,0,0,1.143-.387,1.355,1.355,0,0,0,.457-1.028h2.382a3.258,3.258,0,0,1-.527,1.771A3.48,3.48,0,0,1,9.971-.268,4.442,4.442,0,0,1,7.98.176a4.129,4.129,0,0,1-3.217-1.3A5.13,5.13,0,0,1,3.586-4.7v-.167A5.071,5.071,0,0,1,4.755-8.376a4.08,4.08,0,0,1,3.208-1.31A4,4,0,0,1,10.824-8.67a3.594,3.594,0,0,1,1.094,2.7H9.536a1.745,1.745,0,0,0-.457-1.206,1.524,1.524,0,0,0-1.16-.464,1.53,1.53,0,0,0-1.34.647,3.749,3.749,0,0,0-.453,2.1v.264a3.8,3.8,0,0,0,.448,2.113A1.549,1.549,0,0,0,7.937-1.872ZM16.049,0H13.5V-9.51h2.549Zm-2.7-11.971a1.251,1.251,0,0,1,.382-.94,1.436,1.436,0,0,1,1.042-.369,1.44,1.44,0,0,1,1.037.369,1.244,1.244,0,0,1,.387.94,1.247,1.247,0,0,1-.391.949,1.443,1.443,0,0,1-1.033.369,1.443,1.443,0,0,1-1.033-.369A1.247,1.247,0,0,1,13.351-11.971Zm4.395,7.128a5.64,5.64,0,0,1,.545-2.522,3.989,3.989,0,0,1,1.569-1.714,4.577,4.577,0,0,1,2.377-.606,4.33,4.33,0,0,1,3.142,1.178,4.727,4.727,0,0,1,1.358,3.2l.018.65a4.97,4.97,0,0,1-1.222,3.511A4.247,4.247,0,0,1,22.254.176a4.268,4.268,0,0,1-3.283-1.318,5.058,5.058,0,0,1-1.226-3.586Zm2.54.18a3.555,3.555,0,0,0,.51,2.073,1.682,1.682,0,0,0,1.459.717A1.686,1.686,0,0,0,23.7-2.581a3.89,3.89,0,0,0,.519-2.267,3.519,3.519,0,0,0-.519-2.06,1.686,1.686,0,0,0-1.459-.731,1.658,1.658,0,0,0-1.441.726A3.955,3.955,0,0,0,20.285-4.662ZM22.737-13.5h2.769l-2.435,2.725H21.006Zm7.919,3.99.079,1.1a3.32,3.32,0,0,1,2.733-1.274,2.759,2.759,0,0,1,2.25.888,4.142,4.142,0,0,1,.756,2.654V0h-2.54V-6.1a1.654,1.654,0,0,0-.352-1.176,1.572,1.572,0,0,0-1.169-.366,1.747,1.747,0,0,0-1.608.916V0h-2.54V-9.51Z" transform="translate(756 1848)" fill="#fff"/>
    <path id="Trazado_102863" data-name="Trazado 102863" d="M0,0H143V50H0Z" transform="translate(842 1816)" fill="#039be5"/>
    <g id="Trazado_102864" data-name="Trazado 102864" transform="translate(842 1872)" fill="none">
      <path d="M0,0H143V50H0Z" stroke="none"/>
      <path d="M 1 1 L 1 49 L 142 49 L 142 1 L 1 1 M 0 0 L 143 0 L 143 50 L 0 50 L 0 0 Z" stroke="none" fill="#039be5"/>
    </g>
    <path id="Trazado_102867" data-name="Trazado 102867" d="M-20.483-5.458a7.436,7.436,0,0,1-.976,4.245A3.47,3.47,0,0,1-24.508.176a3.5,3.5,0,0,1-3.032-1.358,7.058,7.058,0,0,1-1.02-4.056V-7.409a7.271,7.271,0,0,1,.976-4.192,3.5,3.5,0,0,1,3.059-1.371,3.528,3.528,0,0,1,3.041,1.323,7.017,7.017,0,0,1,1,4.083Zm-1.626-2.224a5.958,5.958,0,0,0-.58-3.01,2,2,0,0,0-1.837-.945,1.97,1.97,0,0,0-1.819.94A5.817,5.817,0,0,0-26.934-7.8v2.6a6.053,6.053,0,0,0,.6,3.063,1.993,1.993,0,0,0,1.824.989,1.966,1.966,0,0,0,1.789-.932,5.834,5.834,0,0,0,.611-2.936Zm7.066,1.644,2.109-3.472h1.9l-3.111,4.7L-10.938,0h-1.881l-2.2-3.56L-17.213,0H-19.1L-15.9-4.808l-3.111-4.7h1.881ZM-2-5.651H-7.37V0H-9.057V-12.8h7.928v1.38H-7.37v4.386H-2ZM8.231-9.457a2.972,2.972,0,0,1-.505,1.705A3.439,3.439,0,0,1,6.359-6.583,3.668,3.668,0,0,1,7.945-5.326,3.163,3.163,0,0,1,8.53-3.454,3.344,3.344,0,0,1,7.409-.809,4.305,4.305,0,0,1,4.46.176,4.286,4.286,0,0,1,1.5-.813,3.36,3.36,0,0,1,.391-3.454,3.257,3.257,0,0,1,.958-5.326,3.528,3.528,0,0,1,2.527-6.592,3.354,3.354,0,0,1,1.182-7.761a3.014,3.014,0,0,1-.492-1.7,3.308,3.308,0,0,1,1.037-2.566,3.89,3.89,0,0,1,2.733-.949,3.894,3.894,0,0,1,2.729.949A3.3,3.3,0,0,1,8.231-9.457ZM6.9-3.489a2.359,2.359,0,0,0-.681-1.749,2.416,2.416,0,0,0-1.78-.677,2.373,2.373,0,0,0-1.762.668,2.385,2.385,0,0,0-.664,1.758,2.271,2.271,0,0,0,.646,1.714,2.48,2.48,0,0,0,1.8.624A2.472,2.472,0,0,0,6.253-1.78,2.266,2.266,0,0,0,6.9-3.489ZM4.46-11.637a2.1,2.1,0,0,0-1.551.593,2.179,2.179,0,0,0-.593,1.613A2.169,2.169,0,0,0,2.9-7.853a2.074,2.074,0,0,0,1.56.6,2.074,2.074,0,0,0,1.56-.6A2.169,2.169,0,0,0,6.6-9.431,2.17,2.17,0,0,0,6-11.021,2.068,2.068,0,0,0,4.46-11.637Zm8.481,4.447h1.222A2.685,2.685,0,0,0,15.974-7.8a2.026,2.026,0,0,0,.659-1.591,1.985,1.985,0,0,0-2.241-2.25,2.331,2.331,0,0,0-1.683.6,2.107,2.107,0,0,0-.628,1.6H10.455a3.264,3.264,0,0,1,1.112-2.527,4.05,4.05,0,0,1,2.826-1.006,4,4,0,0,1,2.839.958,3.461,3.461,0,0,1,1.028,2.663,2.809,2.809,0,0,1-.541,1.617,3.264,3.264,0,0,1-1.472,1.169,3.145,3.145,0,0,1,1.63,1.107,3.076,3.076,0,0,1,.576,1.89A3.491,3.491,0,0,1,17.328-.835,4.213,4.213,0,0,1,14.4.176,4.324,4.324,0,0,1,11.47-.8,3.236,3.236,0,0,1,10.34-3.375h1.635a2.092,2.092,0,0,0,.659,1.617,2.507,2.507,0,0,0,1.767.606,2.46,2.46,0,0,0,1.8-.615,2.371,2.371,0,0,0,.624-1.767,2.151,2.151,0,0,0-.686-1.714,2.987,2.987,0,0,0-1.978-.615H12.942ZM28.165-5.651h-5.37V0H21.107V-12.8h7.928v1.38h-6.24v4.386h5.37Z" transform="translate(914 1950)" fill="#21214b"/>
    <path id="Trazado_102868" data-name="Trazado 102868" d="M-21.287-1.872a1.666,1.666,0,0,0,1.143-.387,1.355,1.355,0,0,0,.457-1.028h2.382a3.258,3.258,0,0,1-.527,1.771A3.48,3.48,0,0,1-19.252-.268a4.442,4.442,0,0,1-1.991.444,4.129,4.129,0,0,1-3.217-1.3A5.13,5.13,0,0,1-25.638-4.7v-.167a5.071,5.071,0,0,1,1.169-3.507,4.08,4.08,0,0,1,3.208-1.31A4,4,0,0,1-18.4-8.67a3.594,3.594,0,0,1,1.094,2.7h-2.382a1.745,1.745,0,0,0-.457-1.206,1.524,1.524,0,0,0-1.16-.464,1.53,1.53,0,0,0-1.34.647,3.749,3.749,0,0,0-.453,2.1v.264a3.8,3.8,0,0,0,.448,2.113A1.549,1.549,0,0,0-21.287-1.872Zm5.036-2.971a5.64,5.64,0,0,1,.545-2.522,3.989,3.989,0,0,1,1.569-1.714,4.577,4.577,0,0,1,2.377-.606A4.33,4.33,0,0,1-8.618-8.508a4.727,4.727,0,0,1,1.358,3.2l.018.65A4.97,4.97,0,0,1-8.464-1.147,4.247,4.247,0,0,1-11.742.176a4.268,4.268,0,0,1-3.283-1.318,5.058,5.058,0,0,1-1.226-3.586Zm2.54.18a3.555,3.555,0,0,0,.51,2.073,1.682,1.682,0,0,0,1.459.717A1.686,1.686,0,0,0-10.3-2.581a3.89,3.89,0,0,0,.519-2.267,3.519,3.519,0,0,0-.519-2.06,1.686,1.686,0,0,0-1.459-.731,1.658,1.658,0,0,0-1.441.726A3.955,3.955,0,0,0-13.711-4.662ZM-.334-7.128a6.9,6.9,0,0,0-.914-.07,1.86,1.86,0,0,0-1.89.976V0h-2.54V-9.51h2.4l.07,1.134A2.354,2.354,0,0,1-1.09-9.686,2.662,2.662,0,0,1-.3-9.571Zm6.565,0a6.9,6.9,0,0,0-.914-.07,1.86,1.86,0,0,0-1.89.976V0H.888V-9.51h2.4l.07,1.134a2.354,2.354,0,0,1,2.118-1.31,2.662,2.662,0,0,1,.791.114Zm5.432,7.3A4.668,4.668,0,0,1,8.257-1.107,4.561,4.561,0,0,1,6.943-4.526v-.246A5.745,5.745,0,0,1,7.5-7.334a4.064,4.064,0,0,1,1.569-1.74,4.4,4.4,0,0,1,2.316-.611,3.947,3.947,0,0,1,3.072,1.23,5,5,0,0,1,1.121,3.489v1.037H9.519a2.36,2.36,0,0,0,.743,1.494,2.245,2.245,0,0,0,1.569.563,2.742,2.742,0,0,0,2.294-1.063l1.248,1.4A3.813,3.813,0,0,1,13.825-.277,5.075,5.075,0,0,1,11.663.176Zm-.29-7.813a1.587,1.587,0,0,0-1.226.512,2.651,2.651,0,0,0-.6,1.466h3.533v-.2a1.891,1.891,0,0,0-.457-1.311A1.638,1.638,0,0,0,11.373-7.638ZM16.62-4.843a5.64,5.64,0,0,1,.545-2.522,3.989,3.989,0,0,1,1.569-1.714,4.577,4.577,0,0,1,2.377-.606,4.33,4.33,0,0,1,3.142,1.178,4.727,4.727,0,0,1,1.358,3.2l.018.65a4.97,4.97,0,0,1-1.222,3.511A4.247,4.247,0,0,1,21.129.176a4.268,4.268,0,0,1-3.283-1.318A5.058,5.058,0,0,1,16.62-4.729Zm2.54.18a3.555,3.555,0,0,0,.51,2.073,1.682,1.682,0,0,0,1.459.717,1.686,1.686,0,0,0,1.441-.709,3.89,3.89,0,0,0,.519-2.267,3.519,3.519,0,0,0-.519-2.06,1.686,1.686,0,0,0-1.459-.731,1.658,1.658,0,0,0-1.441.726A3.955,3.955,0,0,0,19.16-4.662Z" transform="translate(914 1848)" fill="#fff"/>
    <g id="Trazado_102873" data-name="Trazado 102873" transform="translate(998 1816)" fill="none">
      <path d="M0,0H143V50H0Z" stroke="none"/>
      <path d="M 1 1 L 1 49 L 142 49 L 142 1 L 1 1 M 0 0 L 143 0 L 143 50 L 0 50 L 0 0 Z" stroke="none" fill="#ffa726"/>
    </g>
    <g id="Trazado_102874" data-name="Trazado 102874" transform="translate(998 1872)" fill="none">
      <path d="M0,0H143V50H0Z" stroke="none"/>
      <path d="M 1 1 L 1 49 L 142 49 L 142 1 L 1 1 M 0 0 L 143 0 L 143 50 L 0 50 L 0 0 Z" stroke="none" fill="#ffa726"/>
    </g>
    <path id="Trazado_102877" data-name="Trazado 102877" d="M-23-5.458a7.436,7.436,0,0,1-.976,4.245A3.47,3.47,0,0,1-27.022.176a3.5,3.5,0,0,1-3.032-1.358,7.058,7.058,0,0,1-1.02-4.056V-7.409A7.271,7.271,0,0,1-30.1-11.6a3.5,3.5,0,0,1,3.059-1.371A3.528,3.528,0,0,1-24-11.65a7.017,7.017,0,0,1,1,4.083Zm-1.626-2.224a5.958,5.958,0,0,0-.58-3.01,2,2,0,0,0-1.837-.945,1.97,1.97,0,0,0-1.819.94A5.817,5.817,0,0,0-29.448-7.8v2.6a6.053,6.053,0,0,0,.6,3.063,1.993,1.993,0,0,0,1.824.989,1.966,1.966,0,0,0,1.789-.932,5.834,5.834,0,0,0,.611-2.936Zm7.066,1.644,2.109-3.472h1.9l-3.111,4.7L-13.452,0h-1.881l-2.2-3.56L-19.727,0h-1.89l3.208-4.808-3.111-4.7h1.881ZM-7.4-7.893l3.067-4.9h1.986L-6.385-6.451-2.246,0h-2L-7.4-4.992-10.56,0h-2l4.148-6.451L-12.458-12.8h1.978Zm11.285,0,3.067-4.9H8.943L4.9-6.451,9.04,0h-2L3.889-4.992.725,0h-2L2.878-6.451-1.173-12.8H.8Zm11.285,0,3.067-4.9h1.986L16.185-6.451,20.325,0h-2L15.174-4.992,12.01,0h-2l4.148-6.451L10.112-12.8h1.978Zm11.285,0,3.067-4.9h1.986L27.47-6.451,31.61,0h-2L26.459-4.992,23.3,0h-2l4.148-6.451L21.4-12.8h1.978Z" transform="translate(1070 1950)" fill="#21214b"/>
    <g id="Trazado_102887" data-name="Trazado 102887" transform="translate(1157 1816)" fill="none">
      <path d="M0,0H143V50H0Z" stroke="none"/>
      <path d="M 1 1 L 1 49 L 142 49 L 142 1 L 1 1 M 0 0 L 143 0 L 143 50 L 0 50 L 0 0 Z" stroke="none" fill="#ffa726"/>
    </g>
    <g id="Trazado_102888" data-name="Trazado 102888" transform="translate(1157 1872)" fill="none">
      <path d="M0,0H143V50H0Z" stroke="none"/>
      <path d="M 1 1 L 1 49 L 142 49 L 142 1 L 1 1 M 0 0 L 143 0 L 143 50 L 0 50 L 0 0 Z" stroke="none" fill="#ffa726"/>
    </g>
    <path id="Trazado_102892" data-name="Trazado 102892" d="M-30.458-5.985A7.916,7.916,0,0,1-31.091-2.7a4.793,4.793,0,0,1-1.793,2.14,4.933,4.933,0,0,1-2.707.738,4.891,4.891,0,0,1-2.681-.743,4.908,4.908,0,0,1-1.815-2.118,7.6,7.6,0,0,1-.664-3.186v-.923a7.822,7.822,0,0,1,.642-3.261,4.891,4.891,0,0,1,1.815-2.167,4.87,4.87,0,0,1,2.685-.751,4.961,4.961,0,0,1,2.711.743,4.784,4.784,0,0,1,1.806,2.153,7.955,7.955,0,0,1,.633,3.283Zm-1.679-.826a5.738,5.738,0,0,0-.914-3.494,3.015,3.015,0,0,0-2.558-1.217,2.982,2.982,0,0,0-2.518,1.217,5.62,5.62,0,0,0-.945,3.379v.94a5.746,5.746,0,0,0,.927,3.467,3,3,0,0,0,2.553,1.261A2.983,2.983,0,0,0-33.06-2.448a5.714,5.714,0,0,0,.923-3.415Zm7.146.773,2.109-3.472h1.9l-3.111,4.7L-20.887,0h-1.881l-2.2-3.56L-27.163,0h-1.89l3.208-4.808-3.111-4.7h1.881ZM-12.564-4.3h1.775v1.327h-1.775V0H-14.2V-2.971h-5.827v-.958L-14.3-12.8h1.731Zm-5.616,0H-14.2v-6.275l-.193.352Zm16.348.949H-7.194L-8.4,0h-1.74l4.887-12.8h1.477L1.121,0H-.611Zm-4.852-1.38h4.351l-2.18-5.985Zm17.367-7.154L5.383,0H3.678L8.96-11.461H2.035V-12.8h8.648ZM20.29-9.457a2.972,2.972,0,0,1-.505,1.705,3.439,3.439,0,0,1-1.367,1.169A3.668,3.668,0,0,1,20-5.326a3.163,3.163,0,0,1,.584,1.872A3.344,3.344,0,0,1,19.468-.809a4.305,4.305,0,0,1-2.949.984,4.286,4.286,0,0,1-2.958-.989A3.36,3.36,0,0,1,12.45-3.454a3.257,3.257,0,0,1,.567-1.872,3.528,3.528,0,0,1,1.569-1.266,3.354,3.354,0,0,1-1.345-1.169,3.014,3.014,0,0,1-.492-1.7,3.308,3.308,0,0,1,1.037-2.566,3.89,3.89,0,0,1,2.733-.949,3.894,3.894,0,0,1,2.729.949A3.3,3.3,0,0,1,20.29-9.457ZM18.962-3.489a2.359,2.359,0,0,0-.681-1.749,2.416,2.416,0,0,0-1.78-.677,2.373,2.373,0,0,0-1.762.668,2.385,2.385,0,0,0-.664,1.758,2.271,2.271,0,0,0,.646,1.714,2.48,2.48,0,0,0,1.8.624,2.472,2.472,0,0,0,1.793-.628A2.266,2.266,0,0,0,18.962-3.489Zm-2.443-8.147a2.1,2.1,0,0,0-1.551.593,2.179,2.179,0,0,0-.593,1.613,2.169,2.169,0,0,0,.584,1.578,2.074,2.074,0,0,0,1.56.6,2.074,2.074,0,0,0,1.56-.6,2.169,2.169,0,0,0,.584-1.578,2.17,2.17,0,0,0-.606-1.591A2.068,2.068,0,0,0,16.519-11.637Zm12.5-1.169v1.38h-.3A4.281,4.281,0,0,0,25.695-10.3a4.681,4.681,0,0,0-1.3,3.067,3.471,3.471,0,0,1,2.76-1.16,3.319,3.319,0,0,1,2.667,1.178,4.543,4.543,0,0,1,1,3.041,4.528,4.528,0,0,1-1.077,3.164A3.707,3.707,0,0,1,26.855.176a3.653,3.653,0,0,1-2.979-1.411,5.591,5.591,0,0,1-1.143-3.634v-.624a8.424,8.424,0,0,1,1.507-5.4,5.536,5.536,0,0,1,4.487-1.912ZM26.881-7.04a2.594,2.594,0,0,0-1.538.5,2.61,2.61,0,0,0-.976,1.257v.6a4.2,4.2,0,0,0,.712,2.549,2.133,2.133,0,0,0,1.775.967,2.067,2.067,0,0,0,1.727-.809A3.355,3.355,0,0,0,29.21-4.1a3.356,3.356,0,0,0-.637-2.131A2.042,2.042,0,0,0,26.881-7.04Zm12.243-5.766v1.38h-.3A4.281,4.281,0,0,0,35.8-10.3a4.681,4.681,0,0,0-1.3,3.067,3.471,3.471,0,0,1,2.76-1.16,3.319,3.319,0,0,1,2.667,1.178,4.543,4.543,0,0,1,1,3.041A4.528,4.528,0,0,1,39.85-1.011,3.707,3.707,0,0,1,36.962.176a3.653,3.653,0,0,1-2.979-1.411A5.591,5.591,0,0,1,32.84-4.869v-.624a8.424,8.424,0,0,1,1.507-5.4,5.536,5.536,0,0,1,4.487-1.912ZM36.989-7.04a2.594,2.594,0,0,0-1.538.5,2.61,2.61,0,0,0-.976,1.257v.6a4.2,4.2,0,0,0,.712,2.549,2.133,2.133,0,0,0,1.775.967,2.067,2.067,0,0,0,1.727-.809A3.355,3.355,0,0,0,39.318-4.1a3.356,3.356,0,0,0-.637-2.131A2.042,2.042,0,0,0,36.989-7.04Z" transform="translate(1229 1950)" fill="#21214b"/>
    <g id="Trazado_102840" data-name="Trazado 102840" transform="translate(210 1999)" fill="none">
      <path d="M0,0H143V50H0Z" stroke="none"/>
      <path d="M 1 1 L 1 49 L 142 49 L 142 1 L 1 1 M 0 0 L 143 0 L 143 50 L 0 50 L 0 0 Z" stroke="none" fill="#ffa726"/>
    </g>
    <g id="Trazado_102851" data-name="Trazado 102851" transform="translate(210 2055)" fill="none">
      <path d="M0,0H143V50H0Z" stroke="none"/>
      <path d="M 1 1 L 1 49 L 142 49 L 142 1 L 1 1 M 0 0 L 143 0 L 143 50 L 0 50 L 0 0 Z" stroke="none" fill="#ffa726"/>
    </g>
    <path id="Trazado_102878" data-name="Trazado 102878" d="M-23-5.458a7.436,7.436,0,0,1-.976,4.245A3.47,3.47,0,0,1-27.022.176a3.5,3.5,0,0,1-3.032-1.358,7.058,7.058,0,0,1-1.02-4.056V-7.409A7.271,7.271,0,0,1-30.1-11.6a3.5,3.5,0,0,1,3.059-1.371A3.528,3.528,0,0,1-24-11.65a7.017,7.017,0,0,1,1,4.083Zm-1.626-2.224a5.958,5.958,0,0,0-.58-3.01,2,2,0,0,0-1.837-.945,1.97,1.97,0,0,0-1.819.94A5.817,5.817,0,0,0-29.448-7.8v2.6a6.053,6.053,0,0,0,.6,3.063,1.993,1.993,0,0,0,1.824.989,1.966,1.966,0,0,0,1.789-.932,5.834,5.834,0,0,0,.611-2.936Zm7.066,1.644,2.109-3.472h1.9l-3.111,4.7L-13.452,0h-1.881l-2.2-3.56L-19.727,0h-1.89l3.208-4.808-3.111-4.7h1.881ZM-7.4-7.893l3.067-4.9h1.986L-6.385-6.451-2.246,0h-2L-7.4-4.992-10.56,0h-2l4.148-6.451L-12.458-12.8h1.978Zm11.285,0,3.067-4.9H8.943L4.9-6.451,9.04,0h-2L3.889-4.992.725,0h-2L2.878-6.451-1.173-12.8H.8Zm11.285,0,3.067-4.9h1.986L16.185-6.451,20.325,0h-2L15.174-4.992,12.01,0h-2l4.148-6.451L10.112-12.8h1.978Zm11.285,0,3.067-4.9h1.986L27.47-6.451,31.61,0h-2L26.459-4.992,23.3,0h-2l4.148-6.451L21.4-12.8h1.978Z" transform="translate(282 2133)" fill="#21214b"/>
    <g id="Trazado_102841" data-name="Trazado 102841" transform="translate(367 1999)" fill="none">
      <path d="M0,0H143V50H0Z" stroke="none"/>
      <path d="M 1 1 L 1 49 L 142 49 L 142 1 L 1 1 M 0 0 L 143 0 L 143 50 L 0 50 L 0 0 Z" stroke="none" fill="#ffa726"/>
    </g>
    <g id="Trazado_102852" data-name="Trazado 102852" transform="translate(367 2055)" fill="none">
      <path d="M0,0H143V50H0Z" stroke="none"/>
      <path d="M 1 1 L 1 49 L 142 49 L 142 1 L 1 1 M 0 0 L 143 0 L 143 50 L 0 50 L 0 0 Z" stroke="none" fill="#ffa726"/>
    </g>
    <path id="Trazado_102879" data-name="Trazado 102879" d="M-26.512-5.458a7.436,7.436,0,0,1-.976,4.245A3.47,3.47,0,0,1-30.538.176,3.5,3.5,0,0,1-33.57-1.182a7.058,7.058,0,0,1-1.02-4.056V-7.409a7.271,7.271,0,0,1,.976-4.192,3.5,3.5,0,0,1,3.059-1.371,3.528,3.528,0,0,1,3.041,1.323,7.017,7.017,0,0,1,1,4.083Zm-1.626-2.224a5.958,5.958,0,0,0-.58-3.01,2,2,0,0,0-1.837-.945,1.97,1.97,0,0,0-1.819.94A5.817,5.817,0,0,0-32.963-7.8v2.6a6.053,6.053,0,0,0,.6,3.063,1.993,1.993,0,0,0,1.824.989,1.966,1.966,0,0,0,1.789-.932,5.834,5.834,0,0,0,.611-2.936Zm7.066,1.644,2.109-3.472h1.9l-3.111,4.7L-16.967,0h-1.881l-2.2-3.56L-23.243,0h-1.89l3.208-4.808-3.111-4.7h1.881ZM-8.02-3.349h-5.361L-14.585,0h-1.74l4.887-12.8h1.477L-5.067,0H-6.8Zm-4.852-1.38h4.351l-2.18-5.985Zm15.337-.9a3.978,3.978,0,0,1-1.217.976A3.3,3.3,0,0,1-.3-4.28a3.41,3.41,0,0,1-1.929-.545A3.543,3.543,0,0,1-3.5-6.359a5.229,5.229,0,0,1-.448-2.184,5.327,5.327,0,0,1,.488-2.312,3.583,3.583,0,0,1,1.384-1.573,3.947,3.947,0,0,1,2.092-.545,3.574,3.574,0,0,1,2.993,1.419A6.191,6.191,0,0,1,4.1-7.682v.475q0,3.735-1.477,5.454A5.673,5.673,0,0,1-1.833.009h-.316v-1.38h.343A4.476,4.476,0,0,0,1.288-2.419,4.5,4.5,0,0,0,2.465-5.625Zm-2.5,0a2.511,2.511,0,0,0,1.507-.5A2.953,2.953,0,0,0,2.474-7.365v-.65a4.474,4.474,0,0,0-.694-2.6,2.072,2.072,0,0,0-1.758-1A2.088,2.088,0,0,0-1.7-10.8a3.39,3.39,0,0,0-.65,2.167,3.528,3.528,0,0,0,.628,2.158A1.99,1.99,0,0,0-.04-5.625ZM8.706-7.189H9.927A2.685,2.685,0,0,0,11.738-7.8,2.026,2.026,0,0,0,12.4-9.387a1.985,1.985,0,0,0-2.241-2.25,2.331,2.331,0,0,0-1.683.6,2.107,2.107,0,0,0-.628,1.6H6.218A3.264,3.264,0,0,1,7.33-11.966a4.05,4.05,0,0,1,2.826-1.006,4,4,0,0,1,2.839.958,3.461,3.461,0,0,1,1.028,2.663,2.809,2.809,0,0,1-.541,1.617A3.264,3.264,0,0,1,12.01-6.565a3.145,3.145,0,0,1,1.63,1.107,3.076,3.076,0,0,1,.576,1.89A3.491,3.491,0,0,1,13.091-.835,4.213,4.213,0,0,1,10.165.176,4.324,4.324,0,0,1,7.233-.8,3.236,3.236,0,0,1,6.1-3.375H7.739A2.092,2.092,0,0,0,8.4-1.758a2.507,2.507,0,0,0,1.767.606,2.46,2.46,0,0,0,1.8-.615,2.371,2.371,0,0,0,.624-1.767A2.151,2.151,0,0,0,11.9-5.247a2.987,2.987,0,0,0-1.978-.615H8.706Zm8.49.773.65-6.381H24.4v1.5H19.226L18.839-7.8a4.13,4.13,0,0,1,2.136-.554A3.531,3.531,0,0,1,23.752-7.2a4.53,4.53,0,0,1,1.028,3.125A4.372,4.372,0,0,1,23.713-.962,3.892,3.892,0,0,1,20.729.176a4.045,4.045,0,0,1-2.769-.94,3.754,3.754,0,0,1-1.222-2.6h1.538a2.582,2.582,0,0,0,.782,1.657,2.432,2.432,0,0,0,1.67.558,2.194,2.194,0,0,0,1.78-.773,3.233,3.233,0,0,0,.646-2.136,2.968,2.968,0,0,0-.7-2.061A2.377,2.377,0,0,0,20.6-6.9a2.681,2.681,0,0,0-1.67.466l-.431.352Zm17.385.958A7.436,7.436,0,0,1,33.6-1.213,3.47,3.47,0,0,1,30.555.176a3.5,3.5,0,0,1-3.032-1.358A7.058,7.058,0,0,1,26.5-5.238V-7.409a7.271,7.271,0,0,1,.976-4.192,3.5,3.5,0,0,1,3.059-1.371,3.528,3.528,0,0,1,3.041,1.323,7.017,7.017,0,0,1,1,4.083ZM32.955-7.682a5.958,5.958,0,0,0-.58-3.01,2,2,0,0,0-1.837-.945,1.97,1.97,0,0,0-1.819.94A5.817,5.817,0,0,0,28.129-7.8v2.6a6.053,6.053,0,0,0,.6,3.063,1.993,1.993,0,0,0,1.824.989,1.966,1.966,0,0,0,1.789-.932,5.834,5.834,0,0,0,.611-2.936Z" transform="translate(439 2133)" fill="#21214b"/>
    <path id="Trazado_102846" data-name="Trazado 102846" d="M0,0H143V50H0Z" transform="translate(524 1999)" fill="#039be5"/>
    <g id="Trazado_102853" data-name="Trazado 102853" transform="translate(524 2055)" fill="none">
      <path d="M0,0H143V50H0Z" stroke="none"/>
      <path d="M 1 1 L 1 49 L 142 49 L 142 1 L 1 1 M 0 0 L 143 0 L 143 50 L 0 50 L 0 0 Z" stroke="none" fill="#039be5"/>
    </g>
    <path id="Trazado_102880" data-name="Trazado 102880" d="M-26.5-5.458a7.436,7.436,0,0,1-.976,4.245A3.47,3.47,0,0,1-30.524.176a3.5,3.5,0,0,1-3.032-1.358,7.058,7.058,0,0,1-1.02-4.056V-7.409A7.271,7.271,0,0,1-33.6-11.6a3.5,3.5,0,0,1,3.059-1.371A3.528,3.528,0,0,1-27.5-11.65a7.017,7.017,0,0,1,1,4.083Zm-1.626-2.224a5.958,5.958,0,0,0-.58-3.01,2,2,0,0,0-1.837-.945,1.97,1.97,0,0,0-1.819.94A5.817,5.817,0,0,0-32.95-7.8v2.6a6.053,6.053,0,0,0,.6,3.063,1.993,1.993,0,0,0,1.824.989,1.966,1.966,0,0,0,1.789-.932,5.834,5.834,0,0,0,.611-2.936Zm7.066,1.644,2.109-3.472h1.9l-3.111,4.7L-16.954,0h-1.881l-2.2-3.56L-23.229,0h-1.89l3.208-4.808-3.111-4.7h1.881Zm15.4,1.978a4.708,4.708,0,0,1-1.5,3.133,4.911,4.911,0,0,1-3.353,1.1A4.509,4.509,0,0,1-14.146-1.45,6.542,6.542,0,0,1-15.513-5.8v-1.23a7.291,7.291,0,0,1,.637-3.138,4.76,4.76,0,0,1,1.806-2.079,5.029,5.029,0,0,1,2.707-.725,4.624,4.624,0,0,1,3.27,1.138A4.765,4.765,0,0,1-5.66-8.684h-1.7a3.677,3.677,0,0,0-.954-2.222,2.885,2.885,0,0,0-2.052-.688A3.019,3.019,0,0,0-12.9-10.4a5.492,5.492,0,0,0-.918,3.4v1.24a5.645,5.645,0,0,0,.87,3.316A2.812,2.812,0,0,0-10.512-1.2a3.247,3.247,0,0,0,2.158-.637,3.536,3.536,0,0,0,1-2.219ZM3.085-4.3H4.86v1.327H3.085V0H1.45V-2.971H-4.377v-.958L1.354-12.8H3.085Zm-5.616,0H1.45v-6.275l-.193.352ZM14.713,0H6.328V-1.169l4.43-4.922a10.524,10.524,0,0,0,1.358-1.815,3.029,3.029,0,0,0,.374-1.446A2.3,2.3,0,0,0,11.883-11a2.12,2.12,0,0,0-1.617-.642,2.511,2.511,0,0,0-1.885.69,2.635,2.635,0,0,0-.672,1.92H6.082A3.774,3.774,0,0,1,7.22-11.883a4.219,4.219,0,0,1,3.045-1.09,4.054,4.054,0,0,1,2.821.936,3.193,3.193,0,0,1,1.037,2.492q0,1.89-2.408,4.5L8.288-1.327h6.425Zm7.066,0H20.145V-10.837l-3.278,1.2v-1.477l4.658-1.749h.255Zm11-5.625a3.978,3.978,0,0,1-1.217.976,3.3,3.3,0,0,1-1.551.369,3.41,3.41,0,0,1-1.929-.545,3.543,3.543,0,0,1-1.27-1.534,5.229,5.229,0,0,1-.448-2.184,5.327,5.327,0,0,1,.488-2.312,3.583,3.583,0,0,1,1.384-1.573,3.947,3.947,0,0,1,2.092-.545,3.574,3.574,0,0,1,2.993,1.419,6.191,6.191,0,0,1,1.094,3.872v.475q0,3.735-1.477,5.454A5.673,5.673,0,0,1,28.477.009H28.16v-1.38H28.5A4.476,4.476,0,0,0,31.6-2.419,4.5,4.5,0,0,0,32.774-5.625Zm-2.5,0a2.511,2.511,0,0,0,1.507-.5,2.953,2.953,0,0,0,1.006-1.239v-.65a4.474,4.474,0,0,0-.694-2.6,2.072,2.072,0,0,0-1.758-1,2.088,2.088,0,0,0-1.723.822,3.39,3.39,0,0,0-.65,2.167,3.528,3.528,0,0,0,.628,2.158A1.99,1.99,0,0,0,30.27-5.625Z" transform="translate(596 2133)" fill="#21214b"/>
    <path id="Trazado_102849" data-name="Trazado 102849" d="M-19.31-9.51l.079,1.1A3.32,3.32,0,0,1-16.5-9.686a2.759,2.759,0,0,1,2.25.888,4.142,4.142,0,0,1,.756,2.654V0h-2.54V-6.1a1.654,1.654,0,0,0-.352-1.176,1.572,1.572,0,0,0-1.169-.366,1.747,1.747,0,0,0-1.608.916V0H-21.7V-9.51Zm7.348,4.667a5.64,5.64,0,0,1,.545-2.522A3.989,3.989,0,0,1-9.848-9.079a4.577,4.577,0,0,1,2.377-.606A4.33,4.33,0,0,1-4.329-8.508a4.727,4.727,0,0,1,1.358,3.2l.018.65A4.97,4.97,0,0,1-4.175-1.147,4.247,4.247,0,0,1-7.453.176a4.268,4.268,0,0,1-3.283-1.318,5.058,5.058,0,0,1-1.226-3.586Zm2.54.18a3.555,3.555,0,0,0,.51,2.073,1.682,1.682,0,0,0,1.459.717,1.686,1.686,0,0,0,1.441-.709,3.89,3.89,0,0,0,.519-2.267,3.519,3.519,0,0,0-.519-2.06,1.686,1.686,0,0,0-1.459-.731,1.658,1.658,0,0,0-1.441.726A3.955,3.955,0,0,0-9.422-4.662ZM1.652-11.848V-9.51H3.278v1.863H1.652V-2.9a1.133,1.133,0,0,0,.2.756,1.015,1.015,0,0,0,.773.229,4.051,4.051,0,0,0,.747-.062V-.053A5.229,5.229,0,0,1,1.837.176a2.425,2.425,0,0,1-2.725-2.7V-7.646H-2.276V-9.51H-.888v-2.338ZM10.2,0a2.821,2.821,0,0,1-.255-.853A3.073,3.073,0,0,1,7.55.176,3.376,3.376,0,0,1,5.234-.633a2.6,2.6,0,0,1-.918-2.039,2.687,2.687,0,0,1,1.121-2.32A5.529,5.529,0,0,1,8.675-5.81H9.844v-.545a1.567,1.567,0,0,0-.338-1.055,1.331,1.331,0,0,0-1.068-.4A1.513,1.513,0,0,0,7.431-7.5a1.045,1.045,0,0,0-.365.844H4.526a2.551,2.551,0,0,1,.51-1.529,3.37,3.37,0,0,1,1.441-1.1,5.253,5.253,0,0,1,2.092-.4A4.15,4.15,0,0,1,11.36-8.8a3.09,3.09,0,0,1,1.033,2.483V-2.2a4.546,4.546,0,0,0,.378,2.048V0ZM8.1-1.767a2.188,2.188,0,0,0,1.037-.25,1.645,1.645,0,0,0,.7-.672V-4.324H8.895q-1.907,0-2.03,1.318l-.009.149a1.017,1.017,0,0,0,.334.782A1.3,1.3,0,0,0,8.1-1.767Zm11.391-.861a.818.818,0,0,0-.461-.734,5.241,5.241,0,0,0-1.481-.479q-3.393-.712-3.393-2.883a2.613,2.613,0,0,1,1.05-2.114,4.237,4.237,0,0,1,2.747-.848,4.56,4.56,0,0,1,2.9.853,2.687,2.687,0,0,1,1.085,2.215H19.4a1.229,1.229,0,0,0-.352-.9,1.488,1.488,0,0,0-1.1-.356,1.52,1.52,0,0,0-.993.29.916.916,0,0,0-.352.738.783.783,0,0,0,.4.681,4.114,4.114,0,0,0,1.349.448,11.019,11.019,0,0,1,1.6.426,2.628,2.628,0,0,1,2.013,2.558,2.481,2.481,0,0,1-1.116,2.1,4.815,4.815,0,0,1-2.883.8A5.029,5.029,0,0,1,15.842-.25a3.561,3.561,0,0,1-1.455-1.169,2.716,2.716,0,0,1-.527-1.6h2.408a1.326,1.326,0,0,0,.5,1.037,1.987,1.987,0,0,0,1.248.36,1.839,1.839,0,0,0,1.1-.277A.861.861,0,0,0,19.494-2.628Z" transform="translate(596 2031)" fill="#fff"/>
    <g id="Trazado_102856" data-name="Trazado 102856" transform="translate(683 1999)" fill="none">
      <path d="M0,0H143V50H0Z" stroke="none"/>
      <path d="M 1 1 L 1 49 L 142 49 L 142 1 L 1 1 M 0 0 L 143 0 L 143 50 L 0 50 L 0 0 Z" stroke="none" fill="#ffa726"/>
    </g>
    <g id="Trazado_102857" data-name="Trazado 102857" transform="translate(683 2055)" fill="none">
      <path d="M0,0H143V50H0Z" stroke="none"/>
      <path d="M 1 1 L 1 49 L 142 49 L 142 1 L 1 1 M 0 0 L 143 0 L 143 50 L 0 50 L 0 0 Z" stroke="none" fill="#ffa726"/>
    </g>
    <path id="Trazado_102881" data-name="Trazado 102881" d="M-28.639-5.458a7.436,7.436,0,0,1-.976,4.245A3.47,3.47,0,0,1-32.665.176,3.5,3.5,0,0,1-35.7-1.182a7.058,7.058,0,0,1-1.02-4.056V-7.409a7.271,7.271,0,0,1,.976-4.192,3.5,3.5,0,0,1,3.059-1.371,3.528,3.528,0,0,1,3.041,1.323,7.017,7.017,0,0,1,1,4.083Zm-1.626-2.224a5.958,5.958,0,0,0-.58-3.01,2,2,0,0,0-1.837-.945,1.97,1.97,0,0,0-1.819.94A5.817,5.817,0,0,0-35.09-7.8v2.6a6.053,6.053,0,0,0,.6,3.063,1.993,1.993,0,0,0,1.824.989,1.966,1.966,0,0,0,1.789-.932,5.834,5.834,0,0,0,.611-2.936ZM-23.2-6.038l2.109-3.472h1.9l-3.111,4.7L-19.094,0h-1.881l-2.2-3.56L-25.37,0h-1.89l3.208-4.808-3.111-4.7h1.881Zm10.16-1.854,3.067-4.9h1.986l-4.043,6.346L-7.888,0h-2l-3.146-4.992L-16.2,0h-2l4.148-6.451L-18.1-12.8h1.978Zm11.285,0,3.067-4.9H3.3L-.743-6.451,3.4,0h-2L-1.753-4.992-4.917,0h-2l4.148-6.451L-6.816-12.8h1.978Zm11.285,0L12.6-12.8h1.986L10.542-6.451,14.682,0h-2L9.532-4.992,6.368,0h-2L8.521-6.451,4.469-12.8H6.447Zm11.285,0,3.067-4.9h1.986L21.828-6.451,25.967,0h-2L20.817-4.992,17.653,0h-2l4.148-6.451L15.754-12.8h1.978Zm11.285,0,3.067-4.9h1.986L33.113-6.451,37.252,0h-2L32.1-4.992,28.938,0h-2l4.148-6.451L27.04-12.8h1.978Z" transform="translate(753 2133)" fill="#21214b"/>
    <path id="Trazado_102865" data-name="Trazado 102865" d="M0,0H143V50H0Z" transform="translate(841 1999)" fill="#039be5"/>
    <g id="Trazado_102866" data-name="Trazado 102866" transform="translate(841 2055)" fill="none">
      <path d="M0,0H143V50H0Z" stroke="none"/>
      <path d="M 1 1 L 1 49 L 142 49 L 142 1 L 1 1 M 0 0 L 143 0 L 143 50 L 0 50 L 0 0 Z" stroke="none" fill="#039be5"/>
    </g>
    <path id="Trazado_102882" data-name="Trazado 102882" d="M-31.566-5.458a7.436,7.436,0,0,1-.976,4.245A3.47,3.47,0,0,1-35.591.176a3.5,3.5,0,0,1-3.032-1.358,7.058,7.058,0,0,1-1.02-4.056V-7.409a7.271,7.271,0,0,1,.976-4.192,3.5,3.5,0,0,1,3.059-1.371,3.528,3.528,0,0,1,3.041,1.323,7.017,7.017,0,0,1,1,4.083Zm-1.626-2.224a5.958,5.958,0,0,0-.58-3.01,2,2,0,0,0-1.837-.945,1.97,1.97,0,0,0-1.819.94A5.817,5.817,0,0,0-38.017-7.8v2.6a6.053,6.053,0,0,0,.6,3.063,1.993,1.993,0,0,0,1.824.989A1.966,1.966,0,0,0-33.8-2.083a5.834,5.834,0,0,0,.611-2.936Zm7.066,1.644,2.109-3.472h1.9l-3.111,4.7L-22.021,0H-23.9l-2.2-3.56L-28.3,0h-1.89l3.208-4.808-3.111-4.7h1.881ZM-12.8-9.457a2.972,2.972,0,0,1-.505,1.705,3.439,3.439,0,0,1-1.367,1.169,3.668,3.668,0,0,1,1.586,1.257A3.163,3.163,0,0,1-12.5-3.454,3.344,3.344,0,0,1-13.623-.809a4.305,4.305,0,0,1-2.949.984,4.286,4.286,0,0,1-2.958-.989,3.36,3.36,0,0,1-1.112-2.641,3.257,3.257,0,0,1,.567-1.872,3.528,3.528,0,0,1,1.569-1.266A3.354,3.354,0,0,1-19.85-7.761a3.014,3.014,0,0,1-.492-1.7,3.308,3.308,0,0,1,1.037-2.566,3.89,3.89,0,0,1,2.733-.949,3.894,3.894,0,0,1,2.729.949A3.3,3.3,0,0,1-12.8-9.457Zm-1.327,5.968a2.359,2.359,0,0,0-.681-1.749,2.416,2.416,0,0,0-1.78-.677,2.373,2.373,0,0,0-1.762.668,2.385,2.385,0,0,0-.664,1.758,2.271,2.271,0,0,0,.646,1.714,2.48,2.48,0,0,0,1.8.624,2.472,2.472,0,0,0,1.793-.628A2.266,2.266,0,0,0-14.128-3.489Zm-2.443-8.147a2.1,2.1,0,0,0-1.551.593,2.179,2.179,0,0,0-.593,1.613,2.169,2.169,0,0,0,.584,1.578,2.074,2.074,0,0,0,1.56.6,2.074,2.074,0,0,0,1.56-.6,2.169,2.169,0,0,0,.584-1.578,2.17,2.17,0,0,0-.606-1.591A2.068,2.068,0,0,0-16.572-11.637Zm14.379-.246L-7.493,0H-9.2l5.282-11.461h-6.926V-12.8h8.648Zm8.227-.923v1.38h-.3A4.281,4.281,0,0,0,2.711-10.3a4.681,4.681,0,0,0-1.3,3.067,3.471,3.471,0,0,1,2.76-1.16A3.319,3.319,0,0,1,6.838-7.216a4.543,4.543,0,0,1,1,3.041A4.528,4.528,0,0,1,6.759-1.011,3.707,3.707,0,0,1,3.872.176,3.653,3.653,0,0,1,.892-1.235,5.591,5.591,0,0,1-.25-4.869v-.624a8.424,8.424,0,0,1,1.507-5.4,5.536,5.536,0,0,1,4.487-1.912ZM3.9-7.04a2.594,2.594,0,0,0-1.538.5,2.61,2.61,0,0,0-.976,1.257v.6A4.2,4.2,0,0,0,2.1-2.136a2.133,2.133,0,0,0,1.775.967A2.067,2.067,0,0,0,5.6-1.978,3.355,3.355,0,0,0,6.227-4.1,3.356,3.356,0,0,0,5.59-6.227,2.042,2.042,0,0,0,3.9-7.04Zm6.609.624.65-6.381h6.557v1.5H12.538L12.151-7.8a4.13,4.13,0,0,1,2.136-.554A3.531,3.531,0,0,1,17.064-7.2a4.53,4.53,0,0,1,1.028,3.125A4.372,4.372,0,0,1,17.024-.962,3.892,3.892,0,0,1,14.041.176a4.045,4.045,0,0,1-2.769-.94,3.754,3.754,0,0,1-1.222-2.6h1.538a2.582,2.582,0,0,0,.782,1.657,2.432,2.432,0,0,0,1.67.558,2.194,2.194,0,0,0,1.78-.773,3.233,3.233,0,0,0,.646-2.136,2.968,2.968,0,0,0-.7-2.061A2.377,2.377,0,0,0,13.909-6.9a2.681,2.681,0,0,0-1.67.466l-.431.352ZM27.356-3.349H21.995L20.791,0H19.05l4.887-12.8h1.477L30.309,0H28.578ZM22.5-4.729h4.351l-2.18-5.985Zm11.47-2.461H35.2A2.685,2.685,0,0,0,37.006-7.8a2.026,2.026,0,0,0,.659-1.591,1.985,1.985,0,0,0-2.241-2.25,2.331,2.331,0,0,0-1.683.6,2.107,2.107,0,0,0-.628,1.6H31.487A3.264,3.264,0,0,1,32.6-11.966a4.05,4.05,0,0,1,2.826-1.006,4,4,0,0,1,2.839.958,3.461,3.461,0,0,1,1.028,2.663,2.809,2.809,0,0,1-.541,1.617,3.264,3.264,0,0,1-1.472,1.169,3.145,3.145,0,0,1,1.63,1.107,3.076,3.076,0,0,1,.576,1.89A3.491,3.491,0,0,1,38.36-.835,4.213,4.213,0,0,1,35.433.176,4.324,4.324,0,0,1,32.5-.8a3.236,3.236,0,0,1-1.129-2.575h1.635a2.092,2.092,0,0,0,.659,1.617,2.507,2.507,0,0,0,1.767.606,2.46,2.46,0,0,0,1.8-.615,2.371,2.371,0,0,0,.624-1.767,2.151,2.151,0,0,0-.686-1.714A2.987,2.987,0,0,0,35.2-5.862H33.974Z" transform="translate(913 2133)" fill="#21214b"/>
    <path id="Trazado_102869" data-name="Trazado 102869" d="M-12.564,0a2.821,2.821,0,0,1-.255-.853,3.073,3.073,0,0,1-2.4,1.028,3.376,3.376,0,0,1-2.316-.809,2.6,2.6,0,0,1-.918-2.039,2.687,2.687,0,0,1,1.121-2.32,5.529,5.529,0,0,1,3.239-.817h1.169v-.545a1.567,1.567,0,0,0-.338-1.055,1.331,1.331,0,0,0-1.068-.4,1.513,1.513,0,0,0-1.006.308,1.045,1.045,0,0,0-.365.844h-2.54a2.551,2.551,0,0,1,.51-1.529,3.37,3.37,0,0,1,1.441-1.1,5.253,5.253,0,0,1,2.092-.4,4.15,4.15,0,0,1,2.791.883,3.09,3.09,0,0,1,1.033,2.483V-2.2A4.546,4.546,0,0,0-10-.149V0Zm-2.1-1.767a2.188,2.188,0,0,0,1.037-.25,1.645,1.645,0,0,0,.7-.672V-4.324h-.949q-1.907,0-2.03,1.318l-.009.149a1.017,1.017,0,0,0,.334.782A1.3,1.3,0,0,0-14.665-1.767ZM-5.744,0H-8.292V-13.5h2.549ZM-.971,0H-3.52V-9.51H-.971Zm-2.7-11.971a1.251,1.251,0,0,1,.382-.94,1.436,1.436,0,0,1,1.042-.369,1.44,1.44,0,0,1,1.037.369,1.244,1.244,0,0,1,.387.94,1.247,1.247,0,0,1-.391.949,1.443,1.443,0,0,1-1.033.369,1.443,1.443,0,0,1-1.033-.369A1.247,1.247,0,0,1-3.669-11.971ZM6.631,0a2.821,2.821,0,0,1-.255-.853A3.073,3.073,0,0,1,3.977.176,3.376,3.376,0,0,1,1.661-.633,2.6,2.6,0,0,1,.743-2.672a2.687,2.687,0,0,1,1.121-2.32A5.529,5.529,0,0,1,5.1-5.81H6.271v-.545a1.567,1.567,0,0,0-.338-1.055,1.331,1.331,0,0,0-1.068-.4A1.513,1.513,0,0,0,3.858-7.5a1.045,1.045,0,0,0-.365.844H.954a2.551,2.551,0,0,1,.51-1.529A3.37,3.37,0,0,1,2.9-9.286,5.253,5.253,0,0,1,5-9.686,4.15,4.15,0,0,1,7.787-8.8,3.09,3.09,0,0,1,8.82-6.319V-2.2A4.546,4.546,0,0,0,9.2-.149V0Zm-2.1-1.767a2.188,2.188,0,0,0,1.037-.25,1.645,1.645,0,0,0,.7-.672V-4.324H5.322q-1.907,0-2.03,1.318l-.009.149a1.017,1.017,0,0,0,.334.782A1.3,1.3,0,0,0,4.531-1.767Zm11.391-.861a.818.818,0,0,0-.461-.734,5.241,5.241,0,0,0-1.481-.479q-3.393-.712-3.393-2.883a2.613,2.613,0,0,1,1.05-2.114,4.237,4.237,0,0,1,2.747-.848,4.56,4.56,0,0,1,2.9.853,2.687,2.687,0,0,1,1.085,2.215h-2.54a1.229,1.229,0,0,0-.352-.9,1.488,1.488,0,0,0-1.1-.356,1.52,1.52,0,0,0-.993.29.916.916,0,0,0-.352.738.783.783,0,0,0,.4.681,4.114,4.114,0,0,0,1.349.448,11.019,11.019,0,0,1,1.6.426,2.628,2.628,0,0,1,2.013,2.558,2.481,2.481,0,0,1-1.116,2.1,4.815,4.815,0,0,1-2.883.8A5.029,5.029,0,0,1,12.27-.25a3.561,3.561,0,0,1-1.455-1.169,2.716,2.716,0,0,1-.527-1.6H12.7a1.326,1.326,0,0,0,.5,1.037,1.987,1.987,0,0,0,1.248.36,1.839,1.839,0,0,0,1.1-.277A.861.861,0,0,0,15.921-2.628Z" transform="translate(913 2031)" fill="#fff"/>
    <g id="Trazado_102875" data-name="Trazado 102875" transform="translate(998 1999)" fill="none">
      <path d="M0,0H143V50H0Z" stroke="none"/>
      <path d="M 1 1 L 1 49 L 142 49 L 142 1 L 1 1 M 0 0 L 143 0 L 143 50 L 0 50 L 0 0 Z" stroke="none" fill="#ffa726"/>
    </g>
    <g id="Trazado_102876" data-name="Trazado 102876" transform="translate(998 2055)" fill="none">
      <path d="M0,0H143V50H0Z" stroke="none"/>
      <path d="M 1 1 L 1 49 L 142 49 L 142 1 L 1 1 M 0 0 L 143 0 L 143 50 L 0 50 L 0 0 Z" stroke="none" fill="#ffa726"/>
    </g>
    <path id="Trazado_102883" data-name="Trazado 102883" d="M-42.552-5.458a7.436,7.436,0,0,1-.976,4.245A3.47,3.47,0,0,1-46.578.176,3.5,3.5,0,0,1-49.61-1.182a7.058,7.058,0,0,1-1.02-4.056V-7.409a7.271,7.271,0,0,1,.976-4.192A3.5,3.5,0,0,1-46.6-12.973a3.528,3.528,0,0,1,3.041,1.323,7.017,7.017,0,0,1,1,4.083Zm-1.626-2.224a5.958,5.958,0,0,0-.58-3.01,2,2,0,0,0-1.837-.945,1.97,1.97,0,0,0-1.819.94A5.817,5.817,0,0,0-49-7.8v2.6a6.053,6.053,0,0,0,.6,3.063,1.993,1.993,0,0,0,1.824.989,1.966,1.966,0,0,0,1.789-.932,5.834,5.834,0,0,0,.611-2.936Zm7.066,1.644L-35-9.51h1.9l-3.111,4.7L-33.007,0h-1.881l-2.2-3.56L-39.283,0h-1.89l3.208-4.808-3.111-4.7h1.881Zm13.219.123h-5.546V-1.38H-23V0h-8.13V-12.8h8.042v1.38h-6.354v4.122h5.546ZM-13.83-3.349h-5.361L-20.4,0h-1.74l4.887-12.8h1.477l4.9,12.8h-1.731Zm-4.852-1.38h4.351l-2.18-5.985Zm9.853-1.687.65-6.381h6.557v1.5H-6.8L-7.185-7.8a4.13,4.13,0,0,1,2.136-.554A3.531,3.531,0,0,1-2.272-7.2,4.53,4.53,0,0,1-1.244-4.078,4.372,4.372,0,0,1-2.312-.962,3.892,3.892,0,0,1-5.3.176a4.045,4.045,0,0,1-2.769-.94,3.754,3.754,0,0,1-1.222-2.6h1.538a2.582,2.582,0,0,0,.782,1.657,2.432,2.432,0,0,0,1.67.558,2.194,2.194,0,0,0,1.78-.773A3.233,3.233,0,0,0-2.87-4.061a2.968,2.968,0,0,0-.7-2.061A2.377,2.377,0,0,0-5.427-6.9a2.681,2.681,0,0,0-1.67.466l-.431.352Zm15.741-6.39v1.38h-.3A4.281,4.281,0,0,0,3.59-10.3a4.681,4.681,0,0,0-1.3,3.067,3.471,3.471,0,0,1,2.76-1.16A3.319,3.319,0,0,1,7.717-7.216a4.543,4.543,0,0,1,1,3.041A4.528,4.528,0,0,1,7.638-1.011,3.707,3.707,0,0,1,4.75.176,3.653,3.653,0,0,1,1.771-1.235,5.591,5.591,0,0,1,.628-4.869v-.624a8.424,8.424,0,0,1,1.507-5.4,5.536,5.536,0,0,1,4.487-1.912ZM4.777-7.04a2.594,2.594,0,0,0-1.538.5,2.61,2.61,0,0,0-.976,1.257v.6a4.2,4.2,0,0,0,.712,2.549,2.133,2.133,0,0,0,1.775.967,2.067,2.067,0,0,0,1.727-.809A3.355,3.355,0,0,0,7.106-4.1a3.356,3.356,0,0,0-.637-2.131A2.042,2.042,0,0,0,4.777-7.04ZM18.9-11.883,13.6,0H11.9l5.282-11.461H10.252V-12.8H18.9Zm9.606,2.426A2.972,2.972,0,0,1,28-7.752a3.439,3.439,0,0,1-1.367,1.169,3.668,3.668,0,0,1,1.586,1.257,3.163,3.163,0,0,1,.584,1.872A3.344,3.344,0,0,1,27.686-.809a4.305,4.305,0,0,1-2.949.984,4.286,4.286,0,0,1-2.958-.989,3.36,3.36,0,0,1-1.112-2.641,3.257,3.257,0,0,1,.567-1.872A3.528,3.528,0,0,1,22.8-6.592a3.354,3.354,0,0,1-1.345-1.169,3.014,3.014,0,0,1-.492-1.7A3.308,3.308,0,0,1,22-12.023a3.89,3.89,0,0,1,2.733-.949,3.894,3.894,0,0,1,2.729.949A3.3,3.3,0,0,1,28.507-9.457ZM27.18-3.489A2.359,2.359,0,0,0,26.5-5.238a2.416,2.416,0,0,0-1.78-.677,2.373,2.373,0,0,0-1.762.668,2.385,2.385,0,0,0-.664,1.758,2.271,2.271,0,0,0,.646,1.714,2.48,2.48,0,0,0,1.8.624A2.472,2.472,0,0,0,26.53-1.78,2.266,2.266,0,0,0,27.18-3.489Zm-2.443-8.147a2.1,2.1,0,0,0-1.551.593,2.179,2.179,0,0,0-.593,1.613,2.169,2.169,0,0,0,.584,1.578,2.074,2.074,0,0,0,1.56.6,2.074,2.074,0,0,0,1.56-.6,2.169,2.169,0,0,0,.584-1.578,2.17,2.17,0,0,0-.606-1.591A2.068,2.068,0,0,0,24.737-11.637ZM38.342-3.349H32.981L31.777,0h-1.74l4.887-12.8H36.4L41.3,0H39.564Zm-4.852-1.38h4.351l-2.18-5.985ZM44.96-7.189h1.222A2.685,2.685,0,0,0,47.993-7.8a2.026,2.026,0,0,0,.659-1.591,1.985,1.985,0,0,0-2.241-2.25,2.331,2.331,0,0,0-1.683.6,2.107,2.107,0,0,0-.628,1.6H42.473a3.264,3.264,0,0,1,1.112-2.527,4.05,4.05,0,0,1,2.826-1.006,4,4,0,0,1,2.839.958,3.461,3.461,0,0,1,1.028,2.663,2.809,2.809,0,0,1-.541,1.617,3.264,3.264,0,0,1-1.472,1.169A3.145,3.145,0,0,1,49.9-5.458a3.076,3.076,0,0,1,.576,1.89A3.491,3.491,0,0,1,49.346-.835,4.213,4.213,0,0,1,46.419.176,4.324,4.324,0,0,1,43.488-.8a3.236,3.236,0,0,1-1.129-2.575h1.635a2.092,2.092,0,0,0,.659,1.617,2.507,2.507,0,0,0,1.767.606,2.46,2.46,0,0,0,1.8-.615,2.371,2.371,0,0,0,.624-1.767,2.151,2.151,0,0,0-.686-1.714,2.987,2.987,0,0,0-1.978-.615H44.96Z" transform="translate(1070 2133)" fill="#21214b"/>
    <path id="Trazado_102889" data-name="Trazado 102889" d="M0,0H143V50H0Z" transform="translate(1158 1999)" fill="#039be5"/>
    <g id="Trazado_102890" data-name="Trazado 102890" transform="translate(1158 2055)" fill="none">
      <path d="M0,0H143V50H0Z" stroke="none"/>
      <path d="M 1 1 L 1 49 L 142 49 L 142 1 L 1 1 M 0 0 L 143 0 L 143 50 L 0 50 L 0 0 Z" stroke="none" fill="#039be5"/>
    </g>
    <path id="Trazado_102891" data-name="Trazado 102891" d="M-40.768-5.458a7.436,7.436,0,0,1-.976,4.245A3.47,3.47,0,0,1-44.793.176a3.5,3.5,0,0,1-3.032-1.358,7.058,7.058,0,0,1-1.02-4.056V-7.409A7.271,7.271,0,0,1-47.87-11.6a3.5,3.5,0,0,1,3.059-1.371A3.528,3.528,0,0,1-41.77-11.65a7.017,7.017,0,0,1,1,4.083Zm-1.626-2.224a5.958,5.958,0,0,0-.58-3.01,2,2,0,0,0-1.837-.945,1.97,1.97,0,0,0-1.819.94A5.817,5.817,0,0,0-47.219-7.8v2.6a6.053,6.053,0,0,0,.6,3.063,1.993,1.993,0,0,0,1.824.989A1.966,1.966,0,0,0-43-2.083a5.834,5.834,0,0,0,.611-2.936Zm7.066,1.644,2.109-3.472h1.9l-3.111,4.7L-31.223,0H-33.1l-2.2-3.56L-37.5,0h-1.89l3.208-4.808-3.111-4.7h1.881Zm13.043.387h-5.37V0h-1.687V-12.8h7.928v1.38h-6.24v4.386h5.37Zm10.494.193a7.436,7.436,0,0,1-.976,4.245A3.47,3.47,0,0,1-15.816.176a3.5,3.5,0,0,1-3.032-1.358,7.058,7.058,0,0,1-1.02-4.056V-7.409a7.271,7.271,0,0,1,.976-4.192,3.5,3.5,0,0,1,3.059-1.371,3.528,3.528,0,0,1,3.041,1.323,7.017,7.017,0,0,1,1,4.083Zm-1.626-2.224a5.958,5.958,0,0,0-.58-3.01,2,2,0,0,0-1.837-.945,1.97,1.97,0,0,0-1.819.94A5.817,5.817,0,0,0-18.242-7.8v2.6a6.053,6.053,0,0,0,.6,3.063,1.993,1.993,0,0,0,1.824.989,1.966,1.966,0,0,0,1.789-.932,5.834,5.834,0,0,0,.611-2.936Zm9.94,2.057a3.978,3.978,0,0,1-1.217.976,3.3,3.3,0,0,1-1.551.369,3.41,3.41,0,0,1-1.929-.545,3.543,3.543,0,0,1-1.27-1.534,5.229,5.229,0,0,1-.448-2.184A5.327,5.327,0,0,1-9.4-10.854,3.583,3.583,0,0,1-8.02-12.428a3.947,3.947,0,0,1,2.092-.545,3.574,3.574,0,0,1,2.993,1.419A6.191,6.191,0,0,1-1.841-7.682v.475q0,3.735-1.477,5.454A5.673,5.673,0,0,1-7.774.009H-8.09v-1.38h.343A4.476,4.476,0,0,0-4.654-2.419,4.5,4.5,0,0,0-3.476-5.625Zm-2.5,0a2.511,2.511,0,0,0,1.507-.5A2.953,2.953,0,0,0-3.467-7.365v-.65a4.474,4.474,0,0,0-.694-2.6,2.072,2.072,0,0,0-1.758-1,2.088,2.088,0,0,0-1.723.822,3.39,3.39,0,0,0-.65,2.167,3.528,3.528,0,0,0,.628,2.158A1.99,1.99,0,0,0-5.981-5.625ZM8.161-9.457a2.972,2.972,0,0,1-.505,1.705A3.439,3.439,0,0,1,6.289-6.583,3.668,3.668,0,0,1,7.875-5.326a3.163,3.163,0,0,1,.584,1.872A3.344,3.344,0,0,1,7.339-.809,4.305,4.305,0,0,1,4.39.176,4.286,4.286,0,0,1,1.433-.813,3.36,3.36,0,0,1,.321-3.454,3.257,3.257,0,0,1,.888-5.326,3.528,3.528,0,0,1,2.457-6.592,3.354,3.354,0,0,1,1.112-7.761a3.014,3.014,0,0,1-.492-1.7,3.308,3.308,0,0,1,1.037-2.566,3.89,3.89,0,0,1,2.733-.949,3.894,3.894,0,0,1,2.729.949A3.3,3.3,0,0,1,8.161-9.457ZM6.833-3.489a2.359,2.359,0,0,0-.681-1.749,2.416,2.416,0,0,0-1.78-.677,2.373,2.373,0,0,0-1.762.668,2.385,2.385,0,0,0-.664,1.758,2.271,2.271,0,0,0,.646,1.714,2.48,2.48,0,0,0,1.8.624A2.472,2.472,0,0,0,6.183-1.78,2.266,2.266,0,0,0,6.833-3.489ZM4.39-11.637a2.1,2.1,0,0,0-1.551.593,2.179,2.179,0,0,0-.593,1.613A2.169,2.169,0,0,0,2.83-7.853a2.074,2.074,0,0,0,1.56.6,2.074,2.074,0,0,0,1.56-.6,2.169,2.169,0,0,0,.584-1.578,2.17,2.17,0,0,0-.606-1.591A2.068,2.068,0,0,0,4.39-11.637Zm13.6,5.985h-5.37V0H10.929V-12.8h7.928v1.38h-6.24v4.386h5.37Zm8.464,2.3H21.089L19.885,0h-1.74l4.887-12.8h1.477L29.4,0H27.672ZM21.6-4.729H25.95l-2.18-5.985Zm15.486-8.077v1.38h-.3A4.281,4.281,0,0,0,33.763-10.3a4.681,4.681,0,0,0-1.3,3.067,3.471,3.471,0,0,1,2.76-1.16A3.319,3.319,0,0,1,37.89-7.216a4.543,4.543,0,0,1,1,3.041,4.528,4.528,0,0,1-1.077,3.164A3.707,3.707,0,0,1,34.923.176a3.653,3.653,0,0,1-2.979-1.411A5.591,5.591,0,0,1,30.8-4.869v-.624a8.424,8.424,0,0,1,1.507-5.4A5.536,5.536,0,0,1,36.8-12.806ZM34.95-7.04a2.594,2.594,0,0,0-1.538.5,2.61,2.61,0,0,0-.976,1.257v.6a4.2,4.2,0,0,0,.712,2.549,2.133,2.133,0,0,0,1.775.967,2.067,2.067,0,0,0,1.727-.809A3.355,3.355,0,0,0,37.279-4.1a3.356,3.356,0,0,0-.637-2.131A2.042,2.042,0,0,0,34.95-7.04ZM47.043-5.625a3.978,3.978,0,0,1-1.217.976,3.3,3.3,0,0,1-1.551.369,3.41,3.41,0,0,1-1.929-.545,3.543,3.543,0,0,1-1.27-1.534,5.229,5.229,0,0,1-.448-2.184,5.327,5.327,0,0,1,.488-2.312A3.583,3.583,0,0,1,42.5-12.428a3.947,3.947,0,0,1,2.092-.545,3.574,3.574,0,0,1,2.993,1.419,6.191,6.191,0,0,1,1.094,3.872v.475q0,3.735-1.477,5.454A5.673,5.673,0,0,1,42.746.009h-.316v-1.38h.343a4.476,4.476,0,0,0,3.094-1.048A4.5,4.5,0,0,0,47.043-5.625Zm-2.5,0a2.511,2.511,0,0,0,1.507-.5,2.953,2.953,0,0,0,1.006-1.239v-.65a4.474,4.474,0,0,0-.694-2.6,2.072,2.072,0,0,0-1.758-1,2.088,2.088,0,0,0-1.723.822,3.39,3.39,0,0,0-.65,2.167,3.528,3.528,0,0,0,.628,2.158A1.99,1.99,0,0,0,44.539-5.625Z" transform="translate(1230 2133)" fill="#21214b"/>
    <path id="Trazado_102893" data-name="Trazado 102893" d="M-29.584-11.848V-9.51h1.626v1.863h-1.626V-2.9a1.133,1.133,0,0,0,.2.756,1.015,1.015,0,0,0,.773.229,4.051,4.051,0,0,0,.747-.062V-.053A5.229,5.229,0,0,1-29.4.176a2.425,2.425,0,0,1-2.725-2.7V-7.646h-1.389V-9.51h1.389v-2.338ZM-22.166.176a4.668,4.668,0,0,1-3.406-1.283,4.561,4.561,0,0,1-1.314-3.419v-.246a5.745,5.745,0,0,1,.554-2.562,4.064,4.064,0,0,1,1.569-1.74,4.4,4.4,0,0,1,2.316-.611,3.947,3.947,0,0,1,3.072,1.23,5,5,0,0,1,1.121,3.489v1.037h-6.056a2.36,2.36,0,0,0,.743,1.494A2.245,2.245,0,0,0-22-1.872a2.742,2.742,0,0,0,2.294-1.063l1.248,1.4A3.813,3.813,0,0,1-20-.277,5.075,5.075,0,0,1-22.166.176Zm-.29-7.813a1.587,1.587,0,0,0-1.226.512,2.651,2.651,0,0,0-.6,1.466h3.533v-.2a1.891,1.891,0,0,0-.457-1.311A1.638,1.638,0,0,0-22.456-7.638ZM-14.133,0h-2.549V-13.5h2.549Zm6.469.176A4.668,4.668,0,0,1-11.07-1.107a4.561,4.561,0,0,1-1.314-3.419v-.246a5.745,5.745,0,0,1,.554-2.562,4.064,4.064,0,0,1,1.569-1.74,4.4,4.4,0,0,1,2.316-.611,3.947,3.947,0,0,1,3.072,1.23A5,5,0,0,1-3.753-4.966v1.037H-9.809a2.36,2.36,0,0,0,.743,1.494A2.245,2.245,0,0,0-7.5-1.872,2.742,2.742,0,0,0-5.2-2.936l1.248,1.4A3.813,3.813,0,0,1-5.5-.277,5.075,5.075,0,0,1-7.664.176Zm-.29-7.813a1.587,1.587,0,0,0-1.226.512,2.651,2.651,0,0,0-.6,1.466h3.533v-.2a1.891,1.891,0,0,0-.457-1.311A1.638,1.638,0,0,0-7.954-7.638ZM-1.617,0V-7.646H-3.032V-9.51h1.415v-.809A3.283,3.283,0,0,1-.7-12.8a3.557,3.557,0,0,1,2.571-.883,5.987,5.987,0,0,1,1.292.174l-.026,1.953a3.238,3.238,0,0,0-.773-.079q-1.433,0-1.433,1.356v.771h1.89v1.863H.932V0ZM3.744-4.843a5.64,5.64,0,0,1,.545-2.522A3.989,3.989,0,0,1,5.858-9.079a4.577,4.577,0,0,1,2.377-.606,4.33,4.33,0,0,1,3.142,1.178,4.727,4.727,0,0,1,1.358,3.2l.018.65a4.97,4.97,0,0,1-1.222,3.511A4.247,4.247,0,0,1,8.253.176,4.268,4.268,0,0,1,4.97-1.143,5.058,5.058,0,0,1,3.744-4.729Zm2.54.18a3.555,3.555,0,0,0,.51,2.073,1.682,1.682,0,0,0,1.459.717,1.686,1.686,0,0,0,1.441-.709,3.89,3.89,0,0,0,.519-2.267,3.519,3.519,0,0,0-.519-2.06,1.686,1.686,0,0,0-1.459-.731,1.658,1.658,0,0,0-1.441.726A3.955,3.955,0,0,0,6.284-4.662ZM16.655-9.51l.079,1.1a3.32,3.32,0,0,1,2.733-1.274,2.759,2.759,0,0,1,2.25.888,4.142,4.142,0,0,1,.756,2.654V0h-2.54V-6.1a1.654,1.654,0,0,0-.352-1.176,1.572,1.572,0,0,0-1.169-.366,1.747,1.747,0,0,0-1.608.916V0h-2.54V-9.51ZM24-4.843a5.64,5.64,0,0,1,.545-2.522,3.989,3.989,0,0,1,1.569-1.714,4.577,4.577,0,0,1,2.377-.606,4.33,4.33,0,0,1,3.142,1.178,4.727,4.727,0,0,1,1.358,3.2l.018.65A4.97,4.97,0,0,1,31.79-1.147,4.247,4.247,0,0,1,28.512.176a4.268,4.268,0,0,1-3.283-1.318A5.058,5.058,0,0,1,24-4.729Zm2.54.18a3.555,3.555,0,0,0,.51,2.073,1.682,1.682,0,0,0,1.459.717,1.686,1.686,0,0,0,1.441-.709,3.89,3.89,0,0,0,.519-2.267,3.519,3.519,0,0,0-.519-2.06,1.686,1.686,0,0,0-1.459-.731,1.658,1.658,0,0,0-1.441.726A3.955,3.955,0,0,0,26.543-4.662Z" transform="translate(1230 2031)" fill="#fff"/>
  </g>
</svg>
