<svg xmlns="http://www.w3.org/2000/svg" width="1228" height="619" viewBox="0 0 1228 619">
  <g id="Grupo_57420" data-name="Grupo 57420" transform="translate(-180 -1577)">
    <rect id="Rectángulo_6680" data-name="Rectángulo 6680" width="1228" height="619" transform="translate(180 1577)" fill="#f3f9ff"/>
    <rect id="Rectángulo_6681" data-name="Rectángulo 6681" width="143" height="50" transform="translate(210 1633)" fill="#039be5"/>
    <text id="Nombre" transform="translate(282 1664)" fill="#fff" font-size="18" font-family="Roboto-Bold, Roboto" font-weight="700"><tspan x="-31.052" y="0">nombre</tspan></text>
    <g id="Rectángulo_6682" data-name="Rectángulo 6682" transform="translate(210 1689)" fill="none" stroke="#039be5" stroke-width="1">
      <rect width="143" height="50" stroke="none"/>
      <rect x="0.5" y="0.5" width="142" height="49" fill="none"/>
    </g>
    <text id="_0x3456" data-name="0x3456" transform="translate(282 1767)" fill="#21214b" font-size="18" font-family="Roboto-Regular, Roboto"><tspan x="-29.729" y="0">0x3456</tspan></text>
    <g id="Rectángulo_6683" data-name="Rectángulo 6683" transform="translate(367 1633)" fill="none" stroke="#ffa726" stroke-width="1">
      <rect width="143" height="50" stroke="none"/>
      <rect x="0.5" y="0.5" width="142" height="49" fill="none"/>
    </g>
    <g id="Rectángulo_6684" data-name="Rectángulo 6684" transform="translate(367 1689)" fill="none" stroke="#ffa726" stroke-width="1">
      <rect width="143" height="50" stroke="none"/>
      <rect x="0.5" y="0.5" width="142" height="49" fill="none"/>
    </g>
    <text id="_0xXXXX" data-name="0xXXXX" transform="translate(439 1767)" fill="#21214b" font-size="18" font-family="Roboto-Regular, Roboto"><tspan x="-32.084" y="0">0xXXXX</tspan></text>
    <rect id="Rectángulo_6685" data-name="Rectángulo 6685" width="213" height="50" transform="translate(526 1633)" fill="#039be5"/>
    <text id="NumeroAccesoRapido" transform="translate(633 1664)" fill="#fff" font-size="18" font-family="Roboto-Bold, Roboto" font-weight="700"><tspan x="-90.466" y="0">NumeroAccesoRapido</tspan></text>
    <g id="Rectángulo_6686" data-name="Rectángulo 6686" transform="translate(526 1689)" fill="none" stroke="#039be5" stroke-width="1">
      <rect width="213" height="50" stroke="none"/>
      <rect x="0.5" y="0.5" width="212" height="49" fill="none"/>
    </g>
    <text id="_0x9452" data-name="0x9452" transform="translate(635 1767)" fill="#21214b" font-size="18" font-family="Roboto-Regular, Roboto"><tspan x="-29.729" y="0">0x9452</tspan></text>
    <g id="Rectángulo_6687" data-name="Rectángulo 6687" transform="translate(753 1633)" fill="none" stroke="#ffa726" stroke-width="1">
      <rect width="143" height="50" stroke="none"/>
      <rect x="0.5" y="0.5" width="142" height="49" fill="none"/>
    </g>
    <g id="Rectángulo_6688" data-name="Rectángulo 6688" transform="translate(753 1689)" fill="none" stroke="#ffa726" stroke-width="1">
      <rect width="143" height="50" stroke="none"/>
      <rect x="0.5" y="0.5" width="142" height="49" fill="none"/>
    </g>
    <text id="_0xXXXX-2" data-name="0xXXXX" transform="translate(825 1767)" fill="#21214b" font-size="18" font-family="Roboto-Regular, Roboto"><tspan x="-32.084" y="0">0xXXXX</tspan></text>
    <g id="Rectángulo_6689" data-name="Rectángulo 6689" transform="translate(912 1633)" fill="none" stroke="#ffa726" stroke-width="1">
      <rect width="143" height="50" stroke="none"/>
      <rect x="0.5" y="0.5" width="142" height="49" fill="none"/>
    </g>
    <g id="Rectángulo_6690" data-name="Rectángulo 6690" transform="translate(912 1689)" fill="none" stroke="#ffa726" stroke-width="1">
      <rect width="143" height="50" stroke="none"/>
      <rect x="0.5" y="0.5" width="142" height="49" fill="none"/>
    </g>
    <text id="_0xA421" data-name="0xA421" transform="translate(985 1767)" fill="#21214b" font-size="18" font-family="Roboto-Regular, Roboto"><tspan x="-30.546" y="0">0xA421</tspan></text>
    <g id="Rectángulo_6691" data-name="Rectángulo 6691" transform="translate(1071 1633)" fill="none" stroke="#ffa726" stroke-width="1">
      <rect width="143" height="50" stroke="none"/>
      <rect x="0.5" y="0.5" width="142" height="49" fill="none"/>
    </g>
    <g id="Rectángulo_6692" data-name="Rectángulo 6692" transform="translate(1071 1689)" fill="none" stroke="#ffa726" stroke-width="1">
      <rect width="143" height="50" stroke="none"/>
      <rect x="0.5" y="0.5" width="142" height="49" fill="none"/>
    </g>
    <text id="_0xXXXX-3" data-name="0xXXXX" transform="translate(1143 1767)" fill="#21214b" font-size="18" font-family="Roboto-Regular, Roboto"><tspan x="-32.084" y="0">0xXXXX</tspan></text>
    <rect id="Rectángulo_6693" data-name="Rectángulo 6693" width="143" height="50" transform="translate(1230 1633)" fill="#039be5"/>
    <text id="APELLIDO" transform="translate(1302 1664)" fill="#fff" font-size="18" font-family="Roboto-Bold, Roboto" font-weight="700"><tspan x="-32.076" y="0">apellido</tspan></text>
    <g id="Rectángulo_6694" data-name="Rectángulo 6694" transform="translate(1230 1689)" fill="none" stroke="#039be5" stroke-width="1">
      <rect width="143" height="50" stroke="none"/>
      <rect x="0.5" y="0.5" width="142" height="49" fill="none"/>
    </g>
    <text id="_0xAc01" data-name="0xAc01" transform="translate(1302 1767)" fill="#21214b" font-size="18" font-family="Roboto-Regular, Roboto"><tspan x="-30.204" y="0">0xAc01</tspan></text>
    <g id="Rectángulo_6695" data-name="Rectángulo 6695" transform="translate(367 1816)" fill="none" stroke="#ffa726" stroke-width="1">
      <rect width="143" height="50" stroke="none"/>
      <rect x="0.5" y="0.5" width="142" height="49" fill="none"/>
    </g>
    <g id="Rectángulo_6696" data-name="Rectángulo 6696" transform="translate(367 1872)" fill="none" stroke="#ffa726" stroke-width="1">
      <rect width="143" height="50" stroke="none"/>
      <rect x="0.5" y="0.5" width="142" height="49" fill="none"/>
    </g>
    <text id="_0xXXXX-4" data-name="0xXXXX" transform="translate(439 1950)" fill="#21214b" font-size="18" font-family="Roboto-Regular, Roboto"><tspan x="-32.084" y="0">0xXXXX</tspan></text>
    <g id="Rectángulo_6697" data-name="Rectángulo 6697" transform="translate(210 1816)" fill="none" stroke="#ffa726" stroke-width="1">
      <rect width="143" height="50" stroke="none"/>
      <rect x="0.5" y="0.5" width="142" height="49" fill="none"/>
    </g>
    <g id="Rectángulo_6698" data-name="Rectángulo 6698" transform="translate(210 1872)" fill="none" stroke="#ffa726" stroke-width="1">
      <rect width="143" height="50" stroke="none"/>
      <rect x="0.5" y="0.5" width="142" height="49" fill="none"/>
    </g>
    <text id="_0xXXXX-5" data-name="0xXXXX" transform="translate(282 1950)" fill="#21214b" font-size="18" font-family="Roboto-Regular, Roboto"><tspan x="-32.084" y="0">0xXXXX</tspan></text>
    <rect id="Rectángulo_6699" data-name="Rectángulo 6699" width="143" height="50" transform="translate(683 1816)" fill="#039be5"/>
    <g id="Rectángulo_6700" data-name="Rectángulo 6700" transform="translate(683 1872)" fill="none" stroke="#039be5" stroke-width="1">
      <rect width="143" height="50" stroke="none"/>
      <rect x="0.5" y="0.5" width="142" height="49" fill="none"/>
    </g>
    <text id="_0xDc0F" data-name="0xDc0F" transform="translate(755 1950)" fill="#21214b" font-size="18" font-family="Roboto-Regular, Roboto"><tspan x="-30.155" y="0">0xDc0F</tspan></text>
    <g id="Rectángulo_6701" data-name="Rectángulo 6701" transform="translate(526 1816)" fill="none" stroke="#ffa726" stroke-width="1">
      <rect width="143" height="50" stroke="none"/>
      <rect x="0.5" y="0.5" width="142" height="49" fill="none"/>
    </g>
    <g id="Rectángulo_6702" data-name="Rectángulo 6702" transform="translate(526 1872)" fill="none" stroke="#ffa726" stroke-width="1">
      <rect width="143" height="50" stroke="none"/>
      <rect x="0.5" y="0.5" width="142" height="49" fill="none"/>
    </g>
    <text id="_0xXXXX-6" data-name="0xXXXX" transform="translate(598 1950)" fill="#21214b" font-size="18" font-family="Roboto-Regular, Roboto"><tspan x="-32.084" y="0">0xXXXX</tspan></text>
    <text id="Dirección" transform="translate(756 1848)" fill="#fff" font-size="18" font-family="Roboto-Bold, Roboto" font-weight="700"><tspan x="-37.424" y="0">dirección</tspan></text>
    <rect id="Rectángulo_6703" data-name="Rectángulo 6703" width="143" height="50" transform="translate(842 1816)" fill="#039be5"/>
    <g id="Rectángulo_6704" data-name="Rectángulo 6704" transform="translate(842 1872)" fill="none" stroke="#039be5" stroke-width="1">
      <rect width="143" height="50" stroke="none"/>
      <rect x="0.5" y="0.5" width="142" height="49" fill="none"/>
    </g>
    <text id="_0xF83F" data-name="0xF83F" transform="translate(914 1950)" fill="#21214b" font-size="18" font-family="Roboto-Regular, Roboto"><tspan x="-29.571" y="0">0xF83F</tspan></text>
    <text id="Como" transform="translate(914 1848)" fill="#fff" font-size="18" font-family="Roboto-Bold, Roboto" font-weight="700"><tspan x="-22.663" y="0">como</tspan></text>
    <g id="Rectángulo_6705" data-name="Rectángulo 6705" transform="translate(998 1816)" fill="none" stroke="#ffa726" stroke-width="1">
      <rect width="143" height="50" stroke="none"/>
      <rect x="0.5" y="0.5" width="142" height="49" fill="none"/>
    </g>
    <g id="Rectángulo_6706" data-name="Rectángulo 6706" transform="translate(998 1872)" fill="none" stroke="#ffa726" stroke-width="1">
      <rect width="143" height="50" stroke="none"/>
      <rect x="0.5" y="0.5" width="142" height="49" fill="none"/>
    </g>
    <text id="_0xXXXX-7" data-name="0xXXXX" transform="translate(1070 1950)" fill="#21214b" font-size="18" font-family="Roboto-Regular, Roboto"><tspan x="-32.084" y="0">0xXXXX</tspan></text>
    <g id="Rectángulo_6707" data-name="Rectángulo 6707" transform="translate(1157 1816)" fill="none" stroke="#ffa726" stroke-width="1">
      <rect width="143" height="50" stroke="none"/>
      <rect x="0.5" y="0.5" width="142" height="49" fill="none"/>
    </g>
    <g id="Rectángulo_6708" data-name="Rectángulo 6708" transform="translate(1157 1872)" fill="none" stroke="#ffa726" stroke-width="1">
      <rect width="143" height="50" stroke="none"/>
      <rect x="0.5" y="0.5" width="142" height="49" fill="none"/>
    </g>
    <text id="Ox4A7866" transform="translate(1229 1950)" fill="#21214b" font-size="18" font-family="Roboto-Regular, Roboto"><tspan x="-41.788" y="0">Ox4A7866</tspan></text>
    <g id="Rectángulo_6709" data-name="Rectángulo 6709" transform="translate(210 1999)" fill="none" stroke="#ffa726" stroke-width="1">
      <rect width="143" height="50" stroke="none"/>
      <rect x="0.5" y="0.5" width="142" height="49" fill="none"/>
    </g>
    <g id="Rectángulo_6710" data-name="Rectángulo 6710" transform="translate(210 2055)" fill="none" stroke="#ffa726" stroke-width="1">
      <rect width="143" height="50" stroke="none"/>
      <rect x="0.5" y="0.5" width="142" height="49" fill="none"/>
    </g>
    <text id="_0xXXXX-8" data-name="0xXXXX" transform="translate(282 2133)" fill="#21214b" font-size="18" font-family="Roboto-Regular, Roboto"><tspan x="-32.084" y="0">0xXXXX</tspan></text>
    <g id="Rectángulo_6711" data-name="Rectángulo 6711" transform="translate(367 1999)" fill="none" stroke="#ffa726" stroke-width="1">
      <rect width="143" height="50" stroke="none"/>
      <rect x="0.5" y="0.5" width="142" height="49" fill="none"/>
    </g>
    <g id="Rectángulo_6712" data-name="Rectángulo 6712" transform="translate(367 2055)" fill="none" stroke="#ffa726" stroke-width="1">
      <rect width="143" height="50" stroke="none"/>
      <rect x="0.5" y="0.5" width="142" height="49" fill="none"/>
    </g>
    <text id="_0x9350" data-name="0x9350" transform="translate(439 2133)" fill="#21214b" font-size="18" font-family="Roboto-Regular, Roboto"><tspan x="-29.729" y="0">0x9350</tspan></text>
    <rect id="Rectángulo_6713" data-name="Rectángulo 6713" width="143" height="50" transform="translate(524 1999)" fill="#039be5"/>
    <g id="Rectángulo_6714" data-name="Rectángulo 6714" transform="translate(524 2055)" fill="none" stroke="#039be5" stroke-width="1">
      <rect width="143" height="50" stroke="none"/>
      <rect x="0.5" y="0.5" width="142" height="49" fill="none"/>
    </g>
    <text id="_0xC4219" data-name="0xC4219" transform="translate(596 2133)" fill="#21214b" font-size="18" font-family="Roboto-Regular, Roboto"><tspan x="-35.587" y="0">0xC4219</tspan></text>
    <text id="Notas" transform="translate(596 2031)" fill="#fff" font-size="18" font-family="Roboto-Bold, Roboto" font-weight="700"><tspan x="-22.623" y="0">notas</tspan></text>
    <g id="Rectángulo_6715" data-name="Rectángulo 6715" transform="translate(683 1999)" fill="none" stroke="#ffa726" stroke-width="1">
      <rect width="143" height="50" stroke="none"/>
      <rect x="0.5" y="0.5" width="142" height="49" fill="none"/>
    </g>
    <g id="Rectángulo_6716" data-name="Rectángulo 6716" transform="translate(683 2055)" fill="none" stroke="#ffa726" stroke-width="1">
      <rect width="143" height="50" stroke="none"/>
      <rect x="0.5" y="0.5" width="142" height="49" fill="none"/>
    </g>
    <text id="_0xXXXXX" data-name="0xXXXXX" transform="translate(753 2133)" fill="#21214b" font-size="18" font-family="Roboto-Regular, Roboto"><tspan x="-37.727" y="0">0xXXXXX</tspan></text>
    <rect id="Rectángulo_6717" data-name="Rectángulo 6717" width="143" height="50" transform="translate(841 1999)" fill="#039be5"/>
    <g id="Rectángulo_6718" data-name="Rectángulo 6718" transform="translate(841 2055)" fill="none" stroke="#039be5" stroke-width="1">
      <rect width="143" height="50" stroke="none"/>
      <rect x="0.5" y="0.5" width="142" height="49" fill="none"/>
    </g>
    <text id="_0x8765A3" data-name="0x8765A3" transform="translate(913 2133)" fill="#21214b" font-size="18" font-family="Roboto-Regular, Roboto"><tspan x="-40.654" y="0">0x8765A3</tspan></text>
    <text id="Alias" transform="translate(913 2031)" fill="#fff" font-size="18" font-family="Roboto-Bold, Roboto" font-weight="700"><tspan x="-19.05" y="0">alias</tspan></text>
    <g id="Rectángulo_6719" data-name="Rectángulo 6719" transform="translate(998 1999)" fill="none" stroke="#ffa726" stroke-width="1">
      <rect width="143" height="50" stroke="none"/>
      <rect x="0.5" y="0.5" width="142" height="49" fill="none"/>
    </g>
    <g id="Rectángulo_6720" data-name="Rectángulo 6720" transform="translate(998 2055)" fill="none" stroke="#ffa726" stroke-width="1">
      <rect width="143" height="50" stroke="none"/>
      <rect x="0.5" y="0.5" width="142" height="49" fill="none"/>
    </g>
    <text id="_0xEA5678A3" data-name="0xEA5678A3" transform="translate(1070 2133)" fill="#21214b" font-size="18" font-family="Roboto-Regular, Roboto"><tspan x="-51.64" y="0">0xEA5678A3</tspan></text>
    <rect id="Rectángulo_6721" data-name="Rectángulo 6721" width="143" height="50" transform="translate(1158 1999)" fill="#039be5"/>
    <g id="Rectángulo_6722" data-name="Rectángulo 6722" transform="translate(1158 2055)" fill="none" stroke="#039be5" stroke-width="1">
      <rect width="143" height="50" stroke="none"/>
      <rect x="0.5" y="0.5" width="142" height="49" fill="none"/>
    </g>
    <text id="_0xF098FA69" data-name="0xF098FA69" transform="translate(1230 2133)" fill="#21214b" font-size="18" font-family="Roboto-Regular, Roboto"><tspan x="-49.856" y="0">0xF098FA69</tspan></text>
    <text id="Telefono" transform="translate(1230 2031)" fill="#fff" font-size="18" font-family="Roboto-Bold, Roboto" font-weight="700"><tspan x="-33.601" y="0">telefono</tspan></text>
  </g>
</svg>
