<svg xmlns="http://www.w3.org/2000/svg" width="880" height="353.787" viewBox="0 0 880 353.787">
  <g id="Grupo_57423" data-name="Grupo 57423" transform="translate(-374 -6453.26)">
    <path id="Trazado_102797" data-name="Trazado 102797" d="M0,0H292V71H0Z" transform="translate(654 6453.26)" fill="#039be5"/>
    <path id="Trazado_102798" data-name="Trazado 102798" d="M11.32-4.333a4.673,4.673,0,0,1-.721,2.36A4.35,4.35,0,0,1,8.75-.387a6.3,6.3,0,0,1-2.72.563A5.025,5.025,0,0,1,2.057-1.468,6.786,6.786,0,0,1,.606-6.108v-.633a7.746,7.746,0,0,1,.655-3.292,4.961,4.961,0,0,1,1.885-2.18,5.26,5.26,0,0,1,2.848-.769,5.516,5.516,0,0,1,3.744,1.226,4.844,4.844,0,0,1,1.608,3.379H8.271a2.292,2.292,0,0,0-.589-1.679,2.422,2.422,0,0,0-1.687-.51A1.843,1.843,0,0,0,4.307-9.7a5.536,5.536,0,0,0-.562,2.751v.905A6.126,6.126,0,0,0,4.258-3.12a1.882,1.882,0,0,0,1.771.879,2.369,2.369,0,0,0,1.626-.5,2.126,2.126,0,0,0,.6-1.591Zm.949-.51a5.613,5.613,0,0,1,.554-2.536,3.96,3.96,0,0,1,1.591-1.709,4.791,4.791,0,0,1,2.435-.6,4.373,4.373,0,0,1,3.366,1.323,5.076,5.076,0,0,1,1.23,3.6v.105A4.925,4.925,0,0,1,20.21-1.129,4.384,4.384,0,0,1,16.866.176a4.434,4.434,0,0,1-3.261-1.217,4.761,4.761,0,0,1-1.327-3.3Zm2.962.185a3.538,3.538,0,0,0,.413,1.934,1.376,1.376,0,0,0,1.222.615q1.582,0,1.617-2.435v-.3q0-2.558-1.635-2.558-1.485,0-1.608,2.206ZM25.55-9.51l.1,1.116a3.27,3.27,0,0,1,2.716-1.292A2.407,2.407,0,0,1,30.8-8.253a3.165,3.165,0,0,1,2.795-1.433q2.892,0,2.971,3.5V0H33.592V-6a1.813,1.813,0,0,0-.246-1.063,1.048,1.048,0,0,0-.9-.334,1.4,1.4,0,0,0-1.31.782l.009.123V0H28.178V-5.985a1.906,1.906,0,0,0-.237-1.081,1.045,1.045,0,0,0-.905-.334,1.42,1.42,0,0,0-1.3.782V0H22.772V-9.51ZM47.083-4.685a5.735,5.735,0,0,1-1,3.538A3.2,3.2,0,0,1,43.392.176a2.742,2.742,0,0,1-2.153-.958V3.656H38.276V-9.51h2.769l.088.879a2.742,2.742,0,0,1,2.241-1.055,3.224,3.224,0,0,1,2.733,1.3,5.805,5.805,0,0,1,.976,3.564Zm-2.962-.185q0-2.531-1.477-2.531a1.394,1.394,0,0,0-1.406.756V-2.9a1.439,1.439,0,0,0,1.424.791q1.415,0,1.459-2.443Zm9.932,3.841a3.054,3.054,0,0,1-2.54,1.2,3,3,0,0,1-2.369-.91,3.826,3.826,0,0,1-.8-2.615V-9.51H51.3v6.179a1.065,1.065,0,0,0,1.187,1.222,1.548,1.548,0,0,0,1.45-.729V-9.51h2.979V0H54.141Zm7.937-10.846V-9.51h1.564v2.057H61.989V-3.1a1.111,1.111,0,0,0,.193.747,1.037,1.037,0,0,0,.765.211,4.345,4.345,0,0,0,.738-.053V-.079a5.466,5.466,0,0,1-1.67.255,3.1,3.1,0,0,1-2.259-.721,2.954,2.954,0,0,1-.729-2.188v-4.72H57.814V-9.51h1.213v-2.364ZM70.075,0a3.344,3.344,0,0,1-.281-.853A2.754,2.754,0,0,1,67.509.176a3.374,3.374,0,0,1-2.285-.813,2.588,2.588,0,0,1-.94-2.043,2.66,2.66,0,0,1,1.143-2.338,5.821,5.821,0,0,1,3.322-.791h.914v-.5q0-1.31-1.134-1.31a.925.925,0,0,0-1.055,1.037H64.512a2.659,2.659,0,0,1,1.173-2.241,4.927,4.927,0,0,1,2.993-.861,4.323,4.323,0,0,1,2.874.888,3.086,3.086,0,0,1,1.081,2.435v4.21a4.311,4.311,0,0,0,.4,2V0ZM68.221-1.934a1.652,1.652,0,0,0,.918-.237,1.487,1.487,0,0,0,.523-.536V-4.228H68.8q-1.547,0-1.547,1.389a.848.848,0,0,0,.272.655A.986.986,0,0,0,68.221-1.934ZM73.9-4.825a5.809,5.809,0,0,1,.976-3.56,3.211,3.211,0,0,1,2.725-1.3,2.731,2.731,0,0,1,2.145,1V-13.5h2.971V0H80.051L79.9-1.02a2.8,2.8,0,0,1-2.32,1.2,3.205,3.205,0,0,1-2.689-1.3A5.993,5.993,0,0,1,73.9-4.825Zm2.962.185q0,2.531,1.477,2.531a1.458,1.458,0,0,0,1.406-.826V-6.557A1.419,1.419,0,0,0,78.354-7.4q-1.371,0-1.485,2.215Zm7.163-.2a5.613,5.613,0,0,1,.554-2.536,3.96,3.96,0,0,1,1.591-1.709,4.791,4.791,0,0,1,2.435-.6,4.373,4.373,0,0,1,3.366,1.323,5.076,5.076,0,0,1,1.23,3.6v.105a4.925,4.925,0,0,1-1.235,3.529A4.384,4.384,0,0,1,88.62.176a4.434,4.434,0,0,1-3.261-1.217,4.761,4.761,0,0,1-1.327-3.3Zm2.962.185A3.538,3.538,0,0,0,87.4-2.725a1.376,1.376,0,0,0,1.222.615q1.582,0,1.617-2.435v-.3Q90.237-7.4,88.6-7.4q-1.485,0-1.608,2.206Zm13.271-2.171-.976-.07a1.752,1.752,0,0,0-1.793.879V0H94.526V-9.51H97.3l.1,1.222a2.294,2.294,0,0,1,2.083-1.4,2.888,2.888,0,0,1,.826.105Zm5.177,2a5.809,5.809,0,0,1,.976-3.56,3.211,3.211,0,0,1,2.725-1.3,2.731,2.731,0,0,1,2.145,1V-13.5h2.971V0h-2.663l-.149-1.02a2.8,2.8,0,0,1-2.32,1.2,3.205,3.205,0,0,1-2.689-1.3A5.993,5.993,0,0,1,105.434-4.825Zm2.962.185q0,2.531,1.477,2.531a1.458,1.458,0,0,0,1.406-.826V-6.557A1.419,1.419,0,0,0,109.89-7.4q-1.371,0-1.485,2.215ZM120.533.176a4.889,4.889,0,0,1-3.542-1.305,4.507,4.507,0,0,1-1.354-3.4v-.246a5.84,5.84,0,0,1,.541-2.575,3.955,3.955,0,0,1,1.578-1.727,4.763,4.763,0,0,1,2.461-.611,4.117,4.117,0,0,1,3.164,1.244,4.887,4.887,0,0,1,1.16,3.467v1.151h-5.889a2.135,2.135,0,0,0,.694,1.257,2.066,2.066,0,0,0,1.389.457,2.662,2.662,0,0,0,2.2-.984l1.354,1.6a3.784,3.784,0,0,1-1.569,1.217A5.3,5.3,0,0,1,120.533.176ZM120.2-7.4q-1.3,0-1.547,1.723h2.988v-.229a1.467,1.467,0,0,0-.36-1.1A1.434,1.434,0,0,0,120.2-7.4ZM134.815.176a4.889,4.889,0,0,1-3.542-1.305,4.507,4.507,0,0,1-1.354-3.4v-.246a5.84,5.84,0,0,1,.541-2.575,3.955,3.955,0,0,1,1.578-1.727,4.763,4.763,0,0,1,2.461-.611,4.117,4.117,0,0,1,3.164,1.244,4.887,4.887,0,0,1,1.16,3.467v1.151h-5.889a2.135,2.135,0,0,0,.694,1.257,2.066,2.066,0,0,0,1.389.457,2.662,2.662,0,0,0,2.2-.984l1.354,1.6A3.784,3.784,0,0,1,137-.277,5.3,5.3,0,0,1,134.815.176ZM134.481-7.4q-1.3,0-1.547,1.723h2.988v-.229a1.467,1.467,0,0,0-.36-1.1A1.434,1.434,0,0,0,134.481-7.4Zm10.512,4.729a.684.684,0,0,0-.4-.606,6.016,6.016,0,0,0-1.5-.475,6.853,6.853,0,0,1-1.828-.646,3.062,3.062,0,0,1-1.1-.971,2.319,2.319,0,0,1-.378-1.31,2.628,2.628,0,0,1,1.081-2.158,4.453,4.453,0,0,1,2.83-.848,4.934,4.934,0,0,1,3.023.853,2.666,2.666,0,0,1,1.143,2.241H144.9q0-1.143-1.2-1.143a1.194,1.194,0,0,0-.782.259.8.8,0,0,0-.316.646.737.737,0,0,0,.387.642,3.654,3.654,0,0,0,1.235.4,10.671,10.671,0,0,1,1.49.378A2.706,2.706,0,0,1,147.85-2.76a2.491,2.491,0,0,1-1.156,2.118A5.068,5.068,0,0,1,143.7.176a5.172,5.172,0,0,1-2.18-.439,3.645,3.645,0,0,1-1.494-1.2,2.707,2.707,0,0,1-.536-1.591h2.769a1.145,1.145,0,0,0,.439.962,1.808,1.808,0,0,0,1.081.3,1.422,1.422,0,0,0,.91-.246A.787.787,0,0,0,144.993-2.672Zm8.262.563a1.317,1.317,0,0,0,.967-.338,1.241,1.241,0,0,0,.334-.945h2.777a3.288,3.288,0,0,1-1.121,2.566,4.168,4.168,0,0,1-2.887,1,4.22,4.22,0,0,1-3.27-1.3,5.125,5.125,0,0,1-1.2-3.6v-.123a5.792,5.792,0,0,1,.532-2.544,3.872,3.872,0,0,1,1.534-1.7,4.573,4.573,0,0,1,2.373-.593,4.116,4.116,0,0,1,2.944,1.028,3.647,3.647,0,0,1,1.09,2.786h-2.777A1.626,1.626,0,0,0,154.2-7a1.244,1.244,0,0,0-.967-.4q-1.151,0-1.345,1.468a10.357,10.357,0,0,0-.062,1.283,4.068,4.068,0,0,0,.343,1.986A1.187,1.187,0,0,0,153.255-2.109Zm11.083-4.72-.976-.07a1.752,1.752,0,0,0-1.793.879V0h-2.962V-9.51h2.777l.1,1.222a2.294,2.294,0,0,1,2.083-1.4,2.888,2.888,0,0,1,.826.105ZM168.53,0H165.56V-9.51h2.971Zm-3.146-11.962A1.322,1.322,0,0,1,165.841-13a1.724,1.724,0,0,1,1.187-.4,1.724,1.724,0,0,1,1.187.4,1.322,1.322,0,0,1,.457,1.037,1.322,1.322,0,0,1-.457,1.037,1.724,1.724,0,0,1-1.187.4,1.724,1.724,0,0,1-1.187-.4A1.322,1.322,0,0,1,165.384-11.962Zm8.42.088V-9.51h1.564v2.057H173.8V-3.1a1.111,1.111,0,0,0,.193.747,1.037,1.037,0,0,0,.765.211A4.345,4.345,0,0,0,175.5-2.2V-.079a5.466,5.466,0,0,1-1.67.255,3.1,3.1,0,0,1-2.259-.721,2.954,2.954,0,0,1-.729-2.188v-4.72h-1.213V-9.51h1.213v-2.364ZM175.9-4.843a5.613,5.613,0,0,1,.554-2.536,3.96,3.96,0,0,1,1.591-1.709,4.791,4.791,0,0,1,2.435-.6,4.373,4.373,0,0,1,3.366,1.323,5.076,5.076,0,0,1,1.23,3.6v.105a4.925,4.925,0,0,1-1.235,3.529A4.384,4.384,0,0,1,180.492.176a4.434,4.434,0,0,1-3.261-1.217,4.761,4.761,0,0,1-1.327-3.3Zm2.962.185a3.538,3.538,0,0,0,.413,1.934,1.376,1.376,0,0,0,1.222.615q1.582,0,1.617-2.435v-.3q0-2.558-1.635-2.558-1.485,0-1.608,2.206Zm13.271-2.171-.976-.07a1.752,1.752,0,0,0-1.793.879V0H186.4V-9.51h2.777l.1,1.222a2.294,2.294,0,0,1,2.083-1.4,2.888,2.888,0,0,1,.826.105ZM196.321,0h-2.971V-9.51h2.971Zm-3.146-11.962A1.322,1.322,0,0,1,193.632-13a1.724,1.724,0,0,1,1.187-.4A1.724,1.724,0,0,1,196-13a1.322,1.322,0,0,1,.457,1.037A1.322,1.322,0,0,1,196-10.925a1.724,1.724,0,0,1-1.187.4,1.724,1.724,0,0,1-1.187-.4A1.322,1.322,0,0,1,193.175-11.962Zm4.6,7.119a5.613,5.613,0,0,1,.554-2.536,3.96,3.96,0,0,1,1.591-1.709,4.791,4.791,0,0,1,2.435-.6,4.373,4.373,0,0,1,3.366,1.323,5.076,5.076,0,0,1,1.23,3.6v.105a4.925,4.925,0,0,1-1.235,3.529A4.384,4.384,0,0,1,202.368.176a4.434,4.434,0,0,1-3.261-1.217,4.761,4.761,0,0,1-1.327-3.3Zm2.962.185a3.538,3.538,0,0,0,.413,1.934,1.376,1.376,0,0,0,1.222.615q1.582,0,1.617-2.435v-.3q0-2.558-1.635-2.558-1.485,0-1.608,2.206Z" transform="translate(697 6495.26)" fill="#fff"/>
    <path id="Trazado_102799" data-name="Trazado 102799" d="M0,0H181V71H0Z" transform="translate(374 6617.26)" fill="#7bd4ff"/>
    <path id="Trazado_102802" data-name="Trazado 102802" d="M4.184-12.8,7.875-2.988,11.558-12.8h2.874V0H12.217V-4.219l.22-5.643L8.657,0H7.066L3.3-9.853l.22,5.634V0H1.3V-12.8Zm12.27,7.954a5.607,5.607,0,0,1,.554-2.518,4.044,4.044,0,0,1,1.556-1.723,4.383,4.383,0,0,1,2.3-.6A4.154,4.154,0,0,1,23.99-8.446a4.874,4.874,0,0,1,1.3,3.287l.009.5a5.658,5.658,0,0,1-.541,2.514A4,4,0,0,1,23.208-.431a4.415,4.415,0,0,1-2.325.606,4.125,4.125,0,0,1-3.221-1.34,5.133,5.133,0,0,1-1.208-3.573Zm2.136.185a3.832,3.832,0,0,0,.606,2.3,1.971,1.971,0,0,0,1.688.831,1.95,1.95,0,0,0,1.683-.844,4.232,4.232,0,0,0,.6-2.47,3.782,3.782,0,0,0-.62-2.285,1.979,1.979,0,0,0-1.683-.844,1.96,1.96,0,0,0-1.661.831A4.152,4.152,0,0,0,18.589-4.658ZM29.083-9.51l.062,1.1a3.419,3.419,0,0,1,2.769-1.274q2.971,0,3.023,3.4V0H32.8V-6.161A1.958,1.958,0,0,0,32.41-7.5a1.645,1.645,0,0,0-1.279-.435,2.058,2.058,0,0,0-1.925,1.169V0H27.07V-9.51ZM39.384,0H37.248V-9.51h2.136ZM37.116-11.979a1.133,1.133,0,0,1,.312-.817,1.179,1.179,0,0,1,.892-.325,1.193,1.193,0,0,1,.9.325,1.125,1.125,0,0,1,.316.817,1.1,1.1,0,0,1-.316.8,1.2,1.2,0,0,1-.9.321,1.188,1.188,0,0,1-.892-.321A1.107,1.107,0,0,1,37.116-11.979Zm7.269.158V-9.51h1.679v1.582H44.385v5.309a1.169,1.169,0,0,0,.215.787,1,1,0,0,0,.769.242,3.29,3.29,0,0,0,.747-.088V-.026a5.26,5.26,0,0,1-1.406.2q-2.461,0-2.461-2.716V-7.928H40.685V-9.51h1.564v-2.312ZM47.03-4.843a5.607,5.607,0,0,1,.554-2.518A4.044,4.044,0,0,1,49.14-9.083a4.383,4.383,0,0,1,2.3-.6,4.154,4.154,0,0,1,3.125,1.239,4.874,4.874,0,0,1,1.3,3.287l.009.5a5.658,5.658,0,0,1-.541,2.514A4,4,0,0,1,53.785-.431,4.415,4.415,0,0,1,51.46.176a4.125,4.125,0,0,1-3.221-1.34A5.133,5.133,0,0,1,47.03-4.737Zm2.136.185a3.832,3.832,0,0,0,.606,2.3,1.971,1.971,0,0,0,1.688.831,1.95,1.95,0,0,0,1.683-.844,4.232,4.232,0,0,0,.6-2.47,3.782,3.782,0,0,0-.62-2.285,1.979,1.979,0,0,0-1.683-.844,1.96,1.96,0,0,0-1.661.831A4.152,4.152,0,0,0,49.166-4.658Zm13.491-2.9a5.285,5.285,0,0,0-.87-.07A1.959,1.959,0,0,0,59.81-6.5V0H57.674V-9.51h2.039l.053,1.063A2.406,2.406,0,0,1,61.91-9.686a2,2,0,0,1,.756.123Z" transform="translate(433 6659.26)" fill="#12263f"/>
    <path id="Trazado_102800" data-name="Trazado 102800" d="M0,0H181V71H0Z" transform="translate(607 6617.26)" fill="#7bd4ff"/>
    <path id="Trazado_102803" data-name="Trazado 102803" d="M10.547-11H6.557V0H4.351V-11H.4V-12.8H10.547ZM15.425.176A4.419,4.419,0,0,1,12.133-1.1a4.639,4.639,0,0,1-1.261-3.406v-.264a5.706,5.706,0,0,1,.549-2.544,4.181,4.181,0,0,1,1.542-1.745,4.078,4.078,0,0,1,2.215-.624,3.733,3.733,0,0,1,3,1.239,5.24,5.24,0,0,1,1.059,3.507v.861H13.025a2.856,2.856,0,0,0,.787,1.863,2.362,2.362,0,0,0,1.736.686,2.892,2.892,0,0,0,2.391-1.187l1.151,1.1A3.845,3.845,0,0,1,17.565-.294,4.774,4.774,0,0,1,15.425.176ZM15.17-7.972a1.8,1.8,0,0,0-1.419.615,3.189,3.189,0,0,0-.69,1.714H17.13V-5.8a2.6,2.6,0,0,0-.571-1.622A1.785,1.785,0,0,0,15.17-7.972ZM24.8-1.529A1.931,1.931,0,0,0,26.13-2a1.591,1.591,0,0,0,.563-1.151h2.013a3.137,3.137,0,0,1-.554,1.657A3.632,3.632,0,0,1,26.745-.272a4.191,4.191,0,0,1-1.916.448,4.055,4.055,0,0,1-3.164-1.292A5.124,5.124,0,0,1,20.5-4.685V-4.9a5.039,5.039,0,0,1,1.16-3.476A4.018,4.018,0,0,1,24.82-9.686a3.907,3.907,0,0,1,2.764.989,3.542,3.542,0,0,1,1.121,2.6H26.692a1.956,1.956,0,0,0-.558-1.345A1.8,1.8,0,0,0,24.8-7.972a1.879,1.879,0,0,0-1.6.751,3.834,3.834,0,0,0-.571,2.281V-4.6A3.9,3.9,0,0,0,23.19-2.29,1.878,1.878,0,0,0,24.8-1.529ZM32.59,0H30.454V-13.5H32.59ZM40.6,0a3.3,3.3,0,0,1-.246-.888,3.325,3.325,0,0,1-2.5,1.063,3.355,3.355,0,0,1-2.338-.817,2.615,2.615,0,0,1-.905-2.021A2.7,2.7,0,0,1,35.741-5a5.473,5.473,0,0,1,3.23-.813h1.31v-.624a1.666,1.666,0,0,0-.413-1.182A1.638,1.638,0,0,0,38.61-8.06a1.881,1.881,0,0,0-1.2.365,1.129,1.129,0,0,0-.466.927H34.813a2.37,2.37,0,0,1,.519-1.463A3.455,3.455,0,0,1,36.743-9.3a4.955,4.955,0,0,1,1.991-.387,3.99,3.99,0,0,1,2.663.839,2.993,2.993,0,0,1,1.02,2.36V-2.2a4.861,4.861,0,0,0,.36,2.048V0ZM38.25-1.538a2.429,2.429,0,0,0,1.191-.308,2.055,2.055,0,0,0,.839-.826V-4.465H39.129a3.148,3.148,0,0,0-1.784.413,1.338,1.338,0,0,0-.6,1.169,1.248,1.248,0,0,0,.409.98A1.583,1.583,0,0,0,38.25-1.538Zm6-3.287a5.654,5.654,0,0,1,1.02-3.529,3.267,3.267,0,0,1,2.733-1.332,3.1,3.1,0,0,1,2.443,1.055V-13.5h2.136V0H50.651l-.105-.984A3.148,3.148,0,0,1,47.988.176a3.248,3.248,0,0,1-2.7-1.345A5.861,5.861,0,0,1,44.253-4.825Zm2.136.185a3.958,3.958,0,0,0,.558,2.263,1.811,1.811,0,0,0,1.586.813,2.017,2.017,0,0,0,1.916-1.169V-6.794a1.986,1.986,0,0,0-1.9-1.143,1.824,1.824,0,0,0-1.6.822A4.408,4.408,0,0,0,46.389-4.641Zm8.024-.2a5.607,5.607,0,0,1,.554-2.518,4.044,4.044,0,0,1,1.556-1.723,4.383,4.383,0,0,1,2.3-.6A4.154,4.154,0,0,1,61.95-8.446a4.874,4.874,0,0,1,1.3,3.287l.009.5a5.658,5.658,0,0,1-.541,2.514A4,4,0,0,1,61.167-.431a4.415,4.415,0,0,1-2.325.606,4.125,4.125,0,0,1-3.221-1.34,5.133,5.133,0,0,1-1.208-3.573Zm2.136.185a3.832,3.832,0,0,0,.606,2.3,1.971,1.971,0,0,0,1.688.831,1.95,1.95,0,0,0,1.683-.844,4.232,4.232,0,0,0,.6-2.47,3.782,3.782,0,0,0-.62-2.285,1.979,1.979,0,0,0-1.683-.844,1.96,1.96,0,0,0-1.661.831A4.152,4.152,0,0,0,56.549-4.658Z" transform="translate(667 6659.26)" fill="#12263f"/>
    <path id="Trazado_102801" data-name="Trazado 102801" d="M0,0H181V71H0Z" transform="translate(840 6617.26)" fill="#7bd4ff"/>
    <path id="Trazado_102804" data-name="Trazado 102804" d="M4.184-12.8,7.875-2.988,11.558-12.8h2.874V0H12.217V-4.219l.22-5.643L8.657,0H7.066L3.3-9.853l.22,5.634V0H1.3V-12.8Zm12.27,7.954a5.607,5.607,0,0,1,.554-2.518,4.044,4.044,0,0,1,1.556-1.723,4.383,4.383,0,0,1,2.3-.6A4.154,4.154,0,0,1,23.99-8.446a4.874,4.874,0,0,1,1.3,3.287l.009.5a5.658,5.658,0,0,1-.541,2.514A4,4,0,0,1,23.208-.431a4.415,4.415,0,0,1-2.325.606,4.125,4.125,0,0,1-3.221-1.34,5.133,5.133,0,0,1-1.208-3.573Zm2.136.185a3.832,3.832,0,0,0,.606,2.3,1.971,1.971,0,0,0,1.688.831,1.95,1.95,0,0,0,1.683-.844,4.232,4.232,0,0,0,.6-2.47,3.782,3.782,0,0,0-.62-2.285,1.979,1.979,0,0,0-1.683-.844,1.96,1.96,0,0,0-1.661.831A4.152,4.152,0,0,0,18.589-4.658ZM32.862-.932A3.312,3.312,0,0,1,30.19.176a2.952,2.952,0,0,1-2.342-.905,3.851,3.851,0,0,1-.8-2.619V-9.51h2.136v6.135q0,1.811,1.5,1.811a2.111,2.111,0,0,0,2.1-1.116V-9.51h2.136V0H32.915Zm9.571-1.652a.968.968,0,0,0-.47-.87,5,5,0,0,0-1.56-.527,8.02,8.02,0,0,1-1.819-.58,2.428,2.428,0,0,1-1.6-2.241,2.531,2.531,0,0,1,1.037-2.057,4.1,4.1,0,0,1,2.637-.826,4.266,4.266,0,0,1,2.755.844,2.677,2.677,0,0,1,1.05,2.188H42.328a1.316,1.316,0,0,0-.457-1.024,1.752,1.752,0,0,0-1.213-.409,1.893,1.893,0,0,0-1.147.325,1.025,1.025,0,0,0-.444.87.866.866,0,0,0,.413.765,5.68,5.68,0,0,0,1.67.549,7.9,7.9,0,0,1,1.973.659A2.794,2.794,0,0,1,44.187-4a2.342,2.342,0,0,1,.347,1.3A2.478,2.478,0,0,1,43.471-.62a4.535,4.535,0,0,1-2.786.8A4.917,4.917,0,0,1,38.6-.246a3.428,3.428,0,0,1-1.424-1.16A2.746,2.746,0,0,1,36.668-3h2.074a1.5,1.5,0,0,0,.571,1.165,2.22,2.22,0,0,0,1.4.409,2.16,2.16,0,0,0,1.283-.321A.993.993,0,0,0,42.434-2.584ZM50.581.176A4.419,4.419,0,0,1,47.29-1.1a4.639,4.639,0,0,1-1.261-3.406v-.264a5.706,5.706,0,0,1,.549-2.544A4.181,4.181,0,0,1,48.12-9.062a4.078,4.078,0,0,1,2.215-.624,3.733,3.733,0,0,1,3,1.239A5.24,5.24,0,0,1,54.4-4.939v.861H48.182a2.856,2.856,0,0,0,.787,1.863,2.362,2.362,0,0,0,1.736.686,2.892,2.892,0,0,0,2.391-1.187l1.151,1.1A3.845,3.845,0,0,1,52.721-.294,4.774,4.774,0,0,1,50.581.176Zm-.255-8.147a1.8,1.8,0,0,0-1.419.615,3.189,3.189,0,0,0-.69,1.714h4.069V-5.8a2.6,2.6,0,0,0-.571-1.622A1.785,1.785,0,0,0,50.326-7.972Z" transform="translate(906 6659.26)" fill="#12263f"/>
    <path id="Trazado_102805" data-name="Trazado 102805" d="M0,0H181V71H0Z" transform="translate(1073 6617.26)" fill="#7bd4ff"/>
    <path id="Trazado_102806" data-name="Trazado 102806" d="M10.547-11H6.557V0H4.351V-11H.4V-12.8H10.547ZM9.791-4.843a5.607,5.607,0,0,1,.554-2.518A4.044,4.044,0,0,1,11.9-9.083a4.383,4.383,0,0,1,2.3-.6,4.154,4.154,0,0,1,3.125,1.239,4.874,4.874,0,0,1,1.3,3.287l.009.5a5.658,5.658,0,0,1-.541,2.514A4,4,0,0,1,16.545-.431a4.415,4.415,0,0,1-2.325.606A4.125,4.125,0,0,1,11-1.165,5.133,5.133,0,0,1,9.791-4.737Zm2.136.185a3.832,3.832,0,0,0,.606,2.3,1.971,1.971,0,0,0,1.688.831A1.95,1.95,0,0,0,15.9-2.373a4.232,4.232,0,0,0,.6-2.47,3.782,3.782,0,0,0-.62-2.285A1.979,1.979,0,0,0,14.2-7.972a1.96,1.96,0,0,0-1.661.831A4.152,4.152,0,0,0,11.927-4.658Zm13.491-2.9a5.285,5.285,0,0,0-.87-.07A1.959,1.959,0,0,0,22.57-6.5V0H20.435V-9.51h2.039l.053,1.063a2.406,2.406,0,0,1,2.145-1.239,2,2,0,0,1,.756.123Zm6.328,0a5.285,5.285,0,0,0-.87-.07A1.959,1.959,0,0,0,28.9-6.5V0H26.763V-9.51H28.8l.053,1.063A2.406,2.406,0,0,1,31-9.686a2,2,0,0,1,.756.123ZM37.116.176A4.419,4.419,0,0,1,33.825-1.1a4.639,4.639,0,0,1-1.261-3.406v-.264a5.706,5.706,0,0,1,.549-2.544,4.181,4.181,0,0,1,1.542-1.745,4.078,4.078,0,0,1,2.215-.624,3.733,3.733,0,0,1,3,1.239,5.24,5.24,0,0,1,1.059,3.507v.861H34.717A2.856,2.856,0,0,0,35.5-2.215a2.362,2.362,0,0,0,1.736.686A2.892,2.892,0,0,0,39.63-2.716l1.151,1.1A3.845,3.845,0,0,1,39.256-.294,4.774,4.774,0,0,1,37.116.176Zm-.255-8.147a1.8,1.8,0,0,0-1.419.615,3.189,3.189,0,0,0-.69,1.714h4.069V-5.8a2.6,2.6,0,0,0-.571-1.622A1.785,1.785,0,0,0,36.861-7.972Z" transform="translate(1143 6659.26)" fill="#12263f"/>
    <path id="Trazado_102703" data-name="Trazado 102703" d="M-8597-5106.625v42.539" transform="translate(9397.5 11645.26)" fill="none" stroke="#ffa726" stroke-width="1"/>
    <path id="Trazado_102704" data-name="Trazado 102704" d="M-8932.5-5046.113v-20.953h698.738v20.953" transform="translate(9383 11648.26)" fill="none" stroke="#ffa726" stroke-width="1"/>
    <path id="Trazado_102705" data-name="Trazado 102705" d="M-8597-5106.625v20.953" transform="translate(9301 11687.818)" fill="none" stroke="#ffa726" stroke-width="1"/>
    <path id="Trazado_102706" data-name="Trazado 102706" d="M-8597-5106.625v20.953" transform="translate(9522.5 11687.818)" fill="none" stroke="#ffa726" stroke-width="1"/>
    <g id="escritorio" transform="translate(407.994 6693.76)">
      <path id="Trazado_102707" data-name="Trazado 102707" d="M179.084,416l-14.463,5.157-.548,1.917a7.255,7.255,0,0,1-6.573,4.959h28.705Z" transform="translate(-130.428 -329.175)" fill="#adaca7"/>
      <path id="Trazado_102708" data-name="Trazado 102708" d="M219.1,398.23l-2.021-7.073L208.74,386l-8.336,5.157-1.473,5.157h14.463l.548,1.917a7.255,7.255,0,0,0,6.573,4.959h5.157A7.255,7.255,0,0,1,219.1,398.23Z" transform="translate(-164.737 -304.332)" fill="#8f8f8b"/>
      <path id="Trazado_102709" data-name="Trazado 102709" d="M444.5,291.783h5.157a5.172,5.172,0,0,0,5.157-5.157V276.313L444.5,266Z" transform="translate(-368.097 -204.958)" fill="#adaca7"/>
      <path id="Trazado_102710" data-name="Trazado 102710" d="M7.5,236.94a5.172,5.172,0,0,0,5.157,5.157H82.614a5.172,5.172,0,0,0,5.157-5.157V206L7.5,226.626Z" transform="translate(-6.211 -155.271)" fill="#cbc9c2"/>
      <path id="Trazado_102711" data-name="Trazado 102711" d="M449.657,26H444.5l5.157,51.566h5.157V31.157A5.172,5.172,0,0,0,449.657,26Z" transform="translate(-368.097 -6.211)" fill="#404242"/>
      <path id="Trazado_102712" data-name="Trazado 102712" d="M87.771,31.157A5.172,5.172,0,0,0,82.614,26H12.657A5.172,5.172,0,0,0,7.5,31.157V77.566H87.771V72.409L50.214,51.781Z" transform="translate(-6.211 -6.211)" fill="#565959"/>
      <path id="Trazado_102713" data-name="Trazado 102713" d="M293.557,55.978l-5.156,0L256,76.6l32.4,20.629,5.156,0S293.557,55.978,293.557,55.978Z" transform="translate(-211.997 -31.033)" fill="#4b88d5"/>
      <path id="Trazado_102714" data-name="Trazado 102714" d="M107.458,55.977l-69.943,0S37.507,97.229,37.5,97.23l69.956,0S107.451,55.977,107.458,55.977Z" transform="translate(-31.054 -31.032)" fill="#69a7ff"/>
      <circle id="Elipse_1454" data-name="Elipse 1454" cx="2.578" cy="2.578" r="2.578" transform="translate(41.425 76.512)" fill="#fff"/>
      <path id="Trazado_102715" data-name="Trazado 102715" d="M81.56,18.5H6.446A6.453,6.453,0,0,0,0,24.946V81.668a6.453,6.453,0,0,0,6.446,6.446H33.957l-1.552,5.431a5.959,5.959,0,0,1-5.334,4.023H17.361a1.289,1.289,0,0,0,0,2.578H70.645a1.289,1.289,0,0,0,0-2.578H60.934A5.959,5.959,0,0,1,55.6,93.545l-1.552-5.431H81.56a6.453,6.453,0,0,0,6.446-6.446V24.946A6.453,6.453,0,0,0,81.56,18.5ZM6.446,21.078H81.56a3.872,3.872,0,0,1,3.867,3.867v45.12H2.578V24.946A3.872,3.872,0,0,1,6.446,21.078ZM53.121,94.253A7.865,7.865,0,0,0,55.1,97.568H32.906a7.866,7.866,0,0,0,1.979-3.315l1.754-6.139H51.367ZM81.56,85.536H6.446a3.872,3.872,0,0,1-3.867-3.867V72.644H85.427v9.024A3.872,3.872,0,0,1,81.56,85.536Z"/>
      <path id="Trazado_102716" data-name="Trazado 102716" d="M31.289,92.331H106.4a1.289,1.289,0,0,0,1.289-1.289V49.789A1.289,1.289,0,0,0,106.4,48.5H31.289A1.289,1.289,0,0,0,30,49.789V67.837a1.289,1.289,0,0,0,2.578,0V51.078h72.536V89.753H32.578V72.994a1.289,1.289,0,0,0-2.578,0V91.042A1.289,1.289,0,0,0,31.289,92.331Z" transform="translate(-24.843 -24.843)"/>
      <path id="Trazado_102717" data-name="Trazado 102717" d="M237.367,348.5a3.867,3.867,0,1,0,3.867,3.867A3.872,3.872,0,0,0,237.367,348.5Zm0,5.157a1.289,1.289,0,1,1,1.289-1.289A1.291,1.291,0,0,1,237.367,353.657Z" transform="translate(-193.365 -273.278)"/>
    </g>
    <g id="Layer_2" data-name="Layer 2" transform="translate(663.621 6705.26)">
      <rect id="Rectángulo_6771" data-name="Rectángulo 6771" width="78.548" height="36.779" rx="4" transform="translate(1.106 42.876)" fill="#a7adf0"/>
      <path id="Trazado_102718" data-name="Trazado 102718" d="M11.753,77.956H16.57V83H11.753Z" transform="translate(-4.338 -28.77)" fill="#d7fc7e"/>
      <path id="Trazado_102719" data-name="Trazado 102719" d="M25.59,77.956h4.817V83H25.59Z" transform="translate(-9.444 -28.77)" fill="#d7fc7e"/>
      <path id="Trazado_102720" data-name="Trazado 102720" d="M39.427,77.956h4.817V83H39.427Z" transform="translate(-14.551 -28.77)" fill="#d7fc7e"/>
      <path id="Trazado_102721" data-name="Trazado 102721" d="M53.264,77.956h4.817V83H53.264Z" transform="translate(-19.658 -28.77)" fill="#d7fc7e"/>
      <path id="Trazado_102722" data-name="Trazado 102722" d="M67.1,77.956h4.817V83H67.1Z" transform="translate(-24.764 -28.77)" fill="#d7fc7e"/>
      <path id="Trazado_102723" data-name="Trazado 102723" d="M80.938,77.956h4.817V83H80.938Z" transform="translate(-29.871 -28.77)" fill="#d7fc7e"/>
      <path id="Trazado_102724" data-name="Trazado 102724" d="M94.776,77.956h4.817V83H94.776Z" transform="translate(-34.978 -28.77)" fill="#d7fc7e"/>
      <path id="Trazado_102725" data-name="Trazado 102725" d="M108.613,77.956h4.817V83h-4.817Z" transform="translate(-40.085 -28.77)" fill="#d7fc7e"/>
      <path id="Trazado_102726" data-name="Trazado 102726" d="M11.753,93.1H25.3v5.048H11.753Z" transform="translate(-4.338 -34.361)" fill="#d7fc7e"/>
      <path id="Trazado_102727" data-name="Trazado 102727" d="M39.427,93.1h4.817v5.048H39.427Z" transform="translate(-14.551 -34.361)" fill="#d7fc7e"/>
      <path id="Trazado_102728" data-name="Trazado 102728" d="M53.264,93.1h4.817v5.048H53.264Z" transform="translate(-19.658 -34.361)" fill="#d7fc7e"/>
      <path id="Trazado_102729" data-name="Trazado 102729" d="M67.1,93.1h4.817v5.048H67.1Z" transform="translate(-24.764 -34.361)" fill="#d7fc7e"/>
      <path id="Trazado_102730" data-name="Trazado 102730" d="M80.938,93.1h4.817v5.048H80.938Z" transform="translate(-29.871 -34.361)" fill="#d7fc7e"/>
      <path id="Trazado_102731" data-name="Trazado 102731" d="M94.776,93.1h13.547v5.048H94.776Z" transform="translate(-34.978 -34.361)" fill="#d7fc7e"/>
      <path id="Trazado_102732" data-name="Trazado 102732" d="M11.753,108.249H16.57V113.3H11.753Z" transform="translate(-4.338 -39.95)" fill="#d7fc7e"/>
      <path id="Trazado_102733" data-name="Trazado 102733" d="M25.59,108.249h4.817V113.3H25.59Z" transform="translate(-9.444 -39.95)" fill="#d7fc7e"/>
      <path id="Trazado_102734" data-name="Trazado 102734" d="M39.427,108.249H70.435V113.3H39.427Z" transform="translate(-14.551 -39.95)" fill="#d7fc7e"/>
      <path id="Trazado_102735" data-name="Trazado 102735" d="M94.776,108.249h4.817V113.3H94.776Z" transform="translate(-34.978 -39.95)" fill="#d7fc7e"/>
      <path id="Trazado_102736" data-name="Trazado 102736" d="M108.613,108.249h4.817V113.3h-4.817Z" transform="translate(-40.085 -39.95)" fill="#d7fc7e"/>
      <path id="Trazado_102737" data-name="Trazado 102737" d="M54.777,37.76H49.729V32.393A8,8,0,0,1,57.723,24.4h13.3a2.944,2.944,0,1,0,0-5.889H40.161A8,8,0,0,1,32.17,10.52V1.751h5.048v8.77a2.947,2.947,0,0,0,2.944,2.945H71.019a7.992,7.992,0,1,1,0,15.984h-13.3a2.948,2.948,0,0,0-2.946,2.944Z" transform="translate(-11.873 -0.646)" fill="#fff5cc"/>
      <path id="Trazado_102738" data-name="Trazado 102738" d="M50.065,58.823H67.652v5.762H50.065Z" transform="translate(-18.477 -21.709)" fill="#ffe477"/>
      <g id="Grupo_57405" data-name="Grupo 57405" transform="translate(0 0)">
        <path id="Trazado_102739" data-name="Trazado 102739" d="M77.13,41.773H50.28V37.114a1.1,1.1,0,0,0-1.1-1.1H44.01V31.747a1.843,1.843,0,0,1,1.84-1.84h13.3a9.1,9.1,0,1,0,0-18.192H28.289a1.842,1.842,0,0,1-1.84-1.84V1.1a1.1,1.1,0,0,0-1.1-1.1H20.3a1.1,1.1,0,0,0-1.1,1.1v8.77a9.106,9.106,0,0,0,9.1,9.1h3.3a1.1,1.1,0,1,0,0-2.208h-3.3A6.9,6.9,0,0,1,21.4,9.874V2.208h2.839V9.874a4.053,4.053,0,0,0,4.048,4.049H59.146a6.888,6.888,0,1,1,0,13.776H45.85A4.054,4.054,0,0,0,41.8,31.747V36.01H38.962V31.747a6.9,6.9,0,0,1,6.888-6.888h13.3a4.049,4.049,0,1,0,0-8.1H52.289a1.1,1.1,0,0,0,0,2.208h6.857a1.84,1.84,0,1,1,0,3.681H45.85a9.107,9.107,0,0,0-9.1,9.1V36.01H31.588a1.1,1.1,0,0,0-1.1,1.1v4.659H3.63A3.632,3.632,0,0,0,0,45.4V77.132A3.632,3.632,0,0,0,3.63,80.76H76.344a1.1,1.1,0,1,0,0-2.208H3.63a1.422,1.422,0,0,1-1.42-1.42V45.4a1.422,1.422,0,0,1,1.42-1.42h73.5a1.422,1.422,0,0,1,1.42,1.42V75.87a1.1,1.1,0,0,0,2.208,0V45.4A3.632,3.632,0,0,0,77.13,41.773Zm-44.438,0V38.218H48.071v3.555Z" transform="translate(0 0)" fill="#231f20"/>
        <path id="Trazado_102740" data-name="Trazado 102740" d="M11.106,83.463h4.817a1.1,1.1,0,0,0,1.1-1.1V77.311a1.1,1.1,0,0,0-1.1-1.1H11.106A1.1,1.1,0,0,0,10,77.311v5.048a1.1,1.1,0,0,0,1.106,1.1Zm1.1-5.048h2.608v2.839h-2.61Z" transform="translate(-3.691 -28.125)" fill="#231f20"/>
        <path id="Trazado_102741" data-name="Trazado 102741" d="M30.866,77.311a1.1,1.1,0,0,0-1.1-1.1H24.944a1.1,1.1,0,0,0-1.1,1.1v5.048a1.1,1.1,0,0,0,1.1,1.1h4.817a1.1,1.1,0,0,0,1.1-1.1Zm-2.208,3.943H26.048V78.415h2.609Z" transform="translate(-8.798 -28.125)" fill="#231f20"/>
        <path id="Trazado_102742" data-name="Trazado 102742" d="M38.781,83.463H43.6a1.1,1.1,0,0,0,1.1-1.1V77.311a1.1,1.1,0,0,0-1.1-1.1H38.781a1.1,1.1,0,0,0-1.1,1.1v5.048a1.1,1.1,0,0,0,1.1,1.1Zm1.1-5.048h2.609v2.839H39.885Z" transform="translate(-13.905 -28.125)" fill="#231f20"/>
        <path id="Trazado_102743" data-name="Trazado 102743" d="M52.619,83.463h4.817a1.1,1.1,0,0,0,1.1-1.1V77.311a1.1,1.1,0,0,0-1.1-1.1H52.619a1.1,1.1,0,0,0-1.1,1.1v5.048a1.1,1.1,0,0,0,1.1,1.1Zm1.1-5.048h2.608v2.839H53.723Z" transform="translate(-19.012 -28.125)" fill="#231f20"/>
        <path id="Trazado_102744" data-name="Trazado 102744" d="M66.454,83.463H71.27a1.1,1.1,0,0,0,1.1-1.1V77.311a1.1,1.1,0,0,0-1.1-1.1H66.454a1.1,1.1,0,0,0-1.1,1.1v5.048a1.1,1.1,0,0,0,1.1,1.1Zm1.1-5.048h2.608v2.839H67.56Z" transform="translate(-24.118 -28.125)" fill="#231f20"/>
        <path id="Trazado_102745" data-name="Trazado 102745" d="M86.214,77.311a1.1,1.1,0,0,0-1.1-1.1H80.292a1.1,1.1,0,0,0-1.1,1.1v5.048a1.1,1.1,0,0,0,1.1,1.1h4.817a1.1,1.1,0,0,0,1.1-1.1Zm-2.208,3.943H81.4V78.415h2.609Z" transform="translate(-29.225 -28.125)" fill="#231f20"/>
        <path id="Trazado_102746" data-name="Trazado 102746" d="M94.129,83.463h4.817a1.1,1.1,0,0,0,1.1-1.1V77.311a1.1,1.1,0,0,0-1.1-1.1H94.129a1.1,1.1,0,0,0-1.1,1.1v5.048A1.1,1.1,0,0,0,94.129,83.463Zm1.1-5.048h2.609v2.839H95.233Z" transform="translate(-34.332 -28.125)" fill="#231f20"/>
        <path id="Trazado_102747" data-name="Trazado 102747" d="M113.891,77.311a1.1,1.1,0,0,0-1.1-1.1h-4.817a1.1,1.1,0,0,0-1.1,1.1v5.048a1.1,1.1,0,0,0,1.1,1.1h4.817a1.1,1.1,0,0,0,1.1-1.1Zm-2.208,3.943h-2.609V78.415h2.609Z" transform="translate(-39.44 -28.125)" fill="#231f20"/>
        <path id="Trazado_102748" data-name="Trazado 102748" d="M25.758,92.454a1.1,1.1,0,0,0-1.1-1.1H11.106A1.1,1.1,0,0,0,10,92.454V97.5a1.1,1.1,0,0,0,1.1,1.1H24.654a1.1,1.1,0,0,0,1.1-1.1ZM23.549,96.4H12.208V93.558H23.549Z" transform="translate(-3.691 -33.714)" fill="#231f20"/>
        <path id="Trazado_102749" data-name="Trazado 102749" d="M37.677,97.5a1.1,1.1,0,0,0,1.1,1.1H43.6a1.1,1.1,0,0,0,1.1-1.1V92.454a1.1,1.1,0,0,0-1.1-1.1H38.781a1.1,1.1,0,0,0-1.1,1.1Zm2.208-3.943h2.609V96.4H39.885Z" transform="translate(-13.905 -33.714)" fill="#231f20"/>
        <path id="Trazado_102750" data-name="Trazado 102750" d="M51.515,97.5a1.1,1.1,0,0,0,1.1,1.1h4.817a1.1,1.1,0,0,0,1.1-1.1V92.454a1.1,1.1,0,0,0-1.1-1.1H52.619a1.1,1.1,0,0,0-1.1,1.1Zm2.208-3.943h2.608V96.4H53.723Z" transform="translate(-19.012 -33.714)" fill="#231f20"/>
        <path id="Trazado_102751" data-name="Trazado 102751" d="M65.351,97.5a1.1,1.1,0,0,0,1.1,1.1h4.816a1.1,1.1,0,0,0,1.1-1.1V92.454a1.1,1.1,0,0,0-1.1-1.1H66.454a1.1,1.1,0,0,0-1.1,1.1Zm2.208-3.943h2.608V96.4H67.56Z" transform="translate(-24.118 -33.714)" fill="#231f20"/>
        <path id="Trazado_102752" data-name="Trazado 102752" d="M86.214,92.454a1.1,1.1,0,0,0-1.1-1.1H80.292a1.1,1.1,0,0,0-1.1,1.1V97.5a1.1,1.1,0,0,0,1.1,1.1h4.817a1.1,1.1,0,0,0,1.1-1.1ZM84.005,96.4H81.4V93.558h2.609Z" transform="translate(-29.225 -33.714)" fill="#231f20"/>
        <path id="Trazado_102753" data-name="Trazado 102753" d="M108.783,92.454a1.1,1.1,0,0,0-1.1-1.1H94.129a1.1,1.1,0,0,0-1.1,1.1V97.5a1.1,1.1,0,0,0,1.1,1.1h13.548a1.1,1.1,0,0,0,1.106-1.1ZM106.574,96.4H95.233V93.558h11.341Z" transform="translate(-34.332 -33.714)" fill="#231f20"/>
        <path id="Trazado_102754" data-name="Trazado 102754" d="M11.106,106.5A1.1,1.1,0,0,0,10,107.6v5.048a1.1,1.1,0,0,0,1.1,1.1h4.817a1.1,1.1,0,0,0,1.1-1.1V107.6a1.1,1.1,0,0,0-1.1-1.1Zm3.712,5.048h-2.61v-2.839h2.608Z" transform="translate(-3.691 -39.305)" fill="#231f20"/>
        <path id="Trazado_102755" data-name="Trazado 102755" d="M29.761,106.5H24.944a1.1,1.1,0,0,0-1.1,1.1v5.048a1.1,1.1,0,0,0,1.1,1.1h4.817a1.1,1.1,0,0,0,1.1-1.1V107.6a1.1,1.1,0,0,0-1.1-1.1Zm-1.1,5.048H26.048v-2.839h2.609Z" transform="translate(-8.798 -39.305)" fill="#231f20"/>
        <path id="Trazado_102756" data-name="Trazado 102756" d="M37.677,112.652a1.1,1.1,0,0,0,1.1,1.1H69.789a1.1,1.1,0,0,0,1.1-1.1V107.6a1.1,1.1,0,0,0-1.1-1.1H38.781a1.1,1.1,0,0,0-1.1,1.1Zm2.208-3.943h28.8v2.839h-28.8Z" transform="translate(-13.905 -39.305)" fill="#231f20"/>
        <path id="Trazado_102757" data-name="Trazado 102757" d="M94.129,106.5a1.1,1.1,0,0,0-1.1,1.1v5.048a1.1,1.1,0,0,0,1.1,1.1h4.817a1.1,1.1,0,0,0,1.1-1.1V107.6a1.1,1.1,0,0,0-1.1-1.1Zm3.713,5.048H95.233v-2.839h2.609Z" transform="translate(-34.332 -39.305)" fill="#231f20"/>
        <path id="Trazado_102758" data-name="Trazado 102758" d="M112.783,106.5h-4.817a1.1,1.1,0,0,0-1.1,1.1v5.048a1.1,1.1,0,0,0,1.1,1.1h4.817a1.1,1.1,0,0,0,1.1-1.1V107.6a1.1,1.1,0,0,0-1.1-1.1Zm-1.1,5.048H109.07v-2.839h2.611Z" transform="translate(-39.439 -39.305)" fill="#231f20"/>
        <path id="Trazado_102759" data-name="Trazado 102759" d="M66.781,28.775a1.1,1.1,0,0,0,0-2.208H62.169a1.1,1.1,0,0,0,0,2.208Z" transform="translate(-22.537 -9.805)" fill="#231f20"/>
      </g>
    </g>
    <g id="clicker-del-mouse" transform="translate(885.563 6692.69)">
      <g id="Grupo_57406" data-name="Grupo 57406" transform="translate(1.126 23.762)">
        <path id="Trazado_102760" data-name="Trazado 102760" d="M75.815,147.919H13.806A6.306,6.306,0,0,1,7.5,141.613v-48.2a6.306,6.306,0,0,1,6.306-6.306H75.815a6.306,6.306,0,0,1,6.306,6.306v48.2A6.306,6.306,0,0,1,75.815,147.919Z" transform="translate(-7.5 -87.111)" fill="#5a5a5a"/>
        <path id="Trazado_102761" data-name="Trazado 102761" d="M175.663,191.2h0a14.125,14.125,0,0,1-14.125-14.125V162.931a14.125,14.125,0,0,1,14.125-14.125h0a14.125,14.125,0,0,1,14.125,14.125v14.148A14.125,14.125,0,0,1,175.663,191.2Z" transform="translate(-138.41 -139.543)" fill="#82aee3"/>
        <path id="Trazado_102762" data-name="Trazado 102762" d="M238.752,148.807h0a14.172,14.172,0,0,0-2.979.316,14.129,14.129,0,0,1,11.146,13.809V177.08a14.129,14.129,0,0,1-11.146,13.809,14.172,14.172,0,0,0,2.979.316h0a14.125,14.125,0,0,0,14.125-14.125V162.932A14.125,14.125,0,0,0,238.752,148.807Z" transform="translate(-201.499 -139.544)" fill="#528fd8"/>
        <path id="Trazado_102763" data-name="Trazado 102763" d="M175.663,167.617v-18.81h0a14.125,14.125,0,0,0-14.125,14.125v4.685Z" transform="translate(-138.41 -139.544)" fill="#c0d6f2"/>
        <path id="Trazado_102764" data-name="Trazado 102764" d="M255.615,148.807h0v18.81H269.74v-4.685A14.125,14.125,0,0,0,255.615,148.807Z" transform="translate(-218.362 -139.544)" fill="#b2caec"/>
        <path id="Trazado_102765" data-name="Trazado 102765" d="M239.8,187.572A2.8,2.8,0,0,1,237,184.777v-4.657a2.795,2.795,0,1,1,5.589,0v4.657A2.8,2.8,0,0,1,239.8,187.572Z" transform="translate(-202.544 -163.781)" fill="#528fd8"/>
        <path id="Trazado_102766" data-name="Trazado 102766" d="M235.772,149.1a14.009,14.009,0,0,1,2.979,1v0a14.126,14.126,0,0,1,8.167,12.809V167.6h5.958v-4.685A14.133,14.133,0,0,0,235.772,149.1Z" transform="translate(-201.498 -139.522)" fill="#82aee3"/>
        <path id="Trazado_102767" data-name="Trazado 102767" d="M428.773,87.111h-5.958a6.306,6.306,0,0,1,6.306,6.306v48.2a6.306,6.306,0,0,1-6.306,6.306h5.958a6.306,6.306,0,0,0,6.306-6.306v-48.2A6.306,6.306,0,0,0,428.773,87.111Z" transform="translate(-360.458 -87.111)" fill="#444"/>
      </g>
      <path id="Trazado_102768" data-name="Trazado 102768" d="M69.441,22.609H39.563V18.951a4.134,4.134,0,0,1,4.129-4.129h21.02a1.126,1.126,0,0,0,0-2.252H43.692a6.388,6.388,0,0,0-6.381,6.381v3.657H7.432A7.441,7.441,0,0,0,0,30.041v6.006a1.126,1.126,0,0,0,2.252,0V30.041a5.186,5.186,0,0,1,5.18-5.18H37.311V31.91A15.27,15.27,0,0,0,23.128,47.123V61.271a15.253,15.253,0,0,0,30.205,3.008,1.126,1.126,0,0,0-2.208-.442A13,13,0,0,1,25.38,61.27V52.934h26v5.888a1.126,1.126,0,1,0,2.252,0v-11.7A15.271,15.271,0,0,0,39.563,31.918V24.861H69.441a5.186,5.186,0,0,1,5.18,5.18v48.2a5.186,5.186,0,0,1-5.18,5.18H7.432a5.186,5.186,0,0,1-5.18-5.18V41.3A1.126,1.126,0,1,0,0,41.3V78.237a7.441,7.441,0,0,0,7.432,7.432H69.441a7.441,7.441,0,0,0,7.432-7.432v-48.2a7.441,7.441,0,0,0-7.432-7.432ZM40.048,44.731a1.669,1.669,0,0,1-3.337,0V40.075a1.669,1.669,0,1,1,3.337,0ZM25.38,47.123a13.017,13.017,0,0,1,11.873-12.95v2.146a3.933,3.933,0,0,0-2.795,3.756v4.657a3.931,3.931,0,0,0,2.795,3.756v2.194H25.38Zm26,0v3.559H39.505V48.487A3.932,3.932,0,0,0,42.3,44.732V40.075a3.933,3.933,0,0,0-2.794-3.756V34.173A13.016,13.016,0,0,1,51.378,47.123Z"/>
    </g>
    <path id="Trazado_102769" data-name="Trazado 102769" d="M44.99,20V88.046a4.707,4.707,0,0,0,4.694,4.694H82.569a4.723,4.723,0,0,0,4.694-4.694V20Z" transform="translate(1087.401 6704.917)" fill="#a3e3eb"/>
    <path id="Trazado_102770" data-name="Trazado 102770" d="M56.694,28A4.694,4.694,0,1,1,52,32.694,4.708,4.708,0,0,1,56.694,28Z" transform="translate(1096.846 6715.694)" fill="#ffca28"/>
    <path id="Trazado_102771" data-name="Trazado 102771" d="M87.263,17.7v4.671H44.99V17.7a4.707,4.707,0,0,1,4.694-4.694H82.569A4.723,4.723,0,0,1,87.263,17.7Z" transform="translate(1087.401 6695.499)" fill="#a3e3eb"/>
    <path id="Trazado_102772" data-name="Trazado 102772" d="M44.99,17H87.263v7.042H44.99Z" transform="translate(1087.401 6700.875)" fill="#656d78"/>
    <path id="Trazado_102790" data-name="Trazado 102790" d="M83.9,105.852H51.038A7.05,7.05,0,0,1,44,98.811V19.052a7.05,7.05,0,0,1,7.042-7.042H83.9a7.05,7.05,0,0,1,7.042,7.042V98.811A7.049,7.049,0,0,1,83.9,105.852ZM51.038,16.7a2.348,2.348,0,0,0-2.347,2.347V98.811a2.348,2.348,0,0,0,2.347,2.347H83.9a2.348,2.348,0,0,0,2.347-2.347V19.052A2.348,2.348,0,0,0,83.9,16.7Z" transform="translate(1086.063 6694.152)"/>
    <path id="Trazado_102791" data-name="Trazado 102791" d="M88.6,20.7H46.343a2.347,2.347,0,0,1,0-4.694H88.6a2.347,2.347,0,0,1,0,4.694Z" transform="translate(1086.063 6699.535)"/>
    <path id="Trazado_102792" data-name="Trazado 102792" d="M88.6,23.7H46.343a2.347,2.347,0,0,1,0-4.694H88.6a2.347,2.347,0,0,1,0,4.694Z" transform="translate(1086.063 6703.575)"/>
    <path id="Trazado_102793" data-name="Trazado 102793" d="M58.039,41.087a7.042,7.042,0,1,1,7.042-7.042A7.05,7.05,0,0,1,58.039,41.087Zm0-9.389a2.347,2.347,0,1,0,2.347,2.347A2.348,2.348,0,0,0,58.039,31.7Z" transform="translate(1095.494 6714.352)"/>
    <path id="Trazado_102794" data-name="Trazado 102794" d="M70.122,43.7H51.344a2.347,2.347,0,0,1,0-4.694H70.122a2.347,2.347,0,0,1,0,4.694Z" transform="translate(1092.8 6730.521)"/>
    <path id="Trazado_102795" data-name="Trazado 102795" d="M70.122,46.7H51.344a2.347,2.347,0,0,1,0-4.694H70.122a2.347,2.347,0,0,1,0,4.694Z" transform="translate(1092.8 6753.304)"/>
    <path id="Trazado_102796" data-name="Trazado 102796" d="M70.122,49.7H51.344a2.347,2.347,0,0,1,0-4.694H70.122a2.347,2.347,0,0,1,0,4.694Z" transform="translate(1092.8 6757.346)"/>
  </g>
</svg>
