<svg xmlns="http://www.w3.org/2000/svg" width="959" height="326.74" viewBox="0 0 959 326.74">
  <g id="Grupo_57410" data-name="Grupo 57410" transform="translate(-317 -7426.26)">
    <path id="Trazado_102807" data-name="Trazado 102807" d="M0,0H292V71H0Z" transform="translate(654 7426.26)" fill="#039be5"/>
    <path id="Trazado_102814" data-name="Trazado 102814" d="M9.026-5.1H4.052V0H.967V-12.8H9.527v2.382H4.052v2.944H9.026ZM13.8,0H10.828V-9.51H13.8ZM10.652-11.962A1.322,1.322,0,0,1,11.109-13a1.724,1.724,0,0,1,1.187-.4,1.724,1.724,0,0,1,1.187.4,1.322,1.322,0,0,1,.457,1.037,1.322,1.322,0,0,1-.457,1.037,1.724,1.724,0,0,1-1.187.4,1.724,1.724,0,0,1-1.187-.4A1.322,1.322,0,0,1,10.652-11.962Zm4.623,7.137a6.421,6.421,0,0,1,.475-2.549,3.821,3.821,0,0,1,1.362-1.709,3.591,3.591,0,0,1,2.065-.6,2.855,2.855,0,0,1,2.32,1L21.6-9.51h2.689V-.36a4.009,4.009,0,0,1-.584,2.184,3.75,3.75,0,0,1-1.692,1.424,6.219,6.219,0,0,1-2.566.5,5.365,5.365,0,0,1-2.026-.4,3.657,3.657,0,0,1-1.5-1.028L17.165.58a2.716,2.716,0,0,0,2.18.976A1.764,1.764,0,0,0,21.313-.466v-.3a2.781,2.781,0,0,1-2.153.94,3.437,3.437,0,0,1-2.812-1.332A5.517,5.517,0,0,1,15.275-4.72Zm2.971.185a3.383,3.383,0,0,0,.439,1.85,1.387,1.387,0,0,0,1.23.681,1.573,1.573,0,0,0,1.4-.642v-4a1.534,1.534,0,0,0-1.38-.65,1.4,1.4,0,0,0-1.239.708A3.858,3.858,0,0,0,18.246-4.641ZM31.641-1.028A3.054,3.054,0,0,1,29.1.176a3,3,0,0,1-2.369-.91,3.826,3.826,0,0,1-.8-2.615V-9.51H28.89v6.179a1.065,1.065,0,0,0,1.187,1.222,1.548,1.548,0,0,0,1.45-.729V-9.51h2.979V0H31.729Zm10.239-5.8L40.9-6.9a1.752,1.752,0,0,0-1.793.879V0H36.149V-9.51h2.777l.1,1.222a2.294,2.294,0,0,1,2.083-1.4,2.888,2.888,0,0,1,.826.105ZM48.041,0a3.344,3.344,0,0,1-.281-.853A2.754,2.754,0,0,1,45.475.176a3.374,3.374,0,0,1-2.285-.813,2.588,2.588,0,0,1-.94-2.043,2.66,2.66,0,0,1,1.143-2.338,5.821,5.821,0,0,1,3.322-.791h.914v-.5q0-1.31-1.134-1.31a.925.925,0,0,0-1.055,1.037H42.478a2.659,2.659,0,0,1,1.173-2.241,4.927,4.927,0,0,1,2.993-.861,4.323,4.323,0,0,1,2.874.888A3.086,3.086,0,0,1,50.6-6.363v4.21a4.311,4.311,0,0,0,.4,2V0ZM46.187-1.934a1.652,1.652,0,0,0,.918-.237,1.487,1.487,0,0,0,.523-.536V-4.228h-.861q-1.547,0-1.547,1.389a.848.848,0,0,0,.272.655A.986.986,0,0,0,46.187-1.934ZM59.941-4.342V0H56.856V-12.8h5.106a5.948,5.948,0,0,1,2.6.541,4.074,4.074,0,0,1,1.749,1.538,4.2,4.2,0,0,1,.62,2.263,3.7,3.7,0,0,1-1.34,2.993A5.561,5.561,0,0,1,61.91-4.342Zm0-2.382h2.021a1.906,1.906,0,0,0,1.367-.448,1.665,1.665,0,0,0,.47-1.266,2.059,2.059,0,0,0-.483-1.433A1.712,1.712,0,0,0,62-10.415H59.941ZM71.561,0H68.59V-13.5h2.971Zm7.181,0a3.344,3.344,0,0,1-.281-.853A2.754,2.754,0,0,1,76.175.176,3.374,3.374,0,0,1,73.89-.637a2.588,2.588,0,0,1-.94-2.043,2.66,2.66,0,0,1,1.143-2.338,5.821,5.821,0,0,1,3.322-.791h.914v-.5q0-1.31-1.134-1.31A.925.925,0,0,0,76.14-6.583H73.178a2.659,2.659,0,0,1,1.173-2.241,4.927,4.927,0,0,1,2.993-.861,4.323,4.323,0,0,1,2.874.888A3.086,3.086,0,0,1,81.3-6.363v4.21a4.311,4.311,0,0,0,.4,2V0ZM76.887-1.934a1.652,1.652,0,0,0,.918-.237,1.487,1.487,0,0,0,.523-.536V-4.228h-.861q-1.547,0-1.547,1.389a.848.848,0,0,0,.272.655A.986.986,0,0,0,76.887-1.934ZM85.658-9.51l.1,1.116a3.225,3.225,0,0,1,2.716-1.292A2.713,2.713,0,0,1,90.69-8.8a4.226,4.226,0,0,1,.76,2.672V0H88.479V-6a1.6,1.6,0,0,0-.29-1.059A1.342,1.342,0,0,0,87.135-7.4a1.413,1.413,0,0,0-1.292.686V0H82.881V-9.51ZM98.446,0a3.344,3.344,0,0,1-.281-.853A2.754,2.754,0,0,1,95.88.176a3.374,3.374,0,0,1-2.285-.813,2.588,2.588,0,0,1-.94-2.043A2.66,2.66,0,0,1,93.8-5.019a5.821,5.821,0,0,1,3.322-.791h.914v-.5q0-1.31-1.134-1.31a.925.925,0,0,0-1.055,1.037H92.883a2.659,2.659,0,0,1,1.173-2.241,4.927,4.927,0,0,1,2.993-.861,4.323,4.323,0,0,1,2.874.888A3.086,3.086,0,0,1,101-6.363v4.21a4.311,4.311,0,0,0,.4,2V0ZM96.592-1.934a1.652,1.652,0,0,0,.918-.237,1.487,1.487,0,0,0,.523-.536V-4.228h-.861q-1.547,0-1.547,1.389a.848.848,0,0,0,.272.655A.986.986,0,0,0,96.592-1.934Z" transform="translate(749 7468)" fill="#fff"/>
    <path id="Trazado_102808" data-name="Trazado 102808" d="M0,0H292V71H0Z" transform="translate(654 7499)" fill="#9fdfff"/>
    <path id="Trazado_102815" data-name="Trazado 102815" d="M11.065-4.166A4.621,4.621,0,0,1,9.554-.971,5.154,5.154,0,0,1,6.047.176,4.99,4.99,0,0,1,3.353-.549a4.759,4.759,0,0,1-1.8-2.061A7.438,7.438,0,0,1,.9-5.713v-1.2a7.491,7.491,0,0,1,.642-3.19,4.835,4.835,0,0,1,1.841-2.127,5.136,5.136,0,0,1,2.773-.747,4.934,4.934,0,0,1,3.41,1.151,4.81,4.81,0,0,1,1.5,3.252H8.851a3.161,3.161,0,0,0-.8-1.991,2.658,2.658,0,0,0-1.894-.611,2.6,2.6,0,0,0-2.228,1.059A5.289,5.289,0,0,0,3.129-7v1.134a5.611,5.611,0,0,0,.743,3.164,2.465,2.465,0,0,0,2.175,1.09,2.875,2.875,0,0,0,1.969-.589,3.071,3.071,0,0,0,.835-1.96ZM18.527,0a3.3,3.3,0,0,1-.246-.888,3.325,3.325,0,0,1-2.5,1.063,3.355,3.355,0,0,1-2.338-.817,2.615,2.615,0,0,1-.905-2.021A2.7,2.7,0,0,1,13.671-5,5.473,5.473,0,0,1,16.9-5.81h1.31v-.624A1.666,1.666,0,0,0,17.8-7.616a1.638,1.638,0,0,0-1.257-.444,1.881,1.881,0,0,0-1.2.365,1.129,1.129,0,0,0-.466.927H12.744a2.37,2.37,0,0,1,.519-1.463A3.455,3.455,0,0,1,14.673-9.3a4.955,4.955,0,0,1,1.991-.387,3.99,3.99,0,0,1,2.663.839,2.993,2.993,0,0,1,1.02,2.36V-2.2a4.861,4.861,0,0,0,.36,2.048V0ZM16.181-1.538a2.429,2.429,0,0,0,1.191-.308,2.055,2.055,0,0,0,.839-.826V-4.465H17.06a3.148,3.148,0,0,0-1.784.413,1.338,1.338,0,0,0-.6,1.169,1.248,1.248,0,0,0,.409.98A1.583,1.583,0,0,0,16.181-1.538ZM24.855,0H22.72V-13.5h2.136Zm6.231-1.529A1.931,1.931,0,0,0,32.414-2a1.591,1.591,0,0,0,.563-1.151h2.013a3.137,3.137,0,0,1-.554,1.657A3.632,3.632,0,0,1,33.029-.272a4.191,4.191,0,0,1-1.916.448,4.055,4.055,0,0,1-3.164-1.292A5.124,5.124,0,0,1,26.78-4.685V-4.9A5.039,5.039,0,0,1,27.94-8.38,4.018,4.018,0,0,1,31.1-9.686a3.907,3.907,0,0,1,2.764.989,3.542,3.542,0,0,1,1.121,2.6H32.977a1.956,1.956,0,0,0-.558-1.345,1.8,1.8,0,0,0-1.332-.527,1.879,1.879,0,0,0-1.6.751,3.834,3.834,0,0,0-.571,2.281V-4.6a3.9,3.9,0,0,0,.558,2.307A1.878,1.878,0,0,0,31.087-1.529Zm11.276.6A3.312,3.312,0,0,1,39.691.176a2.952,2.952,0,0,1-2.342-.905,3.851,3.851,0,0,1-.8-2.619V-9.51h2.136v6.135q0,1.811,1.5,1.811a2.111,2.111,0,0,0,2.1-1.116V-9.51h2.136V0H42.416ZM48.876,0H46.74V-13.5h2.136Zm8.007,0a3.3,3.3,0,0,1-.246-.888,3.325,3.325,0,0,1-2.5,1.063A3.355,3.355,0,0,1,51.8-.642,2.615,2.615,0,0,1,50.9-2.663,2.7,2.7,0,0,1,52.027-5a5.473,5.473,0,0,1,3.23-.813h1.31v-.624a1.666,1.666,0,0,0-.413-1.182A1.638,1.638,0,0,0,54.9-8.06a1.881,1.881,0,0,0-1.2.365,1.129,1.129,0,0,0-.466.927H51.1a2.37,2.37,0,0,1,.519-1.463A3.455,3.455,0,0,1,53.029-9.3a4.955,4.955,0,0,1,1.991-.387,3.99,3.99,0,0,1,2.663.839,2.993,2.993,0,0,1,1.02,2.36V-2.2a4.861,4.861,0,0,0,.36,2.048V0ZM54.536-1.538a2.429,2.429,0,0,0,1.191-.308,2.055,2.055,0,0,0,.839-.826V-4.465H55.415a3.148,3.148,0,0,0-1.784.413,1.338,1.338,0,0,0-.6,1.169,1.248,1.248,0,0,0,.409.98A1.583,1.583,0,0,0,54.536-1.538ZM65.918-7.559a5.285,5.285,0,0,0-.87-.07A1.959,1.959,0,0,0,63.07-6.5V0H60.935V-9.51h2.039l.053,1.063a2.406,2.406,0,0,1,2.145-1.239,2,2,0,0,1,.756.123Zm13.2,4.579H74.162L73.125,0H70.813l4.834-12.8h2L82.485,0h-2.32ZM74.786-4.772H78.5l-1.854-5.309Zm2.522-11.452h2.435l-2.435,2.663H75.595Zm11.4,8.666a5.285,5.285,0,0,0-.87-.07A1.959,1.959,0,0,0,85.86-6.5V0H83.725V-9.51h2.039l.053,1.063a2.406,2.406,0,0,1,2.145-1.239,2,2,0,0,1,.756.123ZM94.078.176A4.419,4.419,0,0,1,90.787-1.1a4.639,4.639,0,0,1-1.261-3.406v-.264a5.706,5.706,0,0,1,.549-2.544,4.181,4.181,0,0,1,1.542-1.745,4.078,4.078,0,0,1,2.215-.624,3.733,3.733,0,0,1,3,1.239,5.24,5.24,0,0,1,1.059,3.507v.861H91.679a2.856,2.856,0,0,0,.787,1.863,2.362,2.362,0,0,0,1.736.686,2.892,2.892,0,0,0,2.391-1.187l1.151,1.1A3.845,3.845,0,0,1,96.218-.294,4.774,4.774,0,0,1,94.078.176Zm-.255-8.147a1.8,1.8,0,0,0-1.419.615,3.189,3.189,0,0,0-.69,1.714h4.069V-5.8a2.6,2.6,0,0,0-.571-1.622A1.785,1.785,0,0,0,93.823-7.972ZM105.231,0a3.3,3.3,0,0,1-.246-.888,3.325,3.325,0,0,1-2.5,1.063,3.355,3.355,0,0,1-2.338-.817,2.615,2.615,0,0,1-.905-2.021A2.7,2.7,0,0,1,100.375-5a5.473,5.473,0,0,1,3.23-.813h1.31v-.624a1.666,1.666,0,0,0-.413-1.182,1.638,1.638,0,0,0-1.257-.444,1.881,1.881,0,0,0-1.2.365,1.129,1.129,0,0,0-.466.927H99.448a2.37,2.37,0,0,1,.519-1.463A3.455,3.455,0,0,1,101.377-9.3a4.955,4.955,0,0,1,1.991-.387,3.99,3.99,0,0,1,2.663.839,2.993,2.993,0,0,1,1.02,2.36V-2.2a4.861,4.861,0,0,0,.36,2.048V0Zm-2.347-1.538a2.429,2.429,0,0,0,1.191-.308,2.055,2.055,0,0,0,.839-.826V-4.465h-1.151a3.148,3.148,0,0,0-1.784.413,1.338,1.338,0,0,0-.6,1.169,1.248,1.248,0,0,0,.409.98A1.583,1.583,0,0,0,102.885-1.538Z" transform="translate(746 7540.74)" fill="#12263f"/>
    <path id="Trazado_102809" data-name="Trazado 102809" d="M0,0H292V71H0Z" transform="translate(654 7682)" fill="#ffca28"/>
    <path id="Trazado_102816" data-name="Trazado 102816" d="M11.065-4.166A4.621,4.621,0,0,1,9.554-.971,5.154,5.154,0,0,1,6.047.176,4.99,4.99,0,0,1,3.353-.549a4.759,4.759,0,0,1-1.8-2.061A7.438,7.438,0,0,1,.9-5.713v-1.2a7.491,7.491,0,0,1,.642-3.19,4.835,4.835,0,0,1,1.841-2.127,5.136,5.136,0,0,1,2.773-.747,4.934,4.934,0,0,1,3.41,1.151,4.81,4.81,0,0,1,1.5,3.252H8.851a3.161,3.161,0,0,0-.8-1.991,2.658,2.658,0,0,0-1.894-.611,2.6,2.6,0,0,0-2.228,1.059A5.289,5.289,0,0,0,3.129-7v1.134a5.611,5.611,0,0,0,.743,3.164,2.465,2.465,0,0,0,2.175,1.09,2.875,2.875,0,0,0,1.969-.589,3.071,3.071,0,0,0,.835-1.96ZM15.144,0H13.008V-9.51h2.136Zm-.4-13.438h2.435l-2.435,2.663H13.025Zm7.813,5.88a5.285,5.285,0,0,0-.87-.07A1.959,1.959,0,0,0,19.705-6.5V0H17.569V-9.51h2.039l.053,1.063a2.406,2.406,0,0,1,2.145-1.239,2,2,0,0,1,.756.123Zm5.089,6.029A1.931,1.931,0,0,0,28.969-2a1.591,1.591,0,0,0,.563-1.151h2.013A3.137,3.137,0,0,1,30.99-1.49,3.632,3.632,0,0,1,29.584-.272a4.191,4.191,0,0,1-1.916.448A4.055,4.055,0,0,1,24.5-1.116a5.124,5.124,0,0,1-1.169-3.568V-4.9A5.039,5.039,0,0,1,24.5-8.38a4.018,4.018,0,0,1,3.164-1.305,3.907,3.907,0,0,1,2.764.989,3.542,3.542,0,0,1,1.121,2.6H29.531a1.956,1.956,0,0,0-.558-1.345,1.8,1.8,0,0,0-1.332-.527,1.879,1.879,0,0,0-1.6.751,3.834,3.834,0,0,0-.571,2.281V-4.6a3.9,3.9,0,0,0,.558,2.307A1.878,1.878,0,0,0,27.642-1.529Zm11.276.6A3.312,3.312,0,0,1,36.246.176,2.952,2.952,0,0,1,33.9-.729a3.851,3.851,0,0,1-.8-2.619V-9.51h2.136v6.135q0,1.811,1.5,1.811a2.111,2.111,0,0,0,2.1-1.116V-9.51h2.136V0H38.971ZM45.431,0H43.295V-13.5h2.136Zm1.925-4.843a5.607,5.607,0,0,1,.554-2.518,4.044,4.044,0,0,1,1.556-1.723,4.383,4.383,0,0,1,2.3-.6,4.154,4.154,0,0,1,3.125,1.239,4.874,4.874,0,0,1,1.3,3.287l.009.5a5.658,5.658,0,0,1-.541,2.514A4,4,0,0,1,54.11-.431a4.415,4.415,0,0,1-2.325.606,4.125,4.125,0,0,1-3.221-1.34,5.133,5.133,0,0,1-1.208-3.573Zm2.136.185a3.832,3.832,0,0,0,.606,2.3,1.971,1.971,0,0,0,1.688.831,1.95,1.95,0,0,0,1.683-.844,4.232,4.232,0,0,0,.6-2.47,3.782,3.782,0,0,0-.62-2.285,1.979,1.979,0,0,0-1.683-.844,1.96,1.96,0,0,0-1.661.831A4.152,4.152,0,0,0,49.491-4.658Z" transform="translate(772 7723.74)" fill="#12263f"/>
    <path id="Trazado_102810" data-name="Trazado 102810" d="M0,0H292V71H0Z" transform="translate(317 7682)" fill="#26a69a"/>
    <path id="Trazado_102817" data-name="Trazado 102817" d="M6-4.931H3.524V0H1.3V-12.8H5.8A5.238,5.238,0,0,1,9.22-11.8a3.512,3.512,0,0,1,1.2,2.874A3.6,3.6,0,0,1,9.8-6.781,3.942,3.942,0,0,1,8.077-5.449L10.951-.114V0H8.569ZM3.524-6.715H5.81a2.541,2.541,0,0,0,1.758-.567A1.977,1.977,0,0,0,8.2-8.833a2.1,2.1,0,0,0-.584-1.591A2.483,2.483,0,0,0,5.871-11H3.524ZM16.515.176A4.419,4.419,0,0,1,13.223-1.1a4.639,4.639,0,0,1-1.261-3.406v-.264a5.706,5.706,0,0,1,.549-2.544,4.181,4.181,0,0,1,1.542-1.745,4.078,4.078,0,0,1,2.215-.624,3.733,3.733,0,0,1,3,1.239,5.24,5.24,0,0,1,1.059,3.507v.861H14.115A2.856,2.856,0,0,0,14.9-2.215a2.362,2.362,0,0,0,1.736.686,2.892,2.892,0,0,0,2.391-1.187l1.151,1.1A3.845,3.845,0,0,1,18.655-.294,4.774,4.774,0,0,1,16.515.176ZM16.26-7.972a1.8,1.8,0,0,0-1.419.615,3.189,3.189,0,0,0-.69,1.714H18.22V-5.8a2.6,2.6,0,0,0-.571-1.622A1.785,1.785,0,0,0,16.26-7.972Zm9.633,6.442A1.931,1.931,0,0,0,27.22-2a1.591,1.591,0,0,0,.563-1.151h2.013a3.137,3.137,0,0,1-.554,1.657A3.632,3.632,0,0,1,27.835-.272a4.191,4.191,0,0,1-1.916.448,4.055,4.055,0,0,1-3.164-1.292,5.124,5.124,0,0,1-1.169-3.568V-4.9a5.039,5.039,0,0,1,1.16-3.476A4.018,4.018,0,0,1,25.91-9.686a3.907,3.907,0,0,1,2.764.989,3.542,3.542,0,0,1,1.121,2.6H27.782a1.956,1.956,0,0,0-.558-1.345,1.8,1.8,0,0,0-1.332-.527,1.879,1.879,0,0,0-1.6.751,3.834,3.834,0,0,0-.571,2.281V-4.6A3.9,3.9,0,0,0,24.28-2.29,1.878,1.878,0,0,0,25.893-1.529Zm8.191-10.292V-9.51h1.679v1.582H34.084v5.309a1.169,1.169,0,0,0,.215.787,1,1,0,0,0,.769.242,3.29,3.29,0,0,0,.747-.088V-.026a5.26,5.26,0,0,1-1.406.2q-2.461,0-2.461-2.716V-7.928H30.384V-9.51h1.564v-2.312ZM43.075,0a3.3,3.3,0,0,1-.246-.888,3.325,3.325,0,0,1-2.5,1.063A3.355,3.355,0,0,1,38-.642a2.615,2.615,0,0,1-.905-2.021A2.7,2.7,0,0,1,38.219-5a5.473,5.473,0,0,1,3.23-.813h1.31v-.624a1.666,1.666,0,0,0-.413-1.182,1.638,1.638,0,0,0-1.257-.444,1.881,1.881,0,0,0-1.2.365,1.129,1.129,0,0,0-.466.927H37.292a2.37,2.37,0,0,1,.519-1.463A3.455,3.455,0,0,1,39.221-9.3a4.955,4.955,0,0,1,1.991-.387,3.99,3.99,0,0,1,2.663.839,2.993,2.993,0,0,1,1.02,2.36V-2.2a4.861,4.861,0,0,0,.36,2.048V0ZM40.729-1.538a2.429,2.429,0,0,0,1.191-.308,2.055,2.055,0,0,0,.839-.826V-4.465H41.607a3.148,3.148,0,0,0-1.784.413,1.338,1.338,0,0,0-.6,1.169,1.248,1.248,0,0,0,.409.98A1.583,1.583,0,0,0,40.729-1.538ZM41.915-13.5H44.35l-2.435,2.663H40.2Zm7.2,3.99.062,1.1a3.419,3.419,0,0,1,2.769-1.274q2.971,0,3.023,3.4V0H52.831V-6.161A1.958,1.958,0,0,0,52.44-7.5a1.645,1.645,0,0,0-1.279-.435,2.058,2.058,0,0,0-1.925,1.169V0H47.1V-9.51Zm7.655,4.685A5.562,5.562,0,0,1,57.81-8.363a3.343,3.343,0,0,1,2.764-1.323,3.132,3.132,0,0,1,2.558,1.134l.1-.958h1.925V-.29a3.832,3.832,0,0,1-1.165,2.953,4.436,4.436,0,0,1-3.142,1.081A5.064,5.064,0,0,1,58.8,3.309a3.631,3.631,0,0,1-1.516-1.138L58.3.888a3.053,3.053,0,0,0,2.426,1.169A2.359,2.359,0,0,0,62.4,1.481a2.206,2.206,0,0,0,.615-1.692V-.853A3.144,3.144,0,0,1,60.557.176a3.335,3.335,0,0,1-2.729-1.327A5.742,5.742,0,0,1,56.769-4.825Zm2.127.185a3.829,3.829,0,0,0,.584,2.254,1.879,1.879,0,0,0,1.622.822,2.055,2.055,0,0,0,1.916-1.107V-6.855a2.026,2.026,0,0,0-1.9-1.081A1.887,1.887,0,0,0,59.48-7.1,4.287,4.287,0,0,0,58.9-4.641ZM73.107-.932A3.312,3.312,0,0,1,70.436.176a2.952,2.952,0,0,1-2.342-.905,3.851,3.851,0,0,1-.8-2.619V-9.51h2.136v6.135q0,1.811,1.5,1.811a2.111,2.111,0,0,0,2.1-1.116V-9.51h2.136V0H73.16ZM79.62,0H77.484V-13.5H79.62Zm1.925-4.843A5.607,5.607,0,0,1,82.1-7.361a4.044,4.044,0,0,1,1.556-1.723,4.383,4.383,0,0,1,2.3-.6,4.154,4.154,0,0,1,3.125,1.239,4.874,4.874,0,0,1,1.3,3.287l.009.5a5.658,5.658,0,0,1-.541,2.514A4,4,0,0,1,88.3-.431a4.415,4.415,0,0,1-2.325.606,4.125,4.125,0,0,1-3.221-1.34,5.133,5.133,0,0,1-1.208-3.573Zm2.136.185a3.832,3.832,0,0,0,.606,2.3,1.971,1.971,0,0,0,1.688.831,1.95,1.95,0,0,0,1.683-.844,4.232,4.232,0,0,0,.6-2.47,3.782,3.782,0,0,0-.62-2.285,1.979,1.979,0,0,0-1.683-.844,1.96,1.96,0,0,0-1.661.831A4.152,4.152,0,0,0,83.681-4.658Z" transform="translate(418 7723.74)" fill="#fff"/>
    <path id="Trazado_102811" data-name="Trazado 102811" d="M0,0H292V71H0Z" transform="translate(984 7682)" fill="#ff5944"/>
    <path id="Trazado_102818" data-name="Trazado 102818" d="M10.547-11H6.557V0H4.351V-11H.4V-12.8H10.547Zm5.88,3.445a5.285,5.285,0,0,0-.87-.07A1.959,1.959,0,0,0,13.579-6.5V0H11.443V-9.51h2.039l.053,1.063A2.406,2.406,0,0,1,15.68-9.686a2,2,0,0,1,.756.123ZM20.048,0H17.912V-9.51h2.136ZM17.78-11.979a1.133,1.133,0,0,1,.312-.817,1.179,1.179,0,0,1,.892-.325,1.193,1.193,0,0,1,.9.325,1.125,1.125,0,0,1,.316.817,1.1,1.1,0,0,1-.316.8,1.2,1.2,0,0,1-.9.321,1.188,1.188,0,0,1-.892-.321A1.107,1.107,0,0,1,17.78-11.979ZM28.055,0a3.3,3.3,0,0,1-.246-.888,3.325,3.325,0,0,1-2.5,1.063,3.355,3.355,0,0,1-2.338-.817,2.615,2.615,0,0,1-.905-2.021A2.7,2.7,0,0,1,23.2-5a5.473,5.473,0,0,1,3.23-.813h1.31v-.624a1.666,1.666,0,0,0-.413-1.182,1.638,1.638,0,0,0-1.257-.444,1.881,1.881,0,0,0-1.2.365,1.129,1.129,0,0,0-.466.927H22.271a2.37,2.37,0,0,1,.519-1.463A3.455,3.455,0,0,1,24.2-9.3a4.955,4.955,0,0,1,1.991-.387,3.99,3.99,0,0,1,2.663.839,2.993,2.993,0,0,1,1.02,2.36V-2.2a4.861,4.861,0,0,0,.36,2.048V0ZM25.708-1.538A2.429,2.429,0,0,0,26.9-1.846a2.055,2.055,0,0,0,.839-.826V-4.465H26.587a3.148,3.148,0,0,0-1.784.413,1.338,1.338,0,0,0-.6,1.169,1.248,1.248,0,0,0,.409.98A1.583,1.583,0,0,0,25.708-1.538ZM26.895-13.5h2.435l-2.435,2.663H25.181Zm7.2,3.99.062,1.1a3.419,3.419,0,0,1,2.769-1.274q2.971,0,3.023,3.4V0H37.811V-6.161a1.958,1.958,0,0,0-.391-1.34,1.645,1.645,0,0,0-1.279-.435,2.058,2.058,0,0,0-1.925,1.169V0H32.08V-9.51Zm7.655,4.685A5.562,5.562,0,0,1,42.79-8.363a3.343,3.343,0,0,1,2.764-1.323,3.132,3.132,0,0,1,2.558,1.134l.1-.958h1.925V-.29a3.832,3.832,0,0,1-1.165,2.953,4.436,4.436,0,0,1-3.142,1.081,5.064,5.064,0,0,1-2.043-.435,3.631,3.631,0,0,1-1.516-1.138L43.277.888A3.053,3.053,0,0,0,45.7,2.057a2.359,2.359,0,0,0,1.679-.576A2.206,2.206,0,0,0,48-.211V-.853A3.144,3.144,0,0,1,45.536.176a3.335,3.335,0,0,1-2.729-1.327A5.742,5.742,0,0,1,41.748-4.825Zm2.127.185a3.829,3.829,0,0,0,.584,2.254,1.879,1.879,0,0,0,1.622.822A2.055,2.055,0,0,0,48-2.672V-6.855a2.026,2.026,0,0,0-1.9-1.081,1.887,1.887,0,0,0-1.639.835A4.287,4.287,0,0,0,43.875-4.641ZM58.087-.932A3.312,3.312,0,0,1,55.415.176a2.952,2.952,0,0,1-2.342-.905,3.851,3.851,0,0,1-.8-2.619V-9.51h2.136v6.135q0,1.811,1.5,1.811a2.111,2.111,0,0,0,2.1-1.116V-9.51h2.136V0H58.14ZM64.6,0H62.464V-13.5H64.6Zm1.925-4.843a5.607,5.607,0,0,1,.554-2.518,4.044,4.044,0,0,1,1.556-1.723,4.383,4.383,0,0,1,2.3-.6,4.154,4.154,0,0,1,3.125,1.239,4.874,4.874,0,0,1,1.3,3.287l.009.5a5.658,5.658,0,0,1-.541,2.514A4,4,0,0,1,73.279-.431a4.415,4.415,0,0,1-2.325.606,4.125,4.125,0,0,1-3.221-1.34,5.133,5.133,0,0,1-1.208-3.573Zm2.136.185a3.832,3.832,0,0,0,.606,2.3,1.971,1.971,0,0,0,1.688.831,1.95,1.95,0,0,0,1.683-.844,4.232,4.232,0,0,0,.6-2.47,3.782,3.782,0,0,0-.62-2.285,1.979,1.979,0,0,0-1.683-.844,1.96,1.96,0,0,0-1.661.831A4.152,4.152,0,0,0,68.66-4.658Z" transform="translate(1102 7723.74)" fill="#fff"/>
    <path id="Trazado_102812" data-name="Trazado 102812" d="M-8597-4118.164v96.328" transform="translate(9397 11700)" fill="none" stroke="#21214b" stroke-width="1"/>
    <path id="Trazado_102813" data-name="Trazado 102813" d="M-8934-4033.246v-40.648h674.738v40.648" transform="translate(9397 11700)" fill="none" stroke="#707070" stroke-width="1"/>
  </g>
</svg>
