<svg xmlns="http://www.w3.org/2000/svg" xmlns:xlink="http://www.w3.org/1999/xlink" width="171.109" height="114.266" viewBox="0 0 171.109 114.266">
  <defs>
    <linearGradient id="linear-gradient" y1="0.5" x2="1.05" y2="0.5" gradientUnits="objectBoundingBox">
      <stop offset="0" stop-color="#ffc533"/>
      <stop offset="1" stop-color="#f8ba26"/>
    </linearGradient>
    <linearGradient id="linear-gradient-2" x1="0" y1="0.5" x2="1" y2="0.5" xlink:href="#linear-gradient"/>
    <linearGradient id="linear-gradient-3" y1="0.5" x2="1" y2="0.5" gradientUnits="objectBoundingBox">
      <stop offset="0" stop-color="#775ca7"/>
      <stop offset="1" stop-color="#57a0d7"/>
    </linearGradient>
    <clipPath id="clip-path">
      <path id="Trazado_98653" data-name="Trazado 98653" d="M435.785,587.151c.012-.014,0-.005,0-.006l-.008.009-.02.024-.047.058c-.033.042-.066.086-.1.133-.067.093-.133.192-.2.3a7.258,7.258,0,0,0-.359.65,9.53,9.53,0,0,0-.56,1.43,12.6,12.6,0,0,0-.511,3.122,4.854,4.854,0,0,0,.606,2.8,7.849,7.849,0,0,0,2.191,2.195l0,0a.7.7,0,0,1-.786,1.168,13.363,13.363,0,0,1-1.488-1.043,7.223,7.223,0,0,1-1.325-1.4,6.009,6.009,0,0,1-.866-1.8,7.8,7.8,0,0,1-.291-1.93,14.65,14.65,0,0,1,.347-3.673,11.777,11.777,0,0,1,.568-1.809,9.609,9.609,0,0,1,.41-.883c.077-.146.16-.292.249-.438.044-.073.092-.147.142-.222l.08-.115.045-.061.025-.034.038-.048a1.215,1.215,0,0,1,1.849,1.577Z" transform="translate(-432.026 -585.147)" fill="none"/>
    </clipPath>
    <linearGradient id="linear-gradient-6" x1="5.396" y1="6.477" x2="6.396" y2="6.477" gradientUnits="objectBoundingBox">
      <stop offset="0" stop-color="#ff6660"/>
      <stop offset="0.219" stop-color="#fe6f60"/>
      <stop offset="0.579" stop-color="#fe8761"/>
      <stop offset="1" stop-color="#fdad64"/>
    </linearGradient>
    <linearGradient id="linear-gradient-7" x1="30.687" y1="0.5" x2="31.687" y2="0.5" xlink:href="#linear-gradient-6"/>
    <linearGradient id="linear-gradient-8" x1="18.111" y1="0.5" x2="19.111" y2="0.5" xlink:href="#linear-gradient-6"/>
    <linearGradient id="linear-gradient-9" x1="19.306" y1="0.5" x2="20.306" y2="0.5" xlink:href="#linear-gradient-6"/>
    <linearGradient id="linear-gradient-10" x1="10.27" y1="0.5" x2="11.27" y2="0.5" xlink:href="#linear-gradient-6"/>
  </defs>
  <g id="Grupo_53317" data-name="Grupo 53317" transform="translate(-305.214 -156.263)">
    <path id="Trazado_98579" data-name="Trazado 98579" d="M416.133,331.184c-2.39,1.38-2.39,3.618,0,5l57.609,33.26a9.567,9.567,0,0,0,8.656,0l62.794-36.255c2.39-1.38,2.39-3.617,0-5l-57.609-33.26a9.566,9.566,0,0,0-8.656,0Z" transform="translate(-91.701 -115.655)" fill="#e5e5e4" style="mix-blend-mode: multiply;isolation: isolate"/>
    <g id="Grupo_53290" data-name="Grupo 53290" transform="translate(311.977 156.263)">
      <g id="Grupo_53286" data-name="Grupo 53286" transform="translate(0 0)">
        <ellipse id="Elipse_19" data-name="Elipse 19" cx="12.914" cy="13.11" rx="12.914" ry="13.11" transform="translate(0 35.875)" fill="#ef5350"/>
        <path id="Trazado_98580" data-name="Trazado 98580" d="M377.133,306.184c-2.39,1.38-2.39,3.618,0,5l57.609,33.26a9.567,9.567,0,0,0,8.656,0l62.794-36.255c2.39-1.38,2.39-3.617,0-5l-57.609-33.26a9.566,9.566,0,0,0-8.656,0Z" transform="translate(-370.906 -250.91)" fill="#e53935"/>
        <path id="Trazado_98581" data-name="Trazado 98581" d="M393.775,223.289l60.519,34.941,65.255-37.675L459.03,185.614Z" transform="translate(-386.396 -180.927)" fill="#dfecff"/>
        <path id="Trazado_98582" data-name="Trazado 98582" d="M393.775,314.5l59.971,34.625a1.1,1.1,0,0,0,1.1,0l64.707-37.359L459.03,276.823Z" transform="translate(-386.397 -257.572)" fill="#dfecff"/>
        <path id="Trazado_98583" data-name="Trazado 98583" d="M393.775,421.558v14.564l18.8,10.857,3.7-12.224Z" transform="translate(-386.396 -379.196)" fill="#dfecff"/>
        <path id="Trazado_98584" data-name="Trazado 98584" d="M1119.676,425.74V412.457l-11.738,6.777,1.282,12.543Z" transform="translate(-986.524 -371.548)" fill="#dfecff"/>
        <path id="Trazado_98585" data-name="Trazado 98585" d="M381.293,206.158,444.087,169.9a9.566,9.566,0,0,1,8.656,0l54.81,31.645v8.229l-60,34.639a9.566,9.566,0,0,1-8.656,0l-57.609-33.26C378.9,209.776,378.9,207.538,381.293,206.158Z" transform="translate(-374.401 -166.856)" fill="#ccc"/>
        <path id="Trazado_98586" data-name="Trazado 98586" d="M381.293,198.55,438.9,231.81a9.566,9.566,0,0,0,8.656,0l62.794-36.254c2.39-1.38,2.39-3.618,0-5L452.743,157.3a9.566,9.566,0,0,0-8.656,0l-62.794,36.254C378.9,194.932,378.9,197.17,381.293,198.55Z" transform="translate(-374.401 -156.263)" fill="#ef5350"/>
        <path id="Trazado_98587" data-name="Trazado 98587" d="M375.672,426.117l2.891,1.787V413.447l-2.891-1.669Z" transform="translate(-371.184 -370.978)" fill="#c62828"/>
        <path id="Trazado_98588" data-name="Trazado 98588" d="M393.775,482.479l60,34.587a1.1,1.1,0,0,0,1.109-.009L519.549,478.4v2.753L455,518.423a1.4,1.4,0,0,1-1.405,0l-59.816-34.535Z" transform="translate(-386.397 -426.962)" fill="#ccc"/>
        <path id="Trazado_98589" data-name="Trazado 98589" d="M379.988,410.759l.845,1.136-1.025-.592Z" transform="translate(-374.66 -370.121)" fill="#ef5350"/>
      </g>
      <g id="Grupo_53289" data-name="Grupo 53289" transform="translate(43.754 20.888)">
        <g id="Grupo_53287" data-name="Grupo 53287" transform="translate(16.578)">
          <path id="Trazado_98590" data-name="Trazado 98590" d="M741.129,291.65l-6.246,3.606a6.573,6.573,0,0,1-2.354.806,7.5,7.5,0,0,1-2.618-.086,8.574,8.574,0,0,1-2.569-.987q-1.862-1.075-1.938-2.22t1.581-2.1l6.22-3.591,2.04,1.178-5.909,3.412q-1.116.645-1.189,1.2t.964,1.159a3.621,3.621,0,0,0,1.981.538,4.646,4.646,0,0,0,2.1-.69l5.9-3.4Z" transform="translate(-725.402 -287.076)" fill="#c62828"/>
          <path id="Trazado_98591" data-name="Trazado 98591" d="M733.69,298.275a7.377,7.377,0,0,1-1.479-.154,8.187,8.187,0,0,1-2.443-.94c-1.106-.639-1.688-1.273-1.728-1.884-.039-.587.423-1.162,1.372-1.71l6.009-3.47,1.2.692-5.279,3.047c-.885.511-1.328.993-1.4,1.515-.109.837.854,1.394,1.171,1.577a4.11,4.11,0,0,0,2.06.6c.05,0,.1,0,.149,0a5.078,5.078,0,0,0,2.292-.746l5.686-3.283,1.2.692-5.615,3.242a6.187,6.187,0,0,1-2.2.755A6.894,6.894,0,0,1,733.69,298.275Z" transform="translate(-727.616 -289.631)" fill="#b52626"/>
          <path id="Trazado_98592" data-name="Trazado 98592" d="M785.861,334.525a5.2,5.2,0,0,1-3,.646,7.691,7.691,0,0,1-3.37-1.077,5.785,5.785,0,0,1-2.152-1.914l1.9-1.1a8.326,8.326,0,0,0,1.04,1.309,5.212,5.212,0,0,0,1.06.818,3.212,3.212,0,0,0,1.291.448,1.845,1.845,0,0,0,1.126-.234.682.682,0,0,0,.346-.383.855.855,0,0,0-.039-.514,7.2,7.2,0,0,0-.6-1.1,3.294,3.294,0,0,1-.528-1.227,1.492,1.492,0,0,1,.185-.922,2.352,2.352,0,0,1,.924-.839,5.143,5.143,0,0,1,2.882-.661,6.888,6.888,0,0,1,3.133.963,6.2,6.2,0,0,1,1.258.932,7.529,7.529,0,0,1,.928,1.115l-2.252.537a7.416,7.416,0,0,0-.835-.993,4.5,4.5,0,0,0-.868-.646,2.51,2.51,0,0,0-1.162-.359,1.848,1.848,0,0,0-1.017.229.756.756,0,0,0-.347.345.663.663,0,0,0,.01.455,7.391,7.391,0,0,0,.621,1.14,2.685,2.685,0,0,1,.558,1.82A2.032,2.032,0,0,1,785.861,334.525Z" transform="translate(-769.044 -321.271)" fill="#c62828"/>
          <path id="Trazado_98593" data-name="Trazado 98593" d="M786.467,336.978q-.194,0-.394-.013a7.308,7.308,0,0,1-3.187-1.021,6.164,6.164,0,0,1-1.757-1.413l1.169-.675a7.988,7.988,0,0,0,.871,1.049,5.663,5.663,0,0,0,1.145.883,3.642,3.642,0,0,0,1.461.5q.124.012.244.012a2.236,2.236,0,0,0,1.132-.3,1.086,1.086,0,0,0,.54-.632,1.264,1.264,0,0,0-.046-.767,6.6,6.6,0,0,0-.637-1.184,2.845,2.845,0,0,1-.469-1.059,1.073,1.073,0,0,1,.136-.668,1.975,1.975,0,0,1,.766-.677,4.675,4.675,0,0,1,2.369-.612c.093,0,.187,0,.282.007a6.5,6.5,0,0,1,2.943.907,5.81,5.81,0,0,1,1.173.868,6.844,6.844,0,0,1,.5.554l-1.36.325a7.125,7.125,0,0,0-.716-.823,4.933,4.933,0,0,0-.949-.707,2.933,2.933,0,0,0-1.356-.415l-.112,0a2.229,2.229,0,0,0-1.132.287,1.158,1.158,0,0,0-.526.552,1.07,1.07,0,0,0,0,.741,6.558,6.558,0,0,0,.663,1.231c.51.834.557,1.281.506,1.509a1.666,1.666,0,0,1-.892.938A4.677,4.677,0,0,1,786.467,336.978Z" transform="translate(-772.231 -323.485)" fill="#b52626"/>
          <path id="Trazado_98594" data-name="Trazado 98594" d="M830.448,359.982l-5.56-3.21,9.653-5.573,5.56,3.21-1.677.968-3.513-2.028-2.12,1.224,3.268,1.887-1.677.968-3.268-1.887-2.489,1.437,3.513,2.028Z" transform="translate(-809.002 -340.96)" fill="#c62828"/>
          <path id="Trazado_98595" data-name="Trazado 98595" d="M830.156,359.328l8.812-5.088,4.719,2.724-.836.483-3.513-2.028-2.961,1.709,3.268,1.887-.836.483-3.268-1.887-3.33,1.923,3.513,2.028-.849.49Z" transform="translate(-813.429 -343.516)" fill="#b52626"/>
          <path id="Trazado_98596" data-name="Trazado 98596" d="M878.068,383.2l-3.7,2.139-2.047-1.182,9.653-5.573,2.813,1.624q1.967,1.136,2.2,2.095t-1.232,1.8a4.886,4.886,0,0,1-1.984.6,7.4,7.4,0,0,1-2.367-.166q-1.076,3.137-1.367,4.067l-2.271-1.311,1.4-3.469Zm1.664-.961.66.381a4.519,4.519,0,0,0,1.756.64,2.4,2.4,0,0,0,1.479-.32q.687-.4.505-.837a2.711,2.711,0,0,0-1.172-1.012l-.621-.358Z" transform="translate(-848.858 -363.97)" fill="#c62828"/>
          <path id="Trazado_98597" data-name="Trazado 98597" d="M882.711,389.67l1.4-3.469-1.616-.933-3.7,2.138-1.206-.7,8.812-5.088,2.6,1.5c1.5.864,1.912,1.471,2,1.828.1.434-.244.885-1.033,1.34a4.492,4.492,0,0,1-1.815.55c-.2.02-.411.03-.618.03a7.36,7.36,0,0,1-1.615-.188l-.368-.083-.122.357c-.572,1.668-.971,2.849-1.21,3.579Zm.606-4.877,1.291.745a4.946,4.946,0,0,0,1.924.695,2.916,2.916,0,0,0,.3.016,2.829,2.829,0,0,0,1.43-.39c.875-.505.8-1.07.684-1.361a2.973,2.973,0,0,0-1.351-1.216l-.831-.48Z" transform="translate(-853.285 -366.526)" fill="#b52626"/>
        </g>
        <g id="Grupo_53288" data-name="Grupo 53288" transform="translate(0 6.797)">
          <path id="Trazado_98598" data-name="Trazado 98598" d="M628.8,333l3.83,2.211-5,2.89a19.486,19.486,0,0,1-2.179-.766,16.91,16.91,0,0,1-1.8-.9q-2.186-1.262-2.053-2.668t2.536-2.794a9.675,9.675,0,0,1,4.982-1.333,10.011,10.011,0,0,1,5.015,1.386,6.85,6.85,0,0,1,2.271,2l-2.318.553a4.4,4.4,0,0,0-1.67-1.574,5.56,5.56,0,0,0-3.017-.713,6.729,6.729,0,0,0-3.2.922q-1.572.907-1.756,1.757t1.043,1.559a10.153,10.153,0,0,0,1.433.675l2.014-1.163-1.829-1.056Z" transform="translate(-621.581 -329.644)" fill="#c62828"/>
          <path id="Trazado_98599" data-name="Trazado 98599" d="M629.785,339.864a18.753,18.753,0,0,1-1.96-.7,16.521,16.521,0,0,1-1.758-.877c-1.3-.748-1.916-1.51-1.845-2.265.074-.79.857-1.621,2.327-2.469a9.3,9.3,0,0,1,4.7-1.276h.064a9.641,9.641,0,0,1,4.807,1.329,7.035,7.035,0,0,1,1.745,1.377l-1.386.331a5.043,5.043,0,0,0-1.654-1.46,5.935,5.935,0,0,0-3.008-.773q-.115,0-.233,0a7.177,7.177,0,0,0-3.393.979c-1.165.673-1.805,1.337-1.957,2.032-.166.764.253,1.441,1.244,2.013a10.654,10.654,0,0,0,1.492.7l.187.072,2.819-1.627-1.829-1.056.862-.5L634,337.429Z" transform="translate(-623.796 -331.857)" fill="#b52626"/>
          <path id="Trazado_98600" data-name="Trazado 98600" d="M698.1,361.878l-6.246,3.606a6.571,6.571,0,0,1-2.354.806,7.493,7.493,0,0,1-2.618-.086,8.567,8.567,0,0,1-2.568-.987q-1.862-1.075-1.938-2.22t1.581-2.1l6.22-3.591,2.04,1.178-5.909,3.412q-1.116.644-1.188,1.2t.964,1.159a3.623,3.623,0,0,0,1.981.537,4.645,4.645,0,0,0,2.1-.69l5.9-3.4Z" transform="translate(-672.666 -352.887)" fill="#c62828"/>
          <path id="Trazado_98601" data-name="Trazado 98601" d="M690.66,368.5a7.355,7.355,0,0,1-1.479-.154,8.184,8.184,0,0,1-2.443-.94c-1.106-.639-1.688-1.273-1.729-1.884-.039-.587.423-1.163,1.372-1.71l6.009-3.469,1.2.692-5.279,3.047c-.884.511-1.328.992-1.4,1.515-.109.838.854,1.394,1.171,1.577a4.111,4.111,0,0,0,2.059.6c.05,0,.1,0,.15,0a5.077,5.077,0,0,0,2.292-.746l5.686-3.283,1.2.692-5.615,3.242a6.183,6.183,0,0,1-2.2.755A6.9,6.9,0,0,1,690.66,368.5Z" transform="translate(-674.88 -355.444)" fill="#b52626"/>
          <path id="Trazado_98602" data-name="Trazado 98602" d="M735.216,400.071l9.653-5.573,2.047,1.182-9.653,5.573Z" transform="translate(-717.071 -384.142)" fill="#c62828"/>
          <path id="Trazado_98603" data-name="Trazado 98603" d="M740.484,402.627l8.812-5.088,1.206.7-8.812,5.087Z" transform="translate(-721.498 -386.698)" fill="#b52626"/>
          <path id="Trazado_98604" data-name="Trazado 98604" d="M776.179,418.041a9.484,9.484,0,0,1-5.008,1.325,10.7,10.7,0,0,1-5.187-1.53l-2.734-1.578,9.653-5.573,3.031,1.75q2.364,1.365,2.424,2.84T776.179,418.041Zm-2.179-1.2q3.11-1.8.363-3.381l-1.089-.629-6.286,3.629.878.507A5.761,5.761,0,0,0,774,416.844Z" transform="translate(-740.629 -397.744)" fill="#c62828"/>
          <path id="Trazado_98605" data-name="Trazado 98605" d="M775.607,421.5a10.336,10.336,0,0,1-4.985-1.474l-2.1-1.214,8.812-5.087,2.82,1.628c1.435.829,2.18,1.667,2.213,2.493.033.81-.63,1.613-1.969,2.386a9.125,9.125,0,0,1-4.608,1.27Zm-5.032-2.482,1.509.871a6.188,6.188,0,0,0,3.114.88h0a6.877,6.877,0,0,0,3.44-1.006c1.253-.723,1.862-1.447,1.862-2.212,0-.695-.49-1.316-1.5-1.9l-1.3-.75Z" transform="translate(-745.056 -400.3)" fill="#b52626"/>
          <path id="Trazado_98606" data-name="Trazado 98606" d="M831.5,455.659l-5.56-3.21,9.653-5.573,5.56,3.21-1.677.968-3.513-2.028-2.119,1.224,3.268,1.887-1.677.968-3.268-1.887-2.489,1.437,3.513,2.028Z" transform="translate(-793.307 -428.157)" fill="#c62828"/>
          <path id="Trazado_98607" data-name="Trazado 98607" d="M831.206,455l8.812-5.087,4.719,2.724-.836.483-3.513-2.028-2.961,1.71,3.268,1.887-.836.483-3.268-1.887-3.33,1.923,3.513,2.028-.849.49Z" transform="translate(-797.733 -430.712)" fill="#b52626"/>
        </g>
      </g>
    </g>
    <g id="Grupo_53302" data-name="Grupo 53302" transform="translate(305.214 187.384)">
      <g id="Grupo_53292" data-name="Grupo 53292" transform="translate(1.89 27.694)">
        <g id="Grupo_53291" data-name="Grupo 53291" transform="translate(10.659 3.432)">
          <path id="Trazado_98608" data-name="Trazado 98608" d="M386.421,546.669c.443.44.115,1.088-.533,1.739a1.3,1.3,0,0,1-1.873.208c-.443-.44-.131-1.055.516-1.706a7.209,7.209,0,0,1,.925-.727C385.892,545.9,386.13,546.38,386.421,546.669Z" transform="translate(-383.808 -546.096)" fill="#f89ab5"/>
          <path id="Trazado_98609" data-name="Trazado 98609" d="M386.729,546.09l-.8,1.18-.894.278.5-.867a1.084,1.084,0,0,1,.791-.535Z" transform="translate(-384.842 -546.09)" fill="#f89ab5"/>
        </g>
        <path id="Trazado_98610" data-name="Trazado 98610" d="M319.87,526.214c0,.009,0,.054,0,.085v.106l0,.22c0,.149.011.3.021.45.02.3.05.6.09.9a11.36,11.36,0,0,0,.371,1.753,5.692,5.692,0,0,0,1.668,2.792c.049.041.1.08.15.118l.026.02.015.012c.011.007.021.016.033.023a.67.67,0,0,0,.185.078,1.7,1.7,0,0,0,.621.021,5.286,5.286,0,0,0,1.586-.518,9.5,9.5,0,0,0,1.548-.953,8.047,8.047,0,0,0,.689-.58,4.106,4.106,0,0,0,.539-.609l.017-.025a.815.815,0,0,1,1.379.865,5.6,5.6,0,0,1-.7.952,9.768,9.768,0,0,1-.783.774,11.349,11.349,0,0,1-1.761,1.284,7.272,7.272,0,0,1-2.146.876,3.873,3.873,0,0,1-1.369.055,2.925,2.925,0,0,1-.765-.225c-.063-.028-.126-.061-.188-.094l-.091-.053-.046-.027-.033-.021c-.087-.056-.173-.112-.257-.173A6.764,6.764,0,0,1,319,532.592a9.83,9.83,0,0,1-1.04-2.035,13.924,13.924,0,0,1-.61-2.121q-.111-.536-.185-1.077c-.025-.181-.046-.363-.065-.547l-.025-.279-.01-.144c0-.052-.006-.091-.008-.165l0-.172a1.416,1.416,0,0,1,2.831-.08A1.52,1.52,0,0,1,319.87,526.214Z" transform="translate(-317.052 -524.596)" fill="url(#linear-gradient)"/>
      </g>
      <ellipse id="Elipse_20" data-name="Elipse 20" cx="7.866" cy="4.542" rx="7.866" ry="4.542" transform="translate(0 65.238)" fill="#f2f2f2"/>
      <circle id="Elipse_21" data-name="Elipse 21" cx="3.142" cy="3.142" r="3.142" transform="translate(2.662 46.495) rotate(-43.513)" fill="#5f4b8b"/>
      <g id="Grupo_53293" data-name="Grupo 53293" transform="translate(2.903 66.683)">
        <path id="Trazado_98611" data-name="Trazado 98611" d="M323.521,774.963a.643.643,0,0,0-.106.5.614.614,0,0,0,.343.361,1.989,1.989,0,0,0,.89.212,25.147,25.147,0,0,0,2.658-1.764,1.206,1.206,0,0,0,.4-1.486Z" transform="translate(-323.396 -772.142)" fill="#666"/>
        <path id="Trazado_98612" data-name="Trazado 98612" d="M328.468,772.783l-.046.023a1.2,1.2,0,0,1-.43,1.384,25.125,25.125,0,0,1-2.658,1.765c-.25.1-.549-.046-.873-.166a.72.72,0,0,1-.155-.119.848.848,0,0,0,.224.212,1.182,1.182,0,0,0,.883.152,25.147,25.147,0,0,0,2.658-1.764A1.206,1.206,0,0,0,328.468,772.783Z" transform="translate(-324.161 -772.142)" fill="#333"/>
        <path id="Trazado_98613" data-name="Trazado 98613" d="M324.636,770.372l-.353.433-.1.785s.626.683,2.038-.2c.845-.532,1.411-.9,1.717-1.132a1.122,1.122,0,0,0,.426-.869.831.831,0,0,0-.508-.606,7.851,7.851,0,0,0-1.942.683Z" transform="translate(-324.056 -768.769)" fill="#f7b75d"/>
        <path id="Trazado_98614" data-name="Trazado 98614" d="M333.429,769.363a.843.843,0,0,0-.5-.584,7.068,7.068,0,0,0-1.892.66l-.818,1.212.734.2C332.8,770.148,333.3,769.647,333.429,769.363Z" transform="translate(-329.126 -768.769)" fill="#ffc988"/>
        <path id="Trazado_98615" data-name="Trazado 98615" d="M334.405,771.549l.251.2s.471.532.245.845a2.7,2.7,0,0,1-.731.592l-.122-1.531Z" transform="translate(-332.346 -771.105)" fill="#f7b75d"/>
      </g>
      <path id="Trazado_98616" data-name="Trazado 98616" d="M322.484,627.235l.286,10.612.006.216-.008.051-1.729,11.925a.932.932,0,0,1-1.853-.172l.5-12.04,0,.268-1.417-10.521a2.12,2.12,0,1,1,4.2-.566A2.219,2.219,0,0,1,322.484,627.235Z" transform="translate(-316.163 -581.418)" fill="#0353fe"/>
      <g id="Grupo_53294" data-name="Grupo 53294" transform="translate(8.375 68.658)">
        <path id="Trazado_98617" data-name="Trazado 98617" d="M357.787,787.335a.642.642,0,0,0-.106.5.615.615,0,0,0,.343.361,1.991,1.991,0,0,0,.89.212,25.12,25.12,0,0,0,2.658-1.764,1.206,1.206,0,0,0,.4-1.486Z" transform="translate(-357.662 -784.514)" fill="#666"/>
        <path id="Trazado_98618" data-name="Trazado 98618" d="M362.734,785.155l-.046.023a1.2,1.2,0,0,1-.43,1.384,25.172,25.172,0,0,1-2.658,1.764c-.251.1-.549-.046-.873-.166a.716.716,0,0,1-.155-.119.851.851,0,0,0,.224.212,1.182,1.182,0,0,0,.884.153,25.12,25.12,0,0,0,2.658-1.764A1.206,1.206,0,0,0,362.734,785.155Z" transform="translate(-358.427 -784.514)" fill="#333"/>
        <path id="Trazado_98619" data-name="Trazado 98619" d="M358.9,782.744l-.353.433-.1.785s.626.683,2.038-.2c.845-.532,1.411-.9,1.717-1.132a1.122,1.122,0,0,0,.426-.869.831.831,0,0,0-.508-.606,7.853,7.853,0,0,0-1.942.683Z" transform="translate(-358.322 -781.141)" fill="#f7b75d"/>
        <path id="Trazado_98620" data-name="Trazado 98620" d="M367.7,781.735a.843.843,0,0,0-.5-.584,7.076,7.076,0,0,0-1.892.66l-.818,1.212.734.2C367.071,782.52,367.565,782.019,367.7,781.735Z" transform="translate(-363.392 -781.141)" fill="#ffc988"/>
        <path id="Trazado_98621" data-name="Trazado 98621" d="M368.672,783.921l.25.2s.472.532.245.845a2.7,2.7,0,0,1-.731.592l-.122-1.531Z" transform="translate(-366.612 -783.477)" fill="#f7b75d"/>
      </g>
      <g id="Grupo_53298" data-name="Grupo 53298" transform="translate(7.262)">
        <g id="Grupo_53297" data-name="Grupo 53297">
          <path id="Trazado_98622" data-name="Trazado 98622" d="M413.022,367.442l1.342,4.591c.966,3.362,3.843,5.065,7.2,5.884,12.194,2.973,30.155-6.321,27.257-16.067l-1.169-4c-2.912-10.134-23.155-7.9-31.662,1C413.74,361.208,412.089,364.307,413.022,367.442Zm4.594,1.282a9.3,9.3,0,0,1,2.487-4.24c6.186-6.473,19.359-8.358,24.227-3.57a9.294,9.294,0,0,1-2.487,4.24C435.657,371.627,422.485,373.513,417.616,368.725Z" transform="translate(-402.846 -351.163)" fill="#dbdbdb"/>
          <g id="Grupo_53295" data-name="Grupo 53295" transform="translate(10.611 5.729)">
            <path id="Trazado_98623" data-name="Trazado 98623" d="M443.226,393.3c6.186-6.473,19.359-8.358,24.227-3.57a6.7,6.7,0,0,1-.236.8c-5.29-4.084-17.662-2.1-23.6,4.114a10.042,10.042,0,0,0-2.251,3.444,6.956,6.956,0,0,1-.628-.544A9.294,9.294,0,0,1,443.226,393.3Z" transform="translate(-436.972 -387.044)" fill="#b3b3b3"/>
            <path id="Trazado_98624" data-name="Trazado 98624" d="M424.864,419.866c12.194,2.973,30.155-6.321,27.257-16.067l-.328-1.123.72,2.462c2.9,9.746-15.062,19.04-27.257,16.067-3.359-.819-6.236-2.522-7.2-5.884l-.907-3.1.515,1.762C418.627,417.344,421.5,419.047,424.864,419.866Z" transform="translate(-417.146 -400.181)" fill="#cecece"/>
          </g>
          <path id="Trazado_98625" data-name="Trazado 98625" d="M415.981,358.854c-5.6,5.857-3.754,12.161,4.117,14.08s18.79-1.273,24.388-7.13,3.754-12.161-4.117-14.08S421.579,353,415.981,358.854Zm2.653.647c4.556-4.767,13.442-7.365,19.848-5.8s7.906,6.692,3.35,11.459-13.442,7.365-19.848,5.8S414.079,364.268,418.634,359.5Z" transform="translate(-402.835 -351.166)" fill="#f2f2f2"/>
          <path id="Trazado_98626" data-name="Trazado 98626" d="M440.12,452.754l-.118.762a4.784,4.784,0,0,0,.509.578l.236-.8Z" transform="translate(-425.741 -436.532)" fill="#b3b3b3"/>
          <path id="Trazado_98627" data-name="Trazado 98627" d="M606.632,403.657l.51.579a4.774,4.774,0,0,1-.118.761l-.628-.543Z" transform="translate(-565.566 -395.275)" fill="#b3b3b3"/>
          <path id="Trazado_98628" data-name="Trazado 98628" d="M451.119,384.74a20.458,20.458,0,0,0,8.983-5.126c2.071-2.167,2.892-4.453,2.312-6.437S459.91,369.71,457,369a22.294,22.294,0,0,0-19.312,5.646c-2.071,2.167-2.892,4.453-2.312,6.437s2.5,3.467,5.415,4.178A20.459,20.459,0,0,0,451.119,384.74Z" transform="translate(-421.7 -365.781)" fill="#34b2cc" opacity="0.15"/>
          <path id="Trazado_98629" data-name="Trazado 98629" d="M462.928,374.268c-.58-1.984-2.5-3.467-5.415-4.177a22.295,22.295,0,0,0-19.312,5.646,9.787,9.787,0,0,0-2.056,3.046,8.565,8.565,0,0,1,2.406-4.239,22.295,22.295,0,0,1,19.312-5.646c2.912.71,4.835,2.194,5.415,4.177a5.119,5.119,0,0,1-.255,3.392A4.732,4.732,0,0,0,462.928,374.268Z" transform="translate(-422.5 -365.695)" fill="#fff" opacity="0.41"/>
          <path id="Trazado_98630" data-name="Trazado 98630" d="M439.4,382.337c6.4,1.552,15.273-1.043,19.826-5.8s3.058-9.865-3.338-11.417-15.273,1.043-19.826,5.8S433.006,380.785,439.4,382.337Zm-5.31-4.644c-.58-1.984.245-4.271,2.322-6.44a22.4,22.4,0,0,1,19.361-5.661c2.919.708,4.845,2.191,5.425,4.174s-.245,4.271-2.322,6.44a22.4,22.4,0,0,1-19.361,5.661C436.6,381.159,434.672,379.677,434.092,377.693Z" transform="translate(-420.218 -362.516)" fill="#ccc"/>
          <g id="Grupo_53296" data-name="Grupo 53296" transform="translate(0 21.298)">
            <path id="Trazado_98631" data-name="Trazado 98631" d="M356.524,513.461l16.6-18.268-3.98-3.738-16.778,18.49Z" transform="translate(-352.099 -490.352)" fill="#a1a8d5"/>
            <path id="Trazado_98632" data-name="Trazado 98632" d="M350.783,606.924a4.272,4.272,0,0,0,2.795,2.671c1.2.292,1.888-.43,1.542-1.614a4.272,4.272,0,0,0-2.795-2.671C351.127,605.019,350.437,605.741,350.783,606.924Z" transform="translate(-350.693 -585.972)" fill="#8a90b2"/>
            <path id="Trazado_98633" data-name="Trazado 98633" d="M426.894,503.349l1.132-1.228c1.222-1.314,4.6.625,5.316,3.082a1.725,1.725,0,0,1-.358,1.862l-1.377,1.493c-1.333,1.433-4.67-.663-5.362-3.033A1.861,1.861,0,0,1,426.894,503.349Z" transform="translate(-414.08 -498.958)" fill="#8a90b2"/>
            <ellipse id="Elipse_22" data-name="Elipse 22" cx="1.578" cy="2.734" rx="1.578" ry="2.734" transform="translate(15.917 2.282) rotate(-46.298)" fill="#a1a8d5"/>
            <ellipse id="Elipse_23" data-name="Elipse 23" cx="1.603" cy="2.776" rx="1.603" ry="2.776" transform="translate(11.264 7.273) rotate(-46.298)" fill="#a1a8d5"/>
          </g>
        </g>
      </g>
      <path id="Trazado_98634" data-name="Trazado 98634" d="M349.314,638l.473,10.919.007.137-.581,12.114a.9.9,0,0,1-1.8,0l-.627-12.111.007.137-1.557-10.818a2.052,2.052,0,0,1,4.061-.585C349.3,637.867,349.311,637.937,349.314,638Z" transform="translate(-338.825 -590.552)" fill="#0353fe"/>
      <path id="Trazado_98635" data-name="Trazado 98635" d="M324.942,542.832l.026-.5-.176-8.422.109-1.778,1.035-3.705-3.4-2.167-4.761-1.113-.893,1.961a6.788,6.788,0,0,0-.557,1.968,34.541,34.541,0,0,0-.211,6.947,10.77,10.77,0,0,1,.226,2.069l.132,3.622a1.242,1.242,0,0,0,.333.8,12.361,12.361,0,0,0,7.193,3.5.777.777,0,0,0,.9-.752Z" transform="translate(-314.297 -497.365)" fill="url(#linear-gradient-2)"/>
      <path id="Trazado_98636" data-name="Trazado 98636" d="M330.126,542.832l.026-.5.031-8,.488-1.818.449-4.089-3.4-2.167-4.761-1.113-.769.264.475.468a8.5,8.5,0,0,0,4.692,2.351l1.524.232-1.035,3.7-.109,1.778.176,8.422.6,3.532c.111.022.37.068.668.115a.776.776,0,0,0,.9-.753Z" transform="translate(-319.481 -497.365)" opacity="0.1" fill="url(#linear-gradient-3)" style="mix-blend-mode: multiply;isolation: isolate"/>
      <path id="Trazado_98637" data-name="Trazado 98637" d="M334.91,511.123l-.483,2.466a4.978,4.978,0,0,0,2.959,1.048l.019-2.808Z" transform="translate(-329.762 -485.581)" fill="#f89ab5"/>
      <path id="Trazado_98638" data-name="Trazado 98638" d="M337.527,510.991A3.456,3.456,0,0,0,340,512.845l.023-1.023Z" transform="translate(-332.367 -485.47)" fill="#e6e6e6" style="mix-blend-mode: multiply;isolation: isolate"/>
      <g id="Grupo_53299" data-name="Grupo 53299" transform="translate(4.293 19.153)">
        <path id="Trazado_98639" data-name="Trazado 98639" d="M338.2,478.968c-.62,1.638-2.477,3.054-4.115,2.573-1.15-.527-1.952-2.329-1.982-4.221a3.178,3.178,0,0,1,3.948-2.482c1.483-.2,2.033,1.285,1.989,3.243C338.033,478.361,338.24,478.672,338.2,478.968Z" transform="translate(-332.102 -474.136)" fill="#f89ab5"/>
        <path id="Trazado_98640" data-name="Trazado 98640" d="M348.324,478.672c.04-1.783-.412-3.174-1.612-3.257.887.349,1.229,1.607,1.193,3.165-.006.281.2.591.16.887a3.968,3.968,0,0,1-3.723,2.651l.028.015c1.638.48,3.494-.935,4.115-2.573C348.525,479.263,348.318,478.953,348.324,478.672Z" transform="translate(-342.388 -474.728)" fill="#ea8cac"/>
        <path id="Trazado_98641" data-name="Trazado 98641" d="M338.466,473.5a10.047,10.047,0,0,1-6.364.8s1.846-5.339,6.382-2.189A1.647,1.647,0,0,1,338.466,473.5Z" transform="translate(-332.102 -471.113)" fill="#0a1a4e"/>
        <path id="Trazado_98642" data-name="Trazado 98642" d="M335.381,480.273a1.674,1.674,0,0,1-.131-1.075c.151-.516.834-.456.834-.456l.319-1.573-.844-2.431a3.227,3.227,0,0,0-3.456,2.585,5.425,5.425,0,0,0,1.493,3.9Z" transform="translate(-332.102 -474.14)" fill="#0a1a4e"/>
      </g>
      <path id="Trazado_98643" data-name="Trazado 98643" d="M334.2,523.843s.656,1.246,2.875,1.24l0,.243a4.053,4.053,0,0,1-3.018-.919Z" transform="translate(-329.455 -496.27)" fill="url(#linear-gradient-2)"/>
      <g id="Grupo_53301" data-name="Grupo 53301" transform="translate(9.161 30.347)">
        <g id="Grupo_53300" data-name="Grupo 53300" transform="translate(10.659 3.432)">
          <path id="Trazado_98644" data-name="Trazado 98644" d="M431.954,563.286c.443.44.115,1.088-.533,1.739a1.3,1.3,0,0,1-1.873.208c-.443-.44-.131-1.055.516-1.706a7.2,7.2,0,0,1,.925-.727C431.426,562.519,431.664,563,431.954,563.286Z" transform="translate(-429.342 -562.713)" fill="#f89ab5"/>
          <path id="Trazado_98645" data-name="Trazado 98645" d="M432.263,562.707l-.8,1.18-.894.278.5-.867a1.084,1.084,0,0,1,.791-.535Z" transform="translate(-430.376 -562.707)" fill="#f89ab5"/>
        </g>
        <path id="Trazado_98646" data-name="Trazado 98646" d="M365.4,542.831c0,.009,0,.054,0,.085v.106l0,.22c0,.149.011.3.021.45.02.3.05.6.09.9a11.335,11.335,0,0,0,.371,1.753,5.692,5.692,0,0,0,1.667,2.793c.049.041.1.08.15.118l.026.02.015.012c.011.007.021.016.033.023a.666.666,0,0,0,.185.078,1.7,1.7,0,0,0,.621.021,5.3,5.3,0,0,0,1.586-.518,9.507,9.507,0,0,0,1.548-.953,8.013,8.013,0,0,0,.688-.58,4.1,4.1,0,0,0,.539-.609l.017-.025a.815.815,0,0,1,1.379.865,5.594,5.594,0,0,1-.7.952,9.751,9.751,0,0,1-.783.774,11.356,11.356,0,0,1-1.761,1.284,7.273,7.273,0,0,1-2.146.876,3.872,3.872,0,0,1-1.369.055,2.925,2.925,0,0,1-.765-.225c-.063-.028-.126-.061-.188-.094l-.091-.053-.045-.027-.033-.021c-.087-.056-.173-.112-.257-.173a6.768,6.768,0,0,1-1.666-1.732,9.836,9.836,0,0,1-1.04-2.035,13.9,13.9,0,0,1-.61-2.121q-.111-.536-.185-1.077c-.025-.181-.046-.363-.065-.547l-.025-.279-.01-.144c0-.052-.006-.091-.008-.165l0-.172a1.416,1.416,0,0,1,2.83-.08A1.519,1.519,0,0,1,365.4,542.831Z" transform="translate(-362.586 -541.213)" fill="url(#linear-gradient)"/>
      </g>
    </g>
    <g id="Grupo_53314" data-name="Grupo 53314" transform="translate(323.542 217.357)">
      <ellipse id="Elipse_24" data-name="Elipse 24" cx="7.843" cy="4.528" rx="7.843" ry="4.528" transform="translate(0 44.115)" fill="#e6e6e6" style="mix-blend-mode: multiply;isolation: isolate"/>
      <g id="Grupo_53313" data-name="Grupo 53313" transform="translate(0.734 0)">
        <path id="Trazado_98647" data-name="Trazado 98647" d="M444.649,828.548a.641.641,0,0,0-.106.5.612.612,0,0,0,.342.36,1.986,1.986,0,0,0,.887.211,25.074,25.074,0,0,0,2.65-1.759,1.2,1.2,0,0,0,.4-1.481Z" transform="translate(-441.341 -780.466)" fill="#666"/>
        <path id="Trazado_98648" data-name="Trazado 98648" d="M449.582,826.374l-.046.023a1.2,1.2,0,0,1-.429,1.379,25.035,25.035,0,0,1-2.65,1.76c-.25.1-.548-.046-.871-.166a.716.716,0,0,1-.154-.119.846.846,0,0,0,.223.211,1.179,1.179,0,0,0,.881.152,25.074,25.074,0,0,0,2.65-1.759A1.2,1.2,0,0,0,449.582,826.374Z" transform="translate(-442.103 -780.466)" fill="#333"/>
        <path id="Trazado_98649" data-name="Trazado 98649" d="M445.762,823.97l-.352.431-.1.783s.624.681,2.032-.2c.842-.53,1.407-.9,1.712-1.129a1.119,1.119,0,0,0,.424-.866.828.828,0,0,0-.506-.6,7.83,7.83,0,0,0-1.937.681Z" transform="translate(-441.999 -777.102)" fill="#f7b75d"/>
        <path id="Trazado_98650" data-name="Trazado 98650" d="M454.529,822.963a.841.841,0,0,0-.5-.583,7.055,7.055,0,0,0-1.886.658l-.815,1.209.732.2C453.906,823.746,454.4,823.247,454.529,822.963Z" transform="translate(-447.055 -777.102)" fill="#ffc988"/>
        <g id="Grupo_53308" data-name="Grupo 53308" transform="translate(1.188 7.39)">
          <g id="Grupo_53303" data-name="Grupo 53303" transform="translate(3.92 12.579)">
            <path id="Trazado_98651" data-name="Trazado 98651" d="M458.812,665.352c-.165.462-.735.445-1.414.2a1.022,1.022,0,0,1-.774-1.262c.165-.462.707-.446,1.386-.2a5.658,5.658,0,0,1,.826.415C459.18,664.72,458.92,665.049,458.812,665.352Z" transform="translate(-456.576 -663.922)" fill="#f89ab5"/>
            <path id="Trazado_98652" data-name="Trazado 98652" d="M463.184,664.689l-1.105-.171-.5-.543.783.063a.851.851,0,0,1,.645.384Z" transform="translate(-460.783 -663.966)" fill="#f89ab5"/>
          </g>
          <g id="Grupo_53307" data-name="Grupo 53307">
            <g id="Grupo_53306" data-name="Grupo 53306">
              <g id="Grupo_53305" data-name="Grupo 53305" clip-path="url(#clip-path)">
                <g id="Grupo_53304" data-name="Grupo 53304" transform="translate(-9.497 -4.088)">
                  <rect id="Rectángulo_4800" data-name="Rectángulo 4800" width="19.503" height="19.503" fill="url(#linear-gradient-6)"/>
                </g>
              </g>
            </g>
          </g>
        </g>
        <path id="Trazado_98654" data-name="Trazado 98654" d="M470.921,604.887l-.592,2.658s1.024.727.619,1.357-1.134,1.609-1.134,1.609a11.825,11.825,0,0,0,.072,2.8c.231,1.027.991,4.071.991,4.071l-.992.647-3.265-6.675,1.289-6.176,1.185-.109Z" transform="translate(-459.907 -594.345)" fill="url(#linear-gradient-7)"/>
        <path id="Trazado_98655" data-name="Trazado 98655" d="M472.479,841.935a.64.64,0,0,0-.106.5.613.613,0,0,0,.342.36,1.988,1.988,0,0,0,.887.211,25.094,25.094,0,0,0,2.651-1.759,1.2,1.2,0,0,0,.4-1.481Z" transform="translate(-464.727 -791.715)" fill="#666"/>
        <path id="Trazado_98656" data-name="Trazado 98656" d="M477.412,839.761l-.045.023a1.2,1.2,0,0,1-.429,1.38,25.071,25.071,0,0,1-2.65,1.759c-.25.1-.548-.046-.871-.166a.714.714,0,0,1-.154-.119.844.844,0,0,0,.223.211,1.179,1.179,0,0,0,.881.152,25.094,25.094,0,0,0,2.651-1.759A1.2,1.2,0,0,0,477.412,839.761Z" transform="translate(-465.49 -791.715)" fill="#333"/>
        <path id="Trazado_98657" data-name="Trazado 98657" d="M473.592,837.357l-.352.431-.1.783s.624.681,2.032-.2c.842-.53,1.407-.9,1.712-1.129a1.119,1.119,0,0,0,.425-.866.829.829,0,0,0-.507-.6,7.827,7.827,0,0,0-1.937.681Z" transform="translate(-465.385 -788.352)" fill="#f7b75d"/>
        <path id="Trazado_98658" data-name="Trazado 98658" d="M482.359,836.35a.841.841,0,0,0-.5-.583,7.055,7.055,0,0,0-1.886.658l-.815,1.209.732.2C481.736,837.133,482.229,836.634,482.359,836.35Z" transform="translate(-470.441 -788.352)" fill="#ffc988"/>
        <path id="Trazado_98659" data-name="Trazado 98659" d="M441.494,685.384l-.211,11.15c0,.928-.071,1.858-.112,2.787l-.137,2.787-.275,5.571a.843.843,0,0,1-1.684,0l-.3-5.555-.153-2.776c-.053-.925-.093-1.85-.166-2.775l-.788-11.094a1.918,1.918,0,1,1,3.825-.272C441.493,685.269,441.495,685.329,441.494,685.384Z" transform="translate(-435.572 -660.347)" fill="#f89ab5"/>
        <path id="Trazado_98660" data-name="Trazado 98660" d="M470.2,691.921l-.047,5.792-.024,2.893-.012,1.446-.006.723c0,.121,0,.241-.006.361l-.027.362-.85,11.547a.843.843,0,0,1-1.683-.039l-.309-11.5-.01-.359c0-.12-.017-.239-.025-.359l-.055-.717-.111-1.433-.221-2.865-.442-5.725a1.917,1.917,0,0,1,3.824-.3C470.2,691.81,470.2,691.868,470.2,691.921Z" transform="translate(-459.698 -665.857)" fill="#f89ab5"/>
        <path id="Trazado_98661" data-name="Trazado 98661" d="M440.148,603.643l.086-.316c.126-.3,1.087-2.562,1.087-2.562l-.654-4.887c-.692-1.779.072-2.1.135-2.915l.541-2.633,5.505,2.5-.045.135a.436.436,0,0,0,.032.351,4.207,4.207,0,0,1,.414,1.5c.187,1.583-.364,1.072-.351,2.873,0,.59-.022,2.667-.029,3.336l.765,4.008a1.026,1.026,0,0,1-.549,1.02c-.826.468-3,.287-5.878-1.035a8.2,8.2,0,0,1-.725-.638.6.6,0,0,1-.27-.479Z" transform="translate(-437.663 -582.112)" fill="url(#linear-gradient-8)"/>
        <path id="Trazado_98662" data-name="Trazado 98662" d="M445.837,674.26a8.8,8.8,0,0,0-.78,4.287c.011.788.114,1.7.169,2.755.333,6.323-8,.283-8,.283s-1.106-7.233.337-9.007C437.962,674.9,443.9,675.347,445.837,674.26Z" transform="translate(-434.867 -651.228)" fill="#5f4b8b"/>
        <path id="Trazado_98663" data-name="Trazado 98663" d="M469.612,684.2v-.535a8.253,8.253,0,0,0,3.359-.551s.1,1.4.287,3.973c.056.786-.053,1.978,0,3.031.149,2.836-2.345,3.223-4.149,2.745Z" transform="translate(-462.002 -660.08)" fill="#4c3d75"/>
        <path id="Trazado_98664" data-name="Trazado 98664" d="M451.161,589.886l1.521-1.049-5.742-2.39-1.288.822Z" transform="translate(-442.288 -578.851)" fill="url(#linear-gradient-9)"/>
        <g id="Grupo_53310" data-name="Grupo 53310" transform="translate(8.762 9.917)">
          <g id="Grupo_53309" data-name="Grupo 53309" transform="translate(11.9 3.995)">
            <path id="Trazado_98665" data-name="Trazado 98665" d="M556.108,626.487c.325.368.035.859-.505,1.336a1.022,1.022,0,0,1-1.479.069c-.325-.368-.05-.834.491-1.312a5.653,5.653,0,0,1,.762-.523C555.733,625.859,555.9,626.246,556.108,626.487Z" transform="translate(-553.985 -626.001)" fill="#f89ab5"/>
            <path id="Trazado_98666" data-name="Trazado 98666" d="M556.54,625.995l-.683.885-.715.173.433-.655a.852.852,0,0,1,.647-.379Z" transform="translate(-554.957 -625.995)" fill="#f89ab5"/>
          </g>
          <path id="Trazado_98667" data-name="Trazado 98667" d="M481.81,601.762c-.007-.017,0-.006,0-.007s0,.008,0,.011l.011.029.028.069c.021.049.043.1.069.151.05.1.1.209.164.315a7.311,7.311,0,0,0,.4.628,9.548,9.548,0,0,0,.983,1.18,12.6,12.6,0,0,0,2.487,1.954,5.945,5.945,0,0,0,1.336.625,4.246,4.246,0,0,0,1.407.195,7.845,7.845,0,0,0,2.98-.86h0a.7.7,0,0,1,.644,1.252,13.431,13.431,0,0,1-1.632.8,7.222,7.222,0,0,1-1.863.486,6.009,6.009,0,0,1-2-.111A7.8,7.8,0,0,1,485,607.8a14.66,14.66,0,0,1-3.049-2.076,11.8,11.8,0,0,1-1.31-1.37,9.635,9.635,0,0,1-.576-.786c-.091-.138-.178-.281-.263-.43-.043-.074-.084-.151-.126-.232l-.062-.126-.032-.069-.017-.039-.023-.056a1.215,1.215,0,1,1,2.273-.858Z" transform="translate(-479.458 -600.976)" fill="url(#linear-gradient-10)"/>
        </g>
        <g id="Grupo_53312" data-name="Grupo 53312">
          <path id="Trazado_98668" data-name="Trazado 98668" d="M457.264,579.315l.084,2.71a4.13,4.13,0,0,0,2.786.559l-.342-2.728Z" transform="translate(-452.046 -572.857)" fill="#f89ab5"/>
          <path id="Trazado_98669" data-name="Trazado 98669" d="M457.328,579.178a3.446,3.446,0,0,0,2.583,1.685l-.044-1.019Z" transform="translate(-452.1 -572.742)" fill="#e6e6e6" style="mix-blend-mode: multiply;isolation: isolate"/>
          <g id="Grupo_53311" data-name="Grupo 53311" transform="translate(3.722 0.037)">
            <path id="Trazado_98670" data-name="Trazado 98670" d="M454.189,543.841c-.194,1.736-1.638,3.562-3.339,3.5-1.241-.225-2.461-1.767-2.958-3.588a3.169,3.169,0,0,1,3.2-3.373c1.382-.562,2.282.739,2.723,2.642C453.879,543.3,454.156,543.545,454.189,543.841Z" transform="translate(-447.893 -540.066)" fill="#f89ab5"/>
            <path id="Trazado_98671" data-name="Trazado 98671" d="M469.22,543.026c-.4-1.732-1.183-2.964-2.362-2.748.943.117,1.584,1.249,1.935,2.762.063.273.34.522.374.817a3.956,3.956,0,0,1-2.942,3.481l.03.008c1.7.059,3.144-1.767,3.339-3.5C469.56,543.547,469.283,543.3,469.22,543.026Z" transform="translate(-463.297 -540.069)" fill="#ea8cac"/>
            <path id="Trazado_98672" data-name="Trazado 98672" d="M453.652,541.033s-1.724,1.539-5.759,1.934c0,0,.039-4.994,4.663-3.634a1.566,1.566,0,0,1,1.062,1.068A1.326,1.326,0,0,1,453.652,541.033Z" transform="translate(-447.893 -539.099)" fill="#0a1a4e"/>
          </g>
          <path id="Trazado_98673" data-name="Trazado 98673" d="M428.08,541.9s-3.843,5.969-3.467,7.764,2.7,4.792,5.057,4.859,3.093-.137,3.087-1.227-1.523-5.851-1.255-7.458,2.13-4.558,2.266-5.375-1.489-1.589-1.879-1.589S428.985,538.712,428.08,541.9Z" transform="translate(-424.587 -538.869)" fill="#0a1a4e"/>
        </g>
        <path id="Trazado_98674" data-name="Trazado 98674" d="M483.964,838.807a.622.622,0,0,1,.543.16s.419.571.165.861a2.687,2.687,0,0,1-.781.521l.019-1.531Z" transform="translate(-474.422 -790.904)" fill="#f7b75d"/>
        <path id="Trazado_98675" data-name="Trazado 98675" d="M456.134,825.42a.621.621,0,0,1,.543.16s.419.571.165.861a2.687,2.687,0,0,1-.78.521l.019-1.531Z" transform="translate(-451.036 -779.655)" fill="#f7b75d"/>
      </g>
    </g>
    <g id="Grupo_53316" data-name="Grupo 53316" transform="translate(397.116 222.117)">
      <path id="Trazado_98676" data-name="Trazado 98676" d="M972.892,596.672l-.175-.1h0c-.053-.033-.169-.08-.22-.044a.082.082,0,0,0-.042.012.085.085,0,0,0-.042.013.094.094,0,0,0-.042.012,1.793,1.793,0,0,1-.083.026.1.1,0,0,0-.042.013.111.111,0,0,0-.043.012.124.124,0,0,0-.042.013.131.131,0,0,0-.042.013.134.134,0,0,0-.042.012.139.139,0,0,0-.042.013.141.141,0,0,0-.041.012,34.231,34.231,0,0,0-.084.026.136.136,0,0,0-.042.013.153.153,0,0,0-.042.013.338.338,0,0,0-.072.019.157.157,0,0,0-.041.012.657.657,0,0,0-.081.025l-4.7,1.409a3.646,3.646,0,0,0-1.948.186c-.043.009-.52.128-.552.137s-.074.017-.109.027-.075.017-.111.028-.075.017-.11.027-.075.017-.11.027-.076.017-.11.027-.075.018-.11.027-.076.017-.112.028-.075.018-.111.028-.075.017-.11.027-.075.017-.11.028-.075.017-.111.027-.074.017-.111.027-.074.017-.109.028-.076.017-.111.027-.075.017-.11.028-.075.017-.11.027-.075.018-.111.028-.074.017-.109.027-.076.018-.111.027-.074.017-.11.028-.075.017-.11.027-.075.018-.11.028-.076.017-.111.027-.074.018-.11.027-.074.017-.109.027-.075.017-.111.028-.076.018-.111.027l-.109.027c-.038.009-.076.018-.112.028s-.075.017-.111.027-.074.017-.109.027-.075.017-.111.027-.075.018-.11.028-.075.017-.111.027l-.11.027-.11.027-.111.027-.111.028-.11.027c-.037.009-.074.018-.11.028s-.075.017-.11.027-.075.018-.111.028-.074.017-.11.027l-.111.028c-.038.009-.075.017-.11.028s-.074.017-.11.027l-.111.028-.11.027c-.037.009-.075.018-.111.028l-.11.027-.109.027-.111.028-.111.028-.109.027c-.038.009-.075.018-.111.028s-.074.017-.109.027l-.111.027-.11.027-.111.028c-.038.009-.075.017-.111.028s-.074.017-.109.027l-.111.028c-.037.009-.074.017-.109.027l-.112.028-.11.027-.109.027c-.037.009-.075.018-.111.028s-.075.017-.111.028l-.11.027-.109.027-.109.027c-.039.009-.076.018-.112.028s-.074.018-.11.028-.074.017-.109.027l-.111.027-.11.028c-.031.007-.063.014-.093.022s-.082.019-.122.03-.076.018-.112.028-.075.018-.11.028-.075.018-.111.027-.074.017-.109.027-.075.018-.111.027l-.112.028-.11.028-.108.027-.111.028c-.038.009-.075.017-.111.027s-.075.018-.111.028l-.109.027-.111.028-.112.028-.11.028c-.037.008-.073.017-.107.026l-.112.028-.109.027-.112.028c-.038.009-.074.018-.11.028l-.109.027-.114.029-.109.027-.108.027-.111.027-.114.028-.109.027-.108.027-.111.028c-.037.009-.074.017-.11.027l-.11.027-.111.028-.109.027-.112.028-.111.028-.108.027-.109.027-.112.028-.112.028-.108.027-.109.027-.113.028c-.037.008-.073.017-.109.027s-.076.018-.112.028l-.108.027-.111.027c-.038.009-.075.018-.112.028l-.108.026c-.038.009-.076.018-.113.028l-.109.027-.111.028-.111.028-.107.026-.113.028-.11.027-.109.027-.112.027-.109.027-.11.027-.111.028a3.164,3.164,0,0,0-.785.291h-.006l-50.717,29.056-1.566,2.984,5.86,4.4,7.426,1.418,52.283-30.047a2.34,2.34,0,0,0,.232-.133l.038-.022v-.005a1.655,1.655,0,0,0,.392-.366c.016-.02.033-.039.048-.06s.035-.041.051-.063.034-.041.05-.062.035-.041.051-.063.034-.04.049-.061.035-.041.051-.063.034-.04.049-.061.034-.041.05-.062.035-.04.05-.061.035-.042.051-.063l.051-.063c.016-.02.033-.039.048-.06s.036-.042.052-.064.034-.041.05-.062.034-.039.049-.06.036-.042.052-.065.034-.04.05-.061.035-.041.05-.062.034-.04.049-.061.035-.041.05-.062.035-.041.05-.063.035-.041.051-.063.033-.039.049-.059.035-.042.051-.063.035-.041.051-.062.034-.041.05-.062.034-.041.05-.062.035-.041.05-.062.035-.041.051-.062.034-.041.05-.062.034-.041.049-.061.034-.04.049-.061.036-.043.053-.066.034-.04.049-.06.034-.04.049-.061.035-.041.05-.062.036-.042.052-.064.034-.041.05-.061.034-.041.049-.061.035-.041.05-.062.035-.042.052-.064.034-.04.05-.061.034-.039.049-.061.034-.041.05-.062.036-.042.052-.064.034-.04.049-.06.035-.041.05-.062l.051-.062c.017-.021.034-.041.05-.063s.035-.041.051-.062.033-.04.049-.061.036-.042.051-.063.034-.041.05-.062.034-.041.05-.062.034-.041.05-.062.035-.041.05-.062.035-.041.05-.062.034-.041.05-.061.035-.041.05-.062.034-.04.05-.061.042-.052.062-.079.029-.036.042-.054a.719.719,0,0,0,.049-.06c.018-.021.035-.042.051-.063s.034-.04.05-.062.035-.041.05-.062.034-.04.05-.061.035-.041.05-.062.035-.041.05-.062.035-.041.051-.063.034-.04.049-.061a.765.765,0,0,0,.05-.062c.018-.02.035-.041.051-.062s.035-.041.05-.063.034-.04.05-.061.035-.042.051-.063.034-.04.049-.061.035-.041.05-.062a.686.686,0,0,0,.05-.062,14.9,14.9,0,0,0,.1-.123.637.637,0,0,0,.051-.062c.018-.02.035-.041.05-.062s.035-.04.05-.061.035-.041.05-.062.035-.041.05-.062.034-.041.049-.062.035-.04.051-.062.035-.041.05-.062.035-.04.05-.062.035-.041.051-.062.035-.041.05-.062a.779.779,0,0,0,.05-.062.769.769,0,0,0,.05-.062c.018-.02.035-.041.05-.062s.035-.04.05-.061.035-.041.05-.062.035-.041.051-.062.035-.041.05-.062a.739.739,0,0,0,.05-.061.732.732,0,0,0,.051-.064.655.655,0,0,0,.049-.06.807.807,0,0,0,.051-.063.744.744,0,0,0,.049-.061c.018-.02.035-.041.051-.062s.035-.04.049-.061a.661.661,0,0,0,.05-.063.766.766,0,0,0,.051-.062.8.8,0,0,0,.05-.062,396.582,396.582,0,0,1,.1-.124.628.628,0,0,0,.05-.062.707.707,0,0,0,.05-.062.718.718,0,0,0,.05-.062c.018-.02.035-.041.05-.062a.741.741,0,0,0,.05-.062.58.58,0,0,0,.049-.061.613.613,0,0,0,.051-.062c.018-.02.035-.041.05-.062a.719.719,0,0,0,.05-.062.585.585,0,0,0,.05-.062.514.514,0,0,0,.05-.062.693.693,0,0,0,.051-.062.658.658,0,0,0,.05-.061.793.793,0,0,0,.05-.062.691.691,0,0,0,.051-.062.627.627,0,0,0,.049-.062.579.579,0,0,0,.05-.062.461.461,0,0,0,.05-.061.63.63,0,0,0,.052-.064.589.589,0,0,0,.049-.061A.635.635,0,0,0,969,601.7a.706.706,0,0,0,.05-.061,12.6,12.6,0,0,1,.1-.124.547.547,0,0,0,.05-.062.561.561,0,0,0,.051-.062.478.478,0,0,0,.05-.062.507.507,0,0,0,.05-.062.777.777,0,0,0,.05-.062.573.573,0,0,0,.05-.062.5.5,0,0,0,.05-.062.47.47,0,0,0,.05-.063.409.409,0,0,0,.05-.061.538.538,0,0,0,.05-.062.575.575,0,0,0,.051-.062.528.528,0,0,0,.049-.061.476.476,0,0,0,.05-.062.433.433,0,0,0,.05-.062.411.411,0,0,0,.05-.063.534.534,0,0,0,0-.68c-.022-.037-.047-.074-.074-.111a.212.212,0,0,0,.017-.018c.008-.008.016-.015.023-.024s.015-.014.021-.022a.255.255,0,0,0,.022-.023.286.286,0,0,0,.023-.024c.007-.008.015-.014.021-.022s.015-.015.022-.023a.3.3,0,0,0,.022-.023.2.2,0,0,0,.022-.024.191.191,0,0,0,.021-.023.278.278,0,0,0,.022-.022l.018-.019a.351.351,0,0,0,.027-.028c.007-.008.015-.015.022-.023s.015-.014.021-.022a.221.221,0,0,0,.022-.023.251.251,0,0,0,.023-.023c.007-.008.015-.015.021-.023a.293.293,0,0,0,.022-.023c.007-.008.016-.015.022-.023a.242.242,0,0,0,.022-.023.188.188,0,0,0,.022-.023.261.261,0,0,0,.027-.031.228.228,0,0,0,.019-.022l.533-.561Z" transform="translate(-893.685 -592.071)" fill="#e5e5e4" style="mix-blend-mode: multiply;isolation: isolate"/>
      <g id="Grupo_53315" data-name="Grupo 53315" transform="translate(0 0)">
        <path id="Trazado_98677" data-name="Trazado 98677" d="M1309.243,568.861a.215.215,0,0,0-.1-.167.064.064,0,0,0-.072,0,.053.053,0,0,0-.036.01.058.058,0,0,0-.037.01.059.059,0,0,0-.037.01.062.062,0,0,0-.036.01.064.064,0,0,0-.037.01.071.071,0,0,0-.037.01.073.073,0,0,0-.037.01.075.075,0,0,0-.037.01.079.079,0,0,0-.037.01.081.081,0,0,0-.037.01,50.489,50.489,0,0,0-.11.03.1.1,0,0,0-.037.01.1.1,0,0,0-.036.01.106.106,0,0,0-.037.009l-.017,0a5,5,0,0,0-.152.038,3.261,3.261,0,0,0-.072.019.124.124,0,0,0-.036.009,5.785,5.785,0,0,1-.072.019.157.157,0,0,0-.036.009.134.134,0,0,0-.035.01.142.142,0,0,0-.036.009.169.169,0,0,0-.036.01.158.158,0,0,0-.036.009.155.155,0,0,0-.036.01.149.149,0,0,0-.035.009.185.185,0,0,0-.036.01.163.163,0,0,0-.035.009.167.167,0,0,0-.036.009.156.156,0,0,0-.035.009.17.17,0,0,0-.036.009.21.21,0,0,0-.036.009.19.19,0,0,0-.036.01.2.2,0,0,0-.036.01.161.161,0,0,0-.035.009.213.213,0,0,0-.036.01.177.177,0,0,0-.035.009.18.18,0,0,0-.037.009.236.236,0,0,0-.035.009.212.212,0,0,0-.036.009,1.943,1.943,0,0,1-.071.019.248.248,0,0,0-.036.01.213.213,0,0,0-.036.009.241.241,0,0,0-.036.01.217.217,0,0,0-.036.009.2.2,0,0,0-.036.009.21.21,0,0,0-.036.009.229.229,0,0,0-.035.009.255.255,0,0,0-.036.01.209.209,0,0,0-.036.009.267.267,0,0,0-.036.009.255.255,0,0,0-.036.009.267.267,0,0,0-.035.009.3.3,0,0,0-.036.009.223.223,0,0,0-.035.009,11.756,11.756,0,0,1-.072.019.294.294,0,0,0-.036.01.245.245,0,0,0-.035.009.373.373,0,0,0-.036.01.224.224,0,0,0-.036.009.237.237,0,0,0-.036.01.24.24,0,0,0-.036.009.318.318,0,0,0-.035.009.366.366,0,0,0-.036.01.225.225,0,0,0-.036.009.335.335,0,0,0-.036.009.288.288,0,0,0-.036.009.32.32,0,0,0-.036.01.3.3,0,0,0-.035.009.286.286,0,0,0-.036.009,7.583,7.583,0,0,1-.072.019l-.035.01a.27.27,0,0,0-.036.009.348.348,0,0,0-.036.01c-.012,0-.023.006-.035.009s-.024.007-.036.01a.306.306,0,0,0-.035.009l-.037.009c-.012,0-.024.006-.036.01s-.024.006-.036.009l-.035.01a.35.35,0,0,0-.037.009.354.354,0,0,0-.036.01l-.035.009a.351.351,0,0,0-.036.01.261.261,0,0,0-.036.009.248.248,0,0,0-.036.01c-.012,0-.024.006-.036.009l-.036.009-.036.01a.336.336,0,0,0-.035.009c-.012,0-.024.006-.035.009a.321.321,0,0,0-.037.009c-.012,0-.024.006-.036.01a.34.34,0,0,0-.036.01.321.321,0,0,0-.035.009c-.012,0-.024.006-.036.009a.326.326,0,0,0-.036.009c-.013,0-.024.007-.036.01a.358.358,0,0,0-.035.009l-.033.008a.458.458,0,0,0-.047.011l-.036.01-.036.009a.293.293,0,0,0-.035.009l-.037.009-.035.01-.036.009-.035.009-.037.01c-.012,0-.023.006-.035.009s-.024.006-.036.01l-.034.009-.038.01c-.012,0-.023.006-.035.009l-.036.009-.036.009c-.013,0-.024.006-.037.009l-.036.01-.035.009-.036.009c-.013,0-.025.006-.037.01l-.034.009-.037.01-.035.009-.036.009-.037.009-.034.01-.037.01-.034.009c-.012,0-.024.006-.036.009s-.025.006-.037.01l-.034.009c-.012,0-.024.006-.036.009l-.036.01-.035.009-.036.01-.036.009-.035.009-.038.01c-.3.059-.5.339-.5.787a2.472,2.472,0,0,0,1.118,1.937.7.7,0,0,0,.928-.035.514.514,0,0,0,.052-.051c.009-.009.018-.016.026-.026s.018-.016.026-.025.018-.017.027-.026.018-.016.026-.025.018-.016.026-.026.019-.017.027-.027l.013-.013.012-.011c.009-.009.018-.017.027-.026s.019-.017.027-.026.018-.016.026-.025l.027-.027c.008-.008.017-.016.025-.025s.019-.017.027-.026.018-.016.026-.025l.026-.026c.009-.009.018-.017.027-.027s.017-.016.025-.024.018-.016.026-.026a.371.371,0,0,0,.028-.027c.009-.008.018-.016.026-.025s.018-.016.026-.025.018-.016.027-.026.019-.017.027-.027l.026-.025c.009-.008.017-.016.026-.025l.021-.021c.011-.01.022-.02.032-.032s.018-.016.026-.026.018-.016.026-.025.018-.016.026-.026.019-.017.027-.026.018-.016.026-.026.018-.016.026-.025.018-.017.026-.026.018-.016.027-.026.018-.016.026-.025a.479.479,0,0,0,.034-.035c.008-.008.017-.015.024-.024s.018-.016.026-.026.018-.017.027-.026.018-.015.026-.025.019-.016.027-.026.018-.016.027-.026.018-.016.026-.026.018-.016.026-.025.018-.016.026-.026.019-.016.026-.026.018-.017.026-.026a.314.314,0,0,0,.026-.025.324.324,0,0,0,.026-.026.293.293,0,0,0,.027-.026c.009-.009.018-.016.026-.026a.349.349,0,0,0,.026-.026.287.287,0,0,0,.026-.026c.009-.009.018-.016.027-.026a.256.256,0,0,0,.026-.026.313.313,0,0,0,.026-.026.258.258,0,0,0,.026-.026.251.251,0,0,0,.026-.026.255.255,0,0,0,.027-.026.34.34,0,0,0,.026-.025.346.346,0,0,0,.026-.026.3.3,0,0,0,.026-.026c.009-.009.018-.016.026-.026a.322.322,0,0,0,.026-.026.34.34,0,0,0,.027-.026.26.26,0,0,0,.026-.026.322.322,0,0,0,.027-.026.273.273,0,0,0,.026-.026.328.328,0,0,0,.026-.025.308.308,0,0,0,.027-.026,3.89,3.89,0,0,1,.052-.051.291.291,0,0,0,.026-.026.308.308,0,0,0,.027-.026.32.32,0,0,0,.026-.025.361.361,0,0,0,.027-.026.312.312,0,0,0,.026-.026.353.353,0,0,0,.026-.026.3.3,0,0,0,.026-.025.25.25,0,0,0,.027-.026.246.246,0,0,0,.026-.026.268.268,0,0,0,.026-.026.273.273,0,0,0,.026-.026,11.107,11.107,0,0,1,.053-.052.237.237,0,0,0,.026-.026.228.228,0,0,0,.026-.026.207.207,0,0,0,.026-.026.24.24,0,0,0,.027-.026.252.252,0,0,0,.026-.026.209.209,0,0,0,.026-.026.212.212,0,0,0,.026-.026.23.23,0,0,0,.027-.026.264.264,0,0,0,.026-.026.224.224,0,0,0,.026-.026.206.206,0,0,0,.026-.026.232.232,0,0,0,.027-.026.248.248,0,0,0,.026-.025.27.27,0,0,0,.027-.026.192.192,0,0,0,.026-.025.208.208,0,0,0,.027-.026.189.189,0,0,0,.026-.026.206.206,0,0,0,.026-.026.191.191,0,0,0,.026-.025.18.18,0,0,0,.027-.026,19.86,19.86,0,0,1,.053-.051.165.165,0,0,0,.026-.026.152.152,0,0,0,.027-.026.156.156,0,0,0,.026-.025.178.178,0,0,0,.026-.026.161.161,0,0,0,.026-.025.181.181,0,0,0,.026-.026.168.168,0,0,0,.026-.026.154.154,0,0,0,.026-.026.13.13,0,0,0,.026-.026.147.147,0,0,0,.026-.026.161.161,0,0,0,.026-.026.171.171,0,0,0,.026-.026.133.133,0,0,0,.026-.026.138.138,0,0,0,.026-.025,304.459,304.459,0,0,1,.053-.051.131.131,0,0,0,.026-.026.135.135,0,0,0,.026-.025.119.119,0,0,0,.027-.026.116.116,0,0,0,.026-.025.113.113,0,0,0,.026-.026.106.106,0,0,0,.026-.026.112.112,0,0,0,.031-.032.1.1,0,0,0,.013-.015.1.1,0,0,0,.027-.026,7.985,7.985,0,0,0,.054-.053.092.092,0,0,0,.027-.026.088.088,0,0,0,.027-.026.086.086,0,0,0,.027-.026,50.53,50.53,0,0,1,.082-.079.075.075,0,0,0,.027-.027.067.067,0,0,0,.027-.027.063.063,0,0,0,.027-.026.064.064,0,0,0,.027-.026.061.061,0,0,0,.027-.026.058.058,0,0,0,.028-.027.054.054,0,0,0,.027-.026A.064.064,0,0,0,1309.243,568.861Z" transform="translate(-1235.748 -568.681)" fill="#58595b"/>
        <path id="Trazado_98678" data-name="Trazado 98678" d="M1218.533,575.569c-.032,0-13.967,2.728-14,2.736-1.287.231-2.137,1.418-2.137,3.328,0,5.119,5.849,11.225,8.844,7.8.009-.009,9.431-10.294,9.439-10.3C1221.643,578.2,1220.082,575.163,1218.533,575.569Z" transform="translate(-1151.036 -574.438)" fill="#f9a01b"/>
        <path id="Trazado_98679" data-name="Trazado 98679" d="M883.214,785.5l-2.457-6.331,2.457-3.495,4.913,2.837,2.456,6.332-2.456,3.495Z" transform="translate(-880.757 -742.622)" fill="#b5930b"/>
        <path id="Trazado_98680" data-name="Trazado 98680" d="M1203.892,603.888l-2.457-6.331,1.577-3.105,5.793,2.447,2.456,6.332-1.474,2.72Z" transform="translate(-1150.229 -590.336)" fill="#f4d03f"/>
        <path id="Trazado_98681" data-name="Trazado 98681" d="M980.571,649.426l-51.205,29.327-2.457,3.495,52.188-30.1Z" transform="translate(-919.54 -636.533)" fill="#f1c40f"/>
        <path id="Trazado_98682" data-name="Trazado 98682" d="M978.115,609.774,926.909,639.1l2.457,6.332,51.205-29.327Z" transform="translate(-919.54 -603.212)" fill="#f4d03f"/>
        <path id="Trazado_98683" data-name="Trazado 98683" d="M946.467,594.451l-50.325,28.937,4.913,2.837L952.26,596.9Z" transform="translate(-893.685 -590.336)" fill="#f1c40f"/>
        <path id="Trazado_98684" data-name="Trazado 98684" d="M905.326,808.175c0,.928-.651,1.3-1.455.839a3.214,3.214,0,0,1-1.454-2.519c0-.928.651-1.3,1.454-.84A3.215,3.215,0,0,1,905.326,808.175Z" transform="translate(-898.958 -767.649)" fill="#58595b"/>
      </g>
    </g>
  </g>
</svg>
